<svg version="1.1" viewBox="0.0 0.0 378.9763779527559 566.01312335958" fill="none" stroke="none" stroke-linecap="square" stroke-miterlimit="10" xmlns:xlink="http://www.w3.org/1999/xlink" xmlns="http://www.w3.org/2000/svg"><clipPath id="p.0"><path d="m0 0l378.97638 0l0 566.0131l-378.97638 0l0 -566.0131z" clip-rule="nonzero"/></clipPath><g clip-path="url(#p.0)"><path fill="#000000" fill-opacity="0.0" d="m0 0l378.97638 0l0 566.0131l-378.97638 0z" fill-rule="evenodd"/><path fill="#ffffff" d="m6.1391077 9.196851l366.70868 0l0 551.3071l-366.70868 0z" fill-rule="evenodd"/><path stroke="#000000" stroke-width="1.0" stroke-linejoin="round" stroke-linecap="butt" d="m6.1391077 9.196851l366.70868 0l0 551.3071l-366.70868 0z" fill-rule="evenodd"/><path fill="#cccccc" d="m64.0 70.72179l294.83466 0l0 311.1181l-294.83466 0z" fill-rule="evenodd"/><path stroke="#000000" stroke-width="1.0" stroke-linejoin="round" stroke-linecap="butt" d="m64.0 70.72179l294.83466 0l0 311.1181l-294.83466 0z" fill-rule="evenodd"/><path fill="#000000" d="m73.734375 88.681786l0 -6.671875l2.953125 0q0.90625 0 1.359375 0.1875q0.46875 0.171875 0.75 0.625q0.28125 0.453125 0.28125 1.0q0 0.71875 -0.46875 1.203125q-0.453125 0.484375 -1.421875 0.625q0.359375 0.15625 0.53125 0.328125q0.390625 0.359375 0.734375 0.890625l1.171875 1.8125l-1.125 0l-0.875 -1.390625q-0.390625 -0.59375 -0.640625 -0.90625q-0.25 -0.328125 -0.453125 -0.453125q-0.1875 -0.140625 -0.390625 -0.1875q-0.15625 -0.03125 -0.5 -0.03125l-1.03125 0l0 2.96875l-0.875 0zm0.875 -3.734375l1.90625 0q0.609375 0 0.953125 -0.125q0.34375 -0.125 0.515625 -0.390625q0.171875 -0.28125 0.171875 -0.609375q0 -0.46875 -0.34375 -0.765625q-0.34375 -0.3125 -1.078125 -0.3125l-2.125 0l0 2.203125zm9.048981 2.171875l0.84375 0.109375q-0.1875 0.75 -0.734375 1.15625q-0.546875 0.40625 -1.390625 0.40625q-1.0625 0 -1.6875 -0.65625q-0.609375 -0.65625 -0.609375 -1.828125q0 -1.21875 0.625 -1.890625q0.625 -0.6875 1.625 -0.6875q0.984375 0 1.59375 0.671875q0.609375 0.65625 0.609375 1.859375q0 0.0625 0 0.21875l-3.609375 0q0.046875 0.796875 0.453125 1.21875q0.40625 0.421875 1.015625 0.421875q0.453125 0 0.765625 -0.234375q0.3125 -0.234375 0.5 -0.765625zm-2.6875 -1.328125l2.703125 0q-0.0625 -0.609375 -0.3125 -0.90625q-0.390625 -0.46875 -1.015625 -0.46875q-0.5625 0 -0.953125 0.375q-0.375 0.375 -0.421875 1.0zm4.234741 1.453125l0.8125 -0.140625q0.078125 0.5 0.390625 0.765625q0.3125 0.25 0.859375 0.25q0.578125 0 0.84375 -0.234375q0.28125 -0.234375 0.28125 -0.53125q0 -0.28125 -0.25 -0.4375q-0.171875 -0.109375 -0.84375 -0.28125q-0.890625 -0.234375 -1.25 -0.390625q-0.34375 -0.171875 -0.53125 -0.46875q-0.171875 -0.296875 -0.171875 -0.640625q0 -0.328125 0.140625 -0.59375q0.15625 -0.28125 0.40625 -0.46875q0.203125 -0.140625 0.53125 -0.234375q0.328125 -0.109375 0.703125 -0.109375q0.578125 0 1.0 0.171875q0.4375 0.15625 0.640625 0.4375q0.203125 0.28125 0.28125 0.75l-0.796875 0.109375q-0.0625 -0.375 -0.328125 -0.578125q-0.265625 -0.203125 -0.734375 -0.203125q-0.5625 0 -0.8125 0.1875q-0.234375 0.171875 -0.234375 0.4375q0 0.15625 0.09375 0.28125q0.109375 0.125 0.3125 0.21875q0.125 0.046875 0.734375 0.203125q0.859375 0.234375 1.203125 0.390625q0.34375 0.140625 0.53125 0.421875q0.203125 0.28125 0.203125 0.703125q0 0.40625 -0.234375 0.78125q-0.234375 0.359375 -0.6875 0.5625q-0.453125 0.1875 -1.015625 0.1875q-0.953125 0 -1.453125 -0.390625q-0.484375 -0.390625 -0.625 -1.15625zm5.0078125 -4.296875l0 -0.9375l0.8125 0l0 0.9375l-0.8125 0zm0 5.734375l0 -4.84375l0.8125 0l0 4.84375l-0.8125 0zm5.197418 0l0 -0.609375q-0.453125 0.71875 -1.34375 0.71875q-0.578125 0 -1.0625 -0.3125q-0.484375 -0.328125 -0.765625 -0.890625q-0.265625 -0.578125 -0.265625 -1.3125q0 -0.734375 0.234375 -1.3125q0.25 -0.59375 0.734375 -0.90625q0.484375 -0.328125 1.078125 -0.328125q0.4375 0 0.78125 0.1875q0.34375 0.1875 0.5625 0.484375l0 -2.390625l0.8125 0l0 6.671875l-0.765625 0zm-2.59375 -2.40625q0 0.921875 0.390625 1.390625q0.390625 0.453125 0.9375 0.453125q0.53125 0 0.90625 -0.4375q0.375 -0.4375 0.375 -1.34375q0 -1.0 -0.390625 -1.453125q-0.375 -0.46875 -0.9375 -0.46875q-0.546875 0 -0.921875 0.453125q-0.359375 0.4375 -0.359375 1.40625zm7.812866 2.40625l0 -0.703125q-0.5625 0.8125 -1.53125 0.8125q-0.421875 0 -0.796875 -0.15625q-0.375 -0.171875 -0.5625 -0.421875q-0.171875 -0.25 -0.25 -0.609375q-0.046875 -0.234375 -0.046875 -0.765625l0 -3.0l0.828125 0l0 2.6875q0 0.640625 0.046875 0.875q0.078125 0.3125 0.328125 0.5q0.25 0.1875 0.609375 0.1875q0.375 0 0.703125 -0.1875q0.328125 -0.1875 0.453125 -0.515625q0.140625 -0.328125 0.140625 -0.953125l0 -2.59375l0.8125 0l0 4.84375l-0.734375 0zm5.172241 -0.59375q-0.453125 0.390625 -0.875 0.546875q-0.421875 0.15625 -0.90625 0.15625q-0.796875 0 -1.21875 -0.390625q-0.421875 -0.390625 -0.421875 -1.0q0 -0.34375 0.15625 -0.640625q0.15625 -0.296875 0.421875 -0.46875q0.265625 -0.1875 0.59375 -0.28125q0.234375 -0.0625 0.71875 -0.109375q1.0 -0.125 1.46875 -0.28125q0 -0.171875 0 -0.21875q0 -0.5 -0.234375 -0.703125q-0.3125 -0.28125 -0.921875 -0.28125q-0.578125 0 -0.859375 0.203125q-0.28125 0.203125 -0.40625 0.71875l-0.796875 -0.109375q0.109375 -0.515625 0.359375 -0.828125q0.25 -0.328125 0.71875 -0.5q0.46875 -0.171875 1.09375 -0.171875q0.625 0 1.0 0.15625q0.390625 0.140625 0.578125 0.359375q0.1875 0.21875 0.25 0.5625q0.046875 0.203125 0.046875 0.75l0 1.09375q0 1.140625 0.046875 1.453125q0.0625 0.296875 0.21875 0.578125l-0.859375 0q-0.125 -0.25 -0.171875 -0.59375zm-0.0625 -1.828125q-0.453125 0.171875 -1.34375 0.296875q-0.5 0.078125 -0.71875 0.171875q-0.203125 0.09375 -0.3125 0.265625q-0.109375 0.171875 -0.109375 0.390625q0 0.328125 0.234375 0.546875q0.25 0.21875 0.734375 0.21875q0.46875 0 0.828125 -0.203125q0.375 -0.21875 0.5625 -0.578125q0.125 -0.265625 0.125 -0.8125l0 -0.296875zm2.0784912 2.421875l0 -6.671875l0.828125 0l0 6.671875l-0.828125 0zm4.7578278 0l0 -6.671875l2.5 0q0.765625 0 1.21875 0.203125q0.46875 0.203125 0.734375 0.625q0.265625 0.421875 0.265625 0.875q0 0.421875 -0.234375 0.8125q-0.234375 0.375 -0.703125 0.609375q0.609375 0.171875 0.921875 0.609375q0.328125 0.421875 0.328125 1.0q0 0.46875 -0.203125 0.875q-0.1875 0.40625 -0.484375 0.625q-0.28125 0.21875 -0.734375 0.328125q-0.4375 0.109375 -1.0625 0.109375l-2.546875 0zm0.875 -3.875l1.453125 0q0.578125 0 0.84375 -0.078125q0.328125 -0.09375 0.5 -0.328125q0.171875 -0.234375 0.171875 -0.578125q0 -0.34375 -0.15625 -0.59375q-0.15625 -0.25 -0.453125 -0.34375q-0.296875 -0.09375 -1.015625 -0.09375l-1.34375 0l0 2.015625zm0 3.09375l1.671875 0q0.421875 0 0.59375 -0.03125q0.3125 -0.0625 0.515625 -0.1875q0.203125 -0.125 0.328125 -0.359375q0.140625 -0.25 0.140625 -0.578125q0 -0.375 -0.203125 -0.640625q-0.1875 -0.28125 -0.53125 -0.390625q-0.328125 -0.109375 -0.96875 -0.109375l-1.546875 0l0 2.296875zm5.2530365 0.78125l0 -6.671875l0.828125 0l0 6.671875l-0.828125 0zm1.7911682 -2.421875q0 -1.34375 0.75 -1.984375q0.625 -0.546875 1.515625 -0.546875q1.0 0 1.625 0.65625q0.640625 0.65625 0.640625 1.8125q0 0.9375 -0.28125 1.46875q-0.28125 0.53125 -0.8125 0.828125q-0.53125 0.296875 -1.171875 0.296875q-1.015625 0 -1.640625 -0.640625q-0.625 -0.65625 -0.625 -1.890625zm0.84375 0q0 0.9375 0.40625 1.40625q0.40625 0.453125 1.015625 0.453125q0.609375 0 1.015625 -0.46875q0.40625 -0.46875 0.40625 -1.421875q0 -0.890625 -0.40625 -1.34375q-0.40625 -0.46875 -1.015625 -0.46875q-0.609375 0 -1.015625 0.46875q-0.40625 0.453125 -0.40625 1.375zm7.797241 0.65625l0.8125 0.09375q-0.125 0.84375 -0.671875 1.3125q-0.546875 0.46875 -1.34375 0.46875q-0.984375 0 -1.59375 -0.640625q-0.609375 -0.65625 -0.609375 -1.875q0 -0.78125 0.265625 -1.359375q0.265625 -0.59375 0.78125 -0.890625q0.53125 -0.296875 1.15625 -0.296875q0.796875 0 1.296875 0.40625q0.5 0.390625 0.640625 1.125l-0.796875 0.125q-0.109375 -0.484375 -0.40625 -0.71875q-0.28125 -0.25 -0.703125 -0.25q-0.609375 0 -1.0 0.4375q-0.390625 0.4375 -0.390625 1.40625q0 0.96875 0.375 1.421875q0.375 0.4375 0.984375 0.4375q0.46875 0 0.796875 -0.296875q0.328125 -0.296875 0.40625 -0.90625zm1.5234375 1.765625l0 -6.671875l0.8125 0l0 3.796875l1.9375 -1.96875l1.0625 0l-1.84375 1.796875l2.03125 3.046875l-1.015625 0l-1.59375 -2.46875l-0.578125 0.546875l0 1.921875l-0.8125 0z" fill-rule="nonzero"/><path fill="#3399cc" d="m231.41733 167.64305l101.165344 0l0 27.653534l-101.165344 0z" fill-rule="evenodd"/><path stroke="#000000" stroke-width="1.0" stroke-linejoin="round" stroke-linecap="butt" d="m231.41733 167.64305l101.165344 0l0 27.653534l-101.165344 0z" fill-rule="evenodd"/><path fill="#ffffff" d="m264.28415 188.38982l0 -13.359375l5.921875 0q1.78125 0 2.703125 0.359375q0.9375 0.359375 1.484375 1.28125q0.5625 0.90625 0.5625 2.015625q0 1.40625 -0.921875 2.390625q-0.921875 0.96875 -2.84375 1.234375q0.703125 0.34375 1.078125 0.671875q0.765625 0.703125 1.453125 1.765625l2.328125 3.640625l-2.21875 0l-1.765625 -2.78125q-0.78125 -1.203125 -1.28125 -1.828125q-0.5 -0.640625 -0.90625 -0.890625q-0.390625 -0.265625 -0.796875 -0.359375q-0.296875 -0.078125 -0.984375 -0.078125l-2.046875 0l0 5.9375l-1.765625 0zm1.765625 -7.453125l3.796875 0q1.21875 0 1.890625 -0.25q0.6875 -0.265625 1.046875 -0.8125q0.359375 -0.546875 0.359375 -1.1875q0 -0.953125 -0.6875 -1.5625q-0.6875 -0.609375 -2.1875 -0.609375l-4.21875 0l0 4.421875zm18.09793 4.34375l1.6875 0.203125q-0.40625 1.484375 -1.484375 2.3125q-1.078125 0.8125 -2.765625 0.8125q-2.125 0 -3.375 -1.296875q-1.234375 -1.3125 -1.234375 -3.671875q0 -2.453125 1.25 -3.796875q1.265625 -1.34375 3.265625 -1.34375q1.9375 0 3.15625 1.328125q1.234375 1.3125 1.234375 3.703125q0 0.15625 0 0.4375l-7.21875 0q0.09375 1.59375 0.90625 2.453125q0.8125 0.84375 2.015625 0.84375q0.90625 0 1.546875 -0.46875q0.640625 -0.484375 1.015625 -1.515625zm-5.390625 -2.65625l5.40625 0q-0.109375 -1.21875 -0.625 -1.828125q-0.78125 -0.953125 -2.03125 -0.953125q-1.125 0 -1.90625 0.765625q-0.765625 0.75 -0.84375 2.015625zm9.094482 5.765625l0 -13.359375l1.640625 0l0 13.359375l-1.640625 0zm10.519806 0l0 -1.421875q-1.125 1.640625 -3.0625 1.640625q-0.859375 0 -1.609375 -0.328125q-0.734375 -0.328125 -1.09375 -0.828125q-0.359375 -0.5 -0.5 -1.21875q-0.109375 -0.46875 -0.109375 -1.53125l0 -5.984375l1.640625 0l0 5.359375q0 1.28125 0.109375 1.734375q0.15625 0.640625 0.65625 1.015625q0.5 0.375 1.234375 0.375q0.734375 0 1.375 -0.375q0.65625 -0.390625 0.921875 -1.03125q0.265625 -0.65625 0.265625 -1.890625l0 -5.1875l1.640625 0l0 9.671875l-1.46875 0z" fill-rule="nonzero"/><path fill="#3399cc" d="m231.41733 195.65617l101.165344 0l0 27.653534l-101.165344 0z" fill-rule="evenodd"/><path stroke="#000000" stroke-width="1.0" stroke-linejoin="round" stroke-linecap="butt" d="m231.41733 195.65617l101.165344 0l0 27.653534l-101.165344 0z" fill-rule="evenodd"/><path fill="#ffffff" d="m270.40112 216.40294l0 -13.359375l5.015625 0q1.53125 0 2.453125 0.40625q0.921875 0.40625 1.4375 1.25q0.53125 0.84375 0.53125 1.765625q0 0.859375 -0.46875 1.625q-0.453125 0.75 -1.390625 1.203125q1.203125 0.359375 1.859375 1.21875q0.65625 0.859375 0.65625 2.015625q0 0.9375 -0.40625 1.75q-0.390625 0.796875 -0.984375 1.234375q-0.578125 0.4375 -1.453125 0.671875q-0.875 0.21875 -2.15625 0.21875l-5.09375 0zm1.78125 -7.75l2.875 0q1.1875 0 1.6875 -0.140625q0.671875 -0.203125 1.015625 -0.671875q0.34375 -0.46875 0.34375 -1.171875q0 -0.65625 -0.328125 -1.15625q-0.3125 -0.515625 -0.90625 -0.703125q-0.59375 -0.1875 -2.03125 -0.1875l-2.65625 0l0 4.03125zm0 6.171875l3.3125 0q0.859375 0 1.203125 -0.0625q0.609375 -0.109375 1.015625 -0.359375q0.421875 -0.265625 0.6875 -0.75q0.265625 -0.484375 0.265625 -1.125q0 -0.75 -0.390625 -1.296875q-0.375 -0.546875 -1.0625 -0.765625q-0.671875 -0.234375 -1.953125 -0.234375l-3.078125 0l0 4.59375zm10.724823 1.578125l0 -13.359375l1.8125 0l7.015625 10.484375l0 -10.484375l1.6875 0l0 13.359375l-1.8125 0l-7.015625 -10.5l0 10.5l-1.6875 0z" fill-rule="nonzero"/><path fill="#003366" d="m231.41733 223.6693l101.165344 0l0 27.653534l-101.165344 0z" fill-rule="evenodd"/><path stroke="#000000" stroke-width="1.0" stroke-linejoin="round" stroke-linecap="butt" d="m231.41733 223.6693l101.165344 0l0 27.653534l-101.165344 0z" fill-rule="evenodd"/><path fill="#ffffff" d="m271.1925 239.72856l1.765625 0.453125q-0.5625 2.171875 -2.0 3.328125q-1.4375 1.140625 -3.53125 1.140625q-2.15625 0 -3.515625 -0.875q-1.34375 -0.890625 -2.0625 -2.546875q-0.703125 -1.671875 -0.703125 -3.59375q0 -2.078125 0.796875 -3.625q0.796875 -1.5625 2.265625 -2.359375q1.484375 -0.8125 3.25 -0.8125q2.0 0 3.359375 1.015625q1.375 1.015625 1.90625 2.875l-1.734375 0.40625q-0.46875 -1.453125 -1.359375 -2.109375q-0.875 -0.671875 -2.203125 -0.671875q-1.546875 0 -2.578125 0.734375q-1.03125 0.734375 -1.453125 1.984375q-0.421875 1.234375 -0.421875 2.5625q0 1.703125 0.5 2.96875q0.5 1.265625 1.546875 1.90625q1.046875 0.625 2.265625 0.625q1.484375 0 2.515625 -0.859375q1.03125 -0.859375 1.390625 -2.546875zm3.129181 -0.15625q0 -2.6875 1.484375 -3.96875q1.25 -1.078125 3.046875 -1.078125q2.0 0 3.265625 1.3125q1.265625 1.296875 1.265625 3.609375q0 1.859375 -0.5625 2.9375q-0.5625 1.0625 -1.640625 1.65625q-1.0625 0.59375 -2.328125 0.59375q-2.03125 0 -3.28125 -1.296875q-1.25 -1.3125 -1.25 -3.765625zm1.6875 0q0 1.859375 0.796875 2.796875q0.8125 0.921875 2.046875 0.921875q1.21875 0 2.03125 -0.921875q0.8125 -0.9375 0.8125 -2.84375q0 -1.796875 -0.8125 -2.71875q-0.8125 -0.921875 -2.03125 -0.921875q-1.234375 0 -2.046875 0.921875q-0.796875 0.90625 -0.796875 2.765625zm9.297607 4.84375l0 -9.671875l1.46875 0l0 1.375q1.0625 -1.59375 3.078125 -1.59375q0.875 0 1.609375 0.3125q0.734375 0.3125 1.09375 0.828125q0.375 0.5 0.515625 1.203125q0.09375 0.453125 0.09375 1.59375l0 5.953125l-1.640625 0l0 -5.890625q0 -1.0 -0.203125 -1.484375q-0.1875 -0.5 -0.671875 -0.796875q-0.484375 -0.296875 -1.140625 -0.296875q-1.046875 0 -1.8125 0.671875q-0.75 0.65625 -0.75 2.515625l0 5.28125l-1.640625 0zm13.063202 0l-3.6875 -9.671875l1.734375 0l2.078125 5.796875q0.328125 0.9375 0.625 1.9375q0.203125 -0.765625 0.609375 -1.828125l2.140625 -5.90625l1.6875 0l-3.65625 9.671875l-1.53125 0z" fill-rule="nonzero"/><path fill="#3399cc" d="m231.41733 281.37796l101.165344 0l0 27.653534l-101.165344 0z" fill-rule="evenodd"/><path stroke="#000000" stroke-width="1.0" stroke-linejoin="round" stroke-linecap="butt" d="m231.41733 281.37796l101.165344 0l0 27.653534l-101.165344 0z" fill-rule="evenodd"/><path fill="#ffffff" d="m264.28415 302.12473l0 -13.359375l5.921875 0q1.78125 0 2.703125 0.359375q0.9375 0.359375 1.484375 1.28125q0.5625 0.90625 0.5625 2.015625q0 1.40625 -0.921875 2.390625q-0.921875 0.96875 -2.84375 1.234375q0.703125 0.34375 1.078125 0.671875q0.765625 0.703125 1.453125 1.765625l2.328125 3.640625l-2.21875 0l-1.765625 -2.78125q-0.78125 -1.203125 -1.28125 -1.828125q-0.5 -0.640625 -0.90625 -0.890625q-0.390625 -0.265625 -0.796875 -0.359375q-0.296875 -0.078125 -0.984375 -0.078125l-2.046875 0l0 5.9375l-1.765625 0zm1.765625 -7.453125l3.796875 0q1.21875 0 1.890625 -0.25q0.6875 -0.265625 1.046875 -0.8125q0.359375 -0.546875 0.359375 -1.1875q0 -0.953125 -0.6875 -1.5625q-0.6875 -0.609375 -2.1875 -0.609375l-4.21875 0l0 4.421875zm18.09793 4.34375l1.6875 0.203125q-0.40625 1.484375 -1.484375 2.3125q-1.078125 0.8125 -2.765625 0.8125q-2.125 0 -3.375 -1.296875q-1.234375 -1.3125 -1.234375 -3.671875q0 -2.453125 1.25 -3.796875q1.265625 -1.34375 3.265625 -1.34375q1.9375 0 3.15625 1.328125q1.234375 1.3125 1.234375 3.703125q0 0.15625 0 0.4375l-7.21875 0q0.09375 1.59375 0.90625 2.453125q0.8125 0.84375 2.015625 0.84375q0.90625 0 1.546875 -0.46875q0.640625 -0.484375 1.015625 -1.515625zm-5.390625 -2.65625l5.40625 0q-0.109375 -1.21875 -0.625 -1.828125q-0.78125 -0.953125 -2.03125 -0.953125q-1.125 0 -1.90625 0.765625q-0.765625 0.75 -0.84375 2.015625zm9.094482 5.765625l0 -13.359375l1.640625 0l0 13.359375l-1.640625 0zm10.519806 0l0 -1.421875q-1.125 1.640625 -3.0625 1.640625q-0.859375 0 -1.609375 -0.328125q-0.734375 -0.328125 -1.09375 -0.828125q-0.359375 -0.5 -0.5 -1.21875q-0.109375 -0.46875 -0.109375 -1.53125l0 -5.984375l1.640625 0l0 5.359375q0 1.28125 0.109375 1.734375q0.15625 0.640625 0.65625 1.015625q0.5 0.375 1.234375 0.375q0.734375 0 1.375 -0.375q0.65625 -0.390625 0.921875 -1.03125q0.265625 -0.65625 0.265625 -1.890625l0 -5.1875l1.640625 0l0 9.671875l-1.46875 0z" fill-rule="nonzero"/><path fill="#3399cc" d="m231.41733 309.39108l101.165344 0l0 27.653534l-101.165344 0z" fill-rule="evenodd"/><path stroke="#000000" stroke-width="1.0" stroke-linejoin="round" stroke-linecap="butt" d="m231.41733 309.39108l101.165344 0l0 27.653534l-101.165344 0z" fill-rule="evenodd"/><path fill="#ffffff" d="m270.40112 330.13785l0 -13.359375l5.015625 0q1.53125 0 2.453125 0.40625q0.921875 0.40625 1.4375 1.25q0.53125 0.84375 0.53125 1.765625q0 0.859375 -0.46875 1.625q-0.453125 0.75 -1.390625 1.203125q1.203125 0.359375 1.859375 1.21875q0.65625 0.859375 0.65625 2.015625q0 0.9375 -0.40625 1.75q-0.390625 0.796875 -0.984375 1.234375q-0.578125 0.4375 -1.453125 0.671875q-0.875 0.21875 -2.15625 0.21875l-5.09375 0zm1.78125 -7.75l2.875 0q1.1875 0 1.6875 -0.140625q0.671875 -0.203125 1.015625 -0.671875q0.34375 -0.46875 0.34375 -1.171875q0 -0.65625 -0.328125 -1.15625q-0.3125 -0.515625 -0.90625 -0.703125q-0.59375 -0.1875 -2.03125 -0.1875l-2.65625 0l0 4.03125zm0 6.171875l3.3125 0q0.859375 0 1.203125 -0.0625q0.609375 -0.109375 1.015625 -0.359375q0.421875 -0.265625 0.6875 -0.75q0.265625 -0.484375 0.265625 -1.125q0 -0.75 -0.390625 -1.296875q-0.375 -0.546875 -1.0625 -0.765625q-0.671875 -0.234375 -1.953125 -0.234375l-3.078125 0l0 4.59375zm10.724823 1.578125l0 -13.359375l1.8125 0l7.015625 10.484375l0 -10.484375l1.6875 0l0 13.359375l-1.8125 0l-7.015625 -10.5l0 10.5l-1.6875 0z" fill-rule="nonzero"/><path fill="#003366" d="m231.41733 337.4042l101.165344 0l0 27.653534l-101.165344 0z" fill-rule="evenodd"/><path stroke="#000000" stroke-width="1.0" stroke-linejoin="round" stroke-linecap="butt" d="m231.41733 337.4042l101.165344 0l0 27.653534l-101.165344 0z" fill-rule="evenodd"/><path fill="#ffffff" d="m271.1925 353.46347l1.765625 0.453125q-0.5625 2.171875 -2.0 3.328125q-1.4375 1.140625 -3.53125 1.140625q-2.15625 0 -3.515625 -0.875q-1.34375 -0.890625 -2.0625 -2.546875q-0.703125 -1.671875 -0.703125 -3.59375q0 -2.078125 0.796875 -3.625q0.796875 -1.5625 2.265625 -2.359375q1.484375 -0.8125 3.25 -0.8125q2.0 0 3.359375 1.015625q1.375 1.015625 1.90625 2.875l-1.734375 0.40625q-0.46875 -1.453125 -1.359375 -2.109375q-0.875 -0.671875 -2.203125 -0.671875q-1.546875 0 -2.578125 0.734375q-1.03125 0.734375 -1.453125 1.984375q-0.421875 1.234375 -0.421875 2.5625q0 1.703125 0.5 2.96875q0.5 1.265625 1.546875 1.90625q1.046875 0.625 2.265625 0.625q1.484375 0 2.515625 -0.859375q1.03125 -0.859375 1.390625 -2.546875zm3.129181 -0.15625q0 -2.6875 1.484375 -3.96875q1.25 -1.078125 3.046875 -1.078125q2.0 0 3.265625 1.3125q1.265625 1.296875 1.265625 3.609375q0 1.859375 -0.5625 2.9375q-0.5625 1.0625 -1.640625 1.65625q-1.0625 0.59375 -2.328125 0.59375q-2.03125 0 -3.28125 -1.296875q-1.25 -1.3125 -1.25 -3.765625zm1.6875 0q0 1.859375 0.796875 2.796875q0.8125 0.921875 2.046875 0.921875q1.21875 0 2.03125 -0.921875q0.8125 -0.9375 0.8125 -2.84375q0 -1.796875 -0.8125 -2.71875q-0.8125 -0.921875 -2.03125 -0.921875q-1.234375 0 -2.046875 0.921875q-0.796875 0.90625 -0.796875 2.765625zm9.297607 4.84375l0 -9.671875l1.46875 0l0 1.375q1.0625 -1.59375 3.078125 -1.59375q0.875 0 1.609375 0.3125q0.734375 0.3125 1.09375 0.828125q0.375 0.5 0.515625 1.203125q0.09375 0.453125 0.09375 1.59375l0 5.953125l-1.640625 0l0 -5.890625q0 -1.0 -0.203125 -1.484375q-0.1875 -0.5 -0.671875 -0.796875q-0.484375 -0.296875 -1.140625 -0.296875q-1.046875 0 -1.8125 0.671875q-0.75 0.65625 -0.75 2.515625l0 5.28125l-1.640625 0zm13.063202 0l-3.6875 -9.671875l1.734375 0l2.078125 5.796875q0.328125 0.9375 0.625 1.9375q0.203125 -0.765625 0.609375 -1.828125l2.140625 -5.90625l1.6875 0l-3.65625 9.671875l-1.53125 0z" fill-rule="nonzero"/><path fill="#3399cc" d="m231.41733 91.47769l101.165344 0l0 27.653542l-101.165344 0z" fill-rule="evenodd"/><path stroke="#000000" stroke-width="1.0" stroke-linejoin="round" stroke-linecap="butt" d="m231.41733 91.47769l101.165344 0l0 27.653542l-101.165344 0z" fill-rule="evenodd"/><path fill="#ffffff" d="m270.40112 112.22446l0 -13.359375l5.015625 0q1.53125 0 2.453125 0.40625q0.921875 0.40625 1.4375 1.25q0.53125 0.84375 0.53125 1.765625q0 0.859375 -0.46875 1.625q-0.453125 0.75 -1.390625 1.203125q1.203125 0.359375 1.859375 1.21875q0.65625 0.859375 0.65625 2.015625q0 0.9375 -0.40625 1.75q-0.390625 0.796875 -0.984375 1.234375q-0.578125 0.4375 -1.453125 0.671875q-0.875 0.21875 -2.15625 0.21875l-5.09375 0zm1.78125 -7.75l2.875 0q1.1875 0 1.6875 -0.140625q0.671875 -0.203125 1.015625 -0.671875q0.34375 -0.46875 0.34375 -1.171875q0 -0.65625 -0.328125 -1.15625q-0.3125 -0.515625 -0.90625 -0.703125q-0.59375 -0.1875 -2.03125 -0.1875l-2.65625 0l0 4.03125zm0 6.171875l3.3125 0q0.859375 0 1.203125 -0.0625q0.609375 -0.109375 1.015625 -0.359375q0.421875 -0.265625 0.6875 -0.75q0.265625 -0.484375 0.265625 -1.125q0 -0.75 -0.390625 -1.296875q-0.375 -0.546875 -1.0625 -0.765625q-0.671875 -0.234375 -1.953125 -0.234375l-3.078125 0l0 4.59375zm10.724823 1.578125l0 -13.359375l1.8125 0l7.015625 10.484375l0 -10.484375l1.6875 0l0 13.359375l-1.8125 0l-7.015625 -10.5l0 10.5l-1.6875 0z" fill-rule="nonzero"/><path fill="#003366" d="m231.41733 119.490814l101.165344 0l0 27.65355l-101.165344 0z" fill-rule="evenodd"/><path stroke="#000000" stroke-width="1.0" stroke-linejoin="round" stroke-linecap="butt" d="m231.41733 119.490814l101.165344 0l0 27.65355l-101.165344 0z" fill-rule="evenodd"/><path fill="#ffffff" d="m271.1925 135.55008l1.765625 0.453125q-0.5625 2.171875 -2.0 3.328125q-1.4375 1.140625 -3.53125 1.140625q-2.15625 0 -3.515625 -0.875q-1.34375 -0.890625 -2.0625 -2.546875q-0.703125 -1.671875 -0.703125 -3.59375q0 -2.078125 0.796875 -3.625q0.796875 -1.5625 2.265625 -2.359375q1.484375 -0.8125 3.25 -0.8125q2.0 0 3.359375 1.015625q1.375 1.015625 1.90625 2.875l-1.734375 0.40625q-0.46875 -1.453125 -1.359375 -2.109375q-0.875 -0.671875 -2.203125 -0.671875q-1.546875 0 -2.578125 0.734375q-1.03125 0.734375 -1.453125 1.984375q-0.421875 1.234375 -0.421875 2.5625q0 1.703125 0.5 2.96875q0.5 1.265625 1.546875 1.90625q1.046875 0.625 2.265625 0.625q1.484375 0 2.515625 -0.859375q1.03125 -0.859375 1.390625 -2.546875zm3.129181 -0.15625q0 -2.6875 1.484375 -3.96875q1.25 -1.078125 3.046875 -1.078125q2.0 0 3.265625 1.3125q1.265625 1.296875 1.265625 3.609375q0 1.859375 -0.5625 2.9375q-0.5625 1.0625 -1.640625 1.65625q-1.0625 0.59375 -2.328125 0.59375q-2.03125 0 -3.28125 -1.296875q-1.25 -1.3125 -1.25 -3.765625zm1.6875 0q0 1.859375 0.796875 2.796875q0.8125 0.921875 2.046875 0.921875q1.21875 0 2.03125 -0.921875q0.8125 -0.9375 0.8125 -2.84375q0 -1.796875 -0.8125 -2.71875q-0.8125 -0.921875 -2.03125 -0.921875q-1.234375 0 -2.046875 0.921875q-0.796875 0.90625 -0.796875 2.765625zm9.297607 4.84375l0 -9.671875l1.46875 0l0 1.375q1.0625 -1.59375 3.078125 -1.59375q0.875 0 1.609375 0.3125q0.734375 0.3125 1.09375 0.828125q0.375 0.5 0.515625 1.203125q0.09375 0.453125 0.09375 1.59375l0 5.953125l-1.640625 0l0 -5.890625q0 -1.0 -0.203125 -1.484375q-0.1875 -0.5 -0.671875 -0.796875q-0.484375 -0.296875 -1.140625 -0.296875q-1.046875 0 -1.8125 0.671875q-0.75 0.65625 -0.75 2.515625l0 5.28125l-1.640625 0zm13.063202 0l-3.6875 -9.671875l1.734375 0l2.078125 5.796875q0.328125 0.9375 0.625 1.9375q0.203125 -0.765625 0.609375 -1.828125l2.140625 -5.90625l1.6875 0l-3.65625 9.671875l-1.53125 0z" fill-rule="nonzero"/><path fill="#3399cc" d="m89.049866 309.39108l101.16536 0l0 27.653534l-101.16536 0z" fill-rule="evenodd"/><path stroke="#000000" stroke-width="1.0" stroke-linejoin="round" stroke-linecap="butt" d="m89.049866 309.39108l101.16536 0l0 27.653534l-101.16536 0z" fill-rule="evenodd"/><path fill="#ffffff" d="m128.03366 330.13785l0 -13.359375l5.015625 0q1.53125 0 2.453125 0.40625q0.921875 0.40625 1.4375 1.25q0.53125 0.84375 0.53125 1.765625q0 0.859375 -0.46875 1.625q-0.453125 0.75 -1.390625 1.203125q1.203125 0.359375 1.859375 1.21875q0.65625 0.859375 0.65625 2.015625q0 0.9375 -0.40625 1.75q-0.390625 0.796875 -0.984375 1.234375q-0.578125 0.4375 -1.453125 0.671875q-0.875 0.21875 -2.15625 0.21875l-5.09375 0zm1.78125 -7.75l2.875 0q1.1875 0 1.6875 -0.140625q0.671875 -0.203125 1.015625 -0.671875q0.34375 -0.46875 0.34375 -1.171875q0 -0.65625 -0.328125 -1.15625q-0.3125 -0.515625 -0.90625 -0.703125q-0.59375 -0.1875 -2.03125 -0.1875l-2.65625 0l0 4.03125zm0 6.171875l3.3125 0q0.859375 0 1.203125 -0.0625q0.609375 -0.109375 1.015625 -0.359375q0.421875 -0.265625 0.6875 -0.75q0.265625 -0.484375 0.265625 -1.125q0 -0.75 -0.390625 -1.296875q-0.375 -0.546875 -1.0625 -0.765625q-0.671875 -0.234375 -1.953125 -0.234375l-3.078125 0l0 4.59375zm10.724823 1.578125l0 -13.359375l1.8125 0l7.015625 10.484375l0 -10.484375l1.6875 0l0 13.359375l-1.8125 0l-7.015625 -10.5l0 10.5l-1.6875 0z" fill-rule="nonzero"/><path fill="#003366" d="m89.049866 337.4042l101.16536 0l0 27.653534l-101.16536 0z" fill-rule="evenodd"/><path stroke="#000000" stroke-width="1.0" stroke-linejoin="round" stroke-linecap="butt" d="m89.049866 337.4042l101.16536 0l0 27.653534l-101.16536 0z" fill-rule="evenodd"/><path fill="#ffffff" d="m128.82504 353.46347l1.765625 0.453125q-0.5625 2.171875 -2.0 3.328125q-1.4375 1.140625 -3.53125 1.140625q-2.15625 0 -3.515625 -0.875q-1.34375 -0.890625 -2.0625 -2.546875q-0.703125 -1.671875 -0.703125 -3.59375q0 -2.078125 0.796875 -3.625q0.796875 -1.5625 2.265625 -2.359375q1.484375 -0.8125 3.25 -0.8125q2.0 0 3.359375 1.015625q1.375 1.015625 1.90625 2.875l-1.734375 0.40625q-0.46875 -1.453125 -1.359375 -2.109375q-0.875 -0.671875 -2.203125 -0.671875q-1.546875 0 -2.578125 0.734375q-1.03125 0.734375 -1.453125 1.984375q-0.421875 1.234375 -0.421875 2.5625q0 1.703125 0.5 2.96875q0.5 1.265625 1.546875 1.90625q1.046875 0.625 2.265625 0.625q1.484375 0 2.515625 -0.859375q1.03125 -0.859375 1.390625 -2.546875zm3.1291962 -0.15625q0 -2.6875 1.484375 -3.96875q1.25 -1.078125 3.046875 -1.078125q2.0 0 3.265625 1.3125q1.265625 1.296875 1.265625 3.609375q0 1.859375 -0.5625 2.9375q-0.5625 1.0625 -1.640625 1.65625q-1.0625 0.59375 -2.328125 0.59375q-2.03125 0 -3.28125 -1.296875q-1.25 -1.3125 -1.25 -3.765625zm1.6875 0q0 1.859375 0.796875 2.796875q0.8125 0.921875 2.046875 0.921875q1.21875 0 2.03125 -0.921875q0.8125 -0.9375 0.8125 -2.84375q0 -1.796875 -0.8125 -2.71875q-0.8125 -0.921875 -2.03125 -0.921875q-1.234375 0 -2.046875 0.921875q-0.796875 0.90625 -0.796875 2.765625zm9.297592 4.84375l0 -9.671875l1.46875 0l0 1.375q1.0625 -1.59375 3.078125 -1.59375q0.875 0 1.609375 0.3125q0.734375 0.3125 1.09375 0.828125q0.375 0.5 0.515625 1.203125q0.09375 0.453125 0.09375 1.59375l0 5.953125l-1.640625 0l0 -5.890625q0 -1.0 -0.203125 -1.484375q-0.1875 -0.5 -0.671875 -0.796875q-0.484375 -0.296875 -1.140625 -0.296875q-1.046875 0 -1.8125 0.671875q-0.75 0.65625 -0.75 2.515625l0 5.28125l-1.640625 0zm13.063217 0l-3.6875 -9.671875l1.734375 0l2.078125 5.796875q0.328125 0.9375 0.625 1.9375q0.203125 -0.765625 0.609375 -1.828125l2.140625 -5.90625l1.6875 0l-3.65625 9.671875l-1.53125 0z" fill-rule="nonzero"/><path fill="#3399cc" d="m64.0 444.0761l294.83466 0l0 22.551178l-294.83466 0z" fill-rule="evenodd"/><path stroke="#000000" stroke-width="1.0" stroke-linejoin="round" stroke-linecap="butt" d="m64.0 444.0761l294.83466 0l0 22.551178l-294.83466 0z" fill-rule="evenodd"/><path fill="#ffffff" d="m129.30638 462.2717l0 -13.359375l5.015625 0q1.53125 0 2.453125 0.40625q0.921875 0.40625 1.4375 1.25q0.53125 0.84375 0.53125 1.765625q0 0.859375 -0.46875 1.625q-0.453125 0.75 -1.390625 1.203125q1.203125 0.359375 1.859375 1.21875q0.65625 0.859375 0.65625 2.015625q0 0.9375 -0.40625 1.75q-0.390625 0.796875 -0.984375 1.234375q-0.578125 0.4375 -1.453125 0.671875q-0.875 0.21875 -2.15625 0.21875l-5.09375 0zm1.78125 -7.75l2.875 0q1.1875 0 1.6875 -0.140625q0.671875 -0.203125 1.015625 -0.671875q0.34375 -0.46875 0.34375 -1.171875q0 -0.65625 -0.328125 -1.15625q-0.3125 -0.515625 -0.90625 -0.703125q-0.59375 -0.1875 -2.03125 -0.1875l-2.65625 0l0 4.03125zm0 6.171875l3.3125 0q0.859375 0 1.203125 -0.0625q0.609375 -0.109375 1.015625 -0.359375q0.421875 -0.265625 0.6875 -0.75q0.265625 -0.484375 0.265625 -1.125q0 -0.75 -0.390625 -1.296875q-0.375 -0.546875 -1.0625 -0.765625q-0.671875 -0.234375 -1.953125 -0.234375l-3.078125 0l0 4.59375zm16.849823 0.390625q-0.921875 0.765625 -1.765625 1.09375q-0.828125 0.3125 -1.796875 0.3125q-1.59375 0 -2.453125 -0.78125q-0.859375 -0.78125 -0.859375 -1.984375q0 -0.71875 0.328125 -1.296875q0.328125 -0.59375 0.84375 -0.9375q0.53125 -0.359375 1.1875 -0.546875q0.46875 -0.125 1.453125 -0.25q1.984375 -0.234375 2.921875 -0.5625q0.015625 -0.34375 0.015625 -0.421875q0 -1.0 -0.46875 -1.421875q-0.625 -0.546875 -1.875 -0.546875q-1.15625 0 -1.703125 0.40625q-0.546875 0.40625 -0.8125 1.421875l-1.609375 -0.21875q0.21875 -1.015625 0.71875 -1.640625q0.5 -0.640625 1.453125 -0.984375q0.953125 -0.34375 2.1875 -0.34375q1.25 0 2.015625 0.296875q0.78125 0.28125 1.140625 0.734375q0.375 0.4375 0.515625 1.109375q0.078125 0.421875 0.078125 1.515625l0 2.1875q0 2.28125 0.109375 2.890625q0.109375 0.59375 0.40625 1.15625l-1.703125 0q-0.265625 -0.515625 -0.328125 -1.1875zm-0.140625 -3.671875q-0.890625 0.375 -2.671875 0.625q-1.015625 0.140625 -1.4375 0.328125q-0.421875 0.1875 -0.65625 0.53125q-0.21875 0.34375 -0.21875 0.78125q0 0.65625 0.5 1.09375q0.5 0.4375 1.453125 0.4375q0.9375 0 1.671875 -0.40625q0.75 -0.421875 1.09375 -1.140625q0.265625 -0.5625 0.265625 -1.640625l0 -0.609375zm7.781967 3.390625l0.234375 1.453125q-0.6875 0.140625 -1.234375 0.140625q-0.890625 0 -1.390625 -0.28125q-0.484375 -0.28125 -0.6875 -0.734375q-0.203125 -0.46875 -0.203125 -1.9375l0 -5.578125l-1.203125 0l0 -1.265625l1.203125 0l0 -2.390625l1.625 -0.984375l0 3.375l1.65625 0l0 1.265625l-1.65625 0l0 5.671875q0 0.6875 0.078125 0.890625q0.09375 0.203125 0.28125 0.328125q0.203125 0.109375 0.578125 0.109375q0.265625 0 0.71875 -0.0625zm7.917679 -2.078125l1.609375 0.21875q-0.265625 1.65625 -1.359375 2.609375q-1.078125 0.9375 -2.671875 0.9375q-1.984375 0 -3.1875 -1.296875q-1.203125 -1.296875 -1.203125 -3.71875q0 -1.578125 0.515625 -2.75q0.515625 -1.171875 1.578125 -1.75q1.0625 -0.59375 2.3125 -0.59375q1.578125 0 2.578125 0.796875q1.0 0.796875 1.28125 2.265625l-1.59375 0.234375q-0.234375 -0.96875 -0.8125 -1.453125q-0.578125 -0.5 -1.390625 -0.5q-1.234375 0 -2.015625 0.890625q-0.78125 0.890625 -0.78125 2.8125q0 1.953125 0.75 2.84375q0.75 0.875 1.953125 0.875q0.96875 0 1.609375 -0.59375q0.65625 -0.59375 0.828125 -1.828125zm3.015625 3.546875l0 -13.359375l1.640625 0l0 4.796875q1.140625 -1.328125 2.890625 -1.328125q1.078125 0 1.859375 0.421875q0.796875 0.421875 1.140625 1.171875q0.34375 0.75 0.34375 2.171875l0 6.125l-1.640625 0l0 -6.125q0 -1.234375 -0.53125 -1.796875q-0.53125 -0.5625 -1.515625 -0.5625q-0.71875 0 -1.359375 0.390625q-0.640625 0.375 -0.921875 1.015625q-0.265625 0.640625 -0.265625 1.78125l0 5.296875l-1.640625 0zm15.746521 0l0 -13.359375l1.8125 0l7.015625 10.484375l0 -10.484375l1.6875 0l0 13.359375l-1.8125 0l-7.015625 -10.5l0 10.5l-1.6875 0zm12.676071 -4.84375q0 -2.6875 1.484375 -3.96875q1.25 -1.078125 3.046875 -1.078125q2.0 0 3.265625 1.3125q1.265625 1.296875 1.265625 3.609375q0 1.859375 -0.5625 2.9375q-0.5625 1.0625 -1.640625 1.65625q-1.0625 0.59375 -2.328125 0.59375q-2.03125 0 -3.28125 -1.296875q-1.25 -1.3125 -1.25 -3.765625zm1.6875 0q0 1.859375 0.796875 2.796875q0.8125 0.921875 2.046875 0.921875q1.21875 0 2.03125 -0.921875q0.8125 -0.9375 0.8125 -2.84375q0 -1.796875 -0.8125 -2.71875q-0.8125 -0.921875 -2.03125 -0.921875q-1.234375 0 -2.046875 0.921875q-0.796875 0.90625 -0.796875 2.765625zm9.281967 4.84375l0 -9.671875l1.46875 0l0 1.46875q0.5625 -1.03125 1.03125 -1.359375q0.484375 -0.328125 1.0625 -0.328125q0.828125 0 1.6875 0.53125l-0.5625 1.515625q-0.609375 -0.359375 -1.203125 -0.359375q-0.546875 0 -0.96875 0.328125q-0.421875 0.328125 -0.609375 0.890625q-0.28125 0.875 -0.28125 1.921875l0 5.0625l-1.625 0zm6.228302 0l0 -9.671875l1.46875 0l0 1.359375q0.453125 -0.71875 1.203125 -1.140625q0.765625 -0.4375 1.71875 -0.4375q1.078125 0 1.765625 0.453125q0.6875 0.4375 0.96875 1.234375q1.15625 -1.6875 2.984375 -1.6875q1.453125 0 2.21875 0.796875q0.78125 0.796875 0.78125 2.453125l0 6.640625l-1.640625 0l0 -6.09375q0 -0.984375 -0.15625 -1.40625q-0.15625 -0.4375 -0.578125 -0.703125q-0.421875 -0.265625 -0.984375 -0.265625q-1.015625 0 -1.6875 0.6875q-0.671875 0.671875 -0.671875 2.15625l0 5.625l-1.640625 0l0 -6.28125q0 -1.09375 -0.40625 -1.640625q-0.40625 -0.546875 -1.3125 -0.546875q-0.6875 0 -1.28125 0.359375q-0.59375 0.359375 -0.859375 1.0625q-0.25 0.703125 -0.25 2.03125l0 5.015625l-1.640625 0zm21.853302 -1.1875q-0.921875 0.765625 -1.765625 1.09375q-0.828125 0.3125 -1.796875 0.3125q-1.59375 0 -2.453125 -0.78125q-0.859375 -0.78125 -0.859375 -1.984375q0 -0.71875 0.328125 -1.296875q0.328125 -0.59375 0.84375 -0.9375q0.53125 -0.359375 1.1875 -0.546875q0.46875 -0.125 1.453125 -0.25q1.984375 -0.234375 2.921875 -0.5625q0.015625 -0.34375 0.015625 -0.421875q0 -1.0 -0.46875 -1.421875q-0.625 -0.546875 -1.875 -0.546875q-1.15625 0 -1.703125 0.40625q-0.546875 0.40625 -0.8125 1.421875l-1.609375 -0.21875q0.21875 -1.015625 0.71875 -1.640625q0.5 -0.640625 1.453125 -0.984375q0.953125 -0.34375 2.1875 -0.34375q1.25 0 2.015625 0.296875q0.78125 0.28125 1.140625 0.734375q0.375 0.4375 0.515625 1.109375q0.078125 0.421875 0.078125 1.515625l0 2.1875q0 2.28125 0.109375 2.890625q0.109375 0.59375 0.40625 1.15625l-1.703125 0q-0.265625 -0.515625 -0.328125 -1.1875zm-0.140625 -3.671875q-0.890625 0.375 -2.671875 0.625q-1.015625 0.140625 -1.4375 0.328125q-0.421875 0.1875 -0.65625 0.53125q-0.21875 0.34375 -0.21875 0.78125q0 0.65625 0.5 1.09375q0.5 0.4375 1.453125 0.4375q0.9375 0 1.671875 -0.40625q0.75 -0.421875 1.09375 -1.140625q0.265625 -0.5625 0.265625 -1.640625l0 -0.609375zm4.156967 4.859375l0 -13.359375l1.640625 0l0 13.359375l-1.640625 0zm4.191696 -11.46875l0 -1.890625l1.640625 0l0 1.890625l-1.640625 0zm0 11.46875l0 -9.671875l1.640625 0l0 9.671875l-1.640625 0zm3.2698212 0l0 -1.328125l6.15625 -7.078125q-1.046875 0.0625 -1.84375 0.0625l-3.9375 0l0 -1.328125l7.90625 0l0 1.078125l-5.25 6.140625l-1.0 1.125q1.09375 -0.078125 2.0625 -0.078125l4.46875 0l0 1.40625l-8.5625 0zm16.515625 -1.1875q-0.921875 0.765625 -1.765625 1.09375q-0.828125 0.3125 -1.796875 0.3125q-1.59375 0 -2.453125 -0.78125q-0.859375 -0.78125 -0.859375 -1.984375q0 -0.71875 0.328125 -1.296875q0.328125 -0.59375 0.84375 -0.9375q0.53125 -0.359375 1.1875 -0.546875q0.46875 -0.125 1.453125 -0.25q1.984375 -0.234375 2.921875 -0.5625q0.015625 -0.34375 0.015625 -0.421875q0 -1.0 -0.46875 -1.421875q-0.625 -0.546875 -1.875 -0.546875q-1.15625 0 -1.703125 0.40625q-0.546875 0.40625 -0.8125 1.421875l-1.609375 -0.21875q0.21875 -1.015625 0.71875 -1.640625q0.5 -0.640625 1.453125 -0.984375q0.953125 -0.34375 2.1875 -0.34375q1.25 0 2.015625 0.296875q0.78125 0.28125 1.140625 0.734375q0.375 0.4375 0.515625 1.109375q0.078125 0.421875 0.078125 1.515625l0 2.1875q0 2.28125 0.109375 2.890625q0.109375 0.59375 0.40625 1.15625l-1.703125 0q-0.265625 -0.515625 -0.328125 -1.1875zm-0.140625 -3.671875q-0.890625 0.375 -2.671875 0.625q-1.015625 0.140625 -1.4375 0.328125q-0.421875 0.1875 -0.65625 0.53125q-0.21875 0.34375 -0.21875 0.78125q0 0.65625 0.5 1.09375q0.5 0.4375 1.453125 0.4375q0.9375 0 1.671875 -0.40625q0.75 -0.421875 1.09375 -1.140625q0.265625 -0.5625 0.265625 -1.640625l0 -0.609375zm7.7819824 3.390625l0.234375 1.453125q-0.6875 0.140625 -1.234375 0.140625q-0.890625 0 -1.390625 -0.28125q-0.484375 -0.28125 -0.6875 -0.734375q-0.203125 -0.46875 -0.203125 -1.9375l0 -5.578125l-1.203125 0l0 -1.265625l1.203125 0l0 -2.390625l1.625 -0.984375l0 3.375l1.65625 0l0 1.265625l-1.65625 0l0 5.671875q0 0.6875 0.078125 0.890625q0.09375 0.203125 0.28125 0.328125q0.203125 0.109375 0.578125 0.109375q0.265625 0 0.71875 -0.0625zm1.6051636 -10.0l0 -1.890625l1.640625 0l0 1.890625l-1.640625 0zm0 11.46875l0 -9.671875l1.640625 0l0 9.671875l-1.640625 0zm3.5354614 -4.84375q0 -2.6875 1.484375 -3.96875q1.25 -1.078125 3.046875 -1.078125q2.0 0 3.265625 1.3125q1.265625 1.296875 1.265625 3.609375q0 1.859375 -0.5625 2.9375q-0.5625 1.0625 -1.640625 1.65625q-1.0625 0.59375 -2.328125 0.59375q-2.03125 0 -3.28125 -1.296875q-1.25 -1.3125 -1.25 -3.765625zm1.6875 0q0 1.859375 0.796875 2.796875q0.8125 0.921875 2.046875 0.921875q1.21875 0 2.03125 -0.921875q0.8125 -0.9375 0.8125 -2.84375q0 -1.796875 -0.8125 -2.71875q-0.8125 -0.921875 -2.03125 -0.921875q-1.234375 0 -2.046875 0.921875q-0.796875 0.90625 -0.796875 2.765625zm9.297577 4.84375l0 -9.671875l1.46875 0l0 1.375q1.0625 -1.59375 3.078125 -1.59375q0.875 0 1.609375 0.3125q0.734375 0.3125 1.09375 0.828125q0.375 0.5 0.515625 1.203125q0.09375 0.453125 0.09375 1.59375l0 5.953125l-1.640625 0l0 -5.890625q0 -1.0 -0.203125 -1.484375q-0.1875 -0.5 -0.671875 -0.796875q-0.484375 -0.296875 -1.140625 -0.296875q-1.046875 0 -1.8125 0.671875q-0.75 0.65625 -0.75 2.515625l0 5.28125l-1.640625 0z" fill-rule="nonzero"/><path fill="#003366" d="m64.0 466.6273l294.83466 0l0 22.551178l-294.83466 0z" fill-rule="evenodd"/><path stroke="#000000" stroke-width="1.0" stroke-linejoin="round" stroke-linecap="butt" d="m64.0 466.6273l294.83466 0l0 22.551178l-294.83466 0z" fill-rule="evenodd"/><path fill="#ffffff" d="m173.12192 480.13538l1.765625 0.453125q-0.5625 2.171875 -2.0 3.328125q-1.4375 1.140625 -3.53125 1.140625q-2.15625 0 -3.515625 -0.875q-1.34375 -0.890625 -2.0625 -2.546875q-0.703125 -1.671875 -0.703125 -3.59375q0 -2.078125 0.796875 -3.625q0.796875 -1.5625 2.265625 -2.359375q1.484375 -0.8125 3.25 -0.8125q2.0 0 3.359375 1.015625q1.375 1.015625 1.90625 2.875l-1.734375 0.40625q-0.46875 -1.453125 -1.359375 -2.109375q-0.875 -0.671875 -2.203125 -0.671875q-1.546875 0 -2.578125 0.734375q-1.03125 0.734375 -1.453125 1.984375q-0.421875 1.234375 -0.421875 2.5625q0 1.703125 0.5 2.96875q0.5 1.265625 1.546875 1.90625q1.046875 0.625 2.265625 0.625q1.484375 0 2.515625 -0.859375q1.03125 -0.859375 1.390625 -2.546875zm3.1291962 -0.15625q0 -2.6875 1.484375 -3.96875q1.25 -1.078125 3.046875 -1.078125q2.0 0 3.265625 1.3125q1.265625 1.296875 1.265625 3.609375q0 1.859375 -0.5625 2.9375q-0.5625 1.0625 -1.640625 1.65625q-1.0625 0.59375 -2.328125 0.59375q-2.03125 0 -3.28125 -1.296875q-1.25 -1.3125 -1.25 -3.765625zm1.6875 0q0 1.859375 0.796875 2.796875q0.8125 0.921875 2.046875 0.921875q1.21875 0 2.03125 -0.921875q0.8125 -0.9375 0.8125 -2.84375q0 -1.796875 -0.8125 -2.71875q-0.8125 -0.921875 -2.03125 -0.921875q-1.234375 0 -2.046875 0.921875q-0.796875 0.90625 -0.796875 2.765625zm9.297592 4.84375l0 -9.671875l1.46875 0l0 1.375q1.0625 -1.59375 3.078125 -1.59375q0.875 0 1.609375 0.3125q0.734375 0.3125 1.09375 0.828125q0.375 0.5 0.515625 1.203125q0.09375 0.453125 0.09375 1.59375l0 5.953125l-1.640625 0l0 -5.890625q0 -1.0 -0.203125 -1.484375q-0.1875 -0.5 -0.671875 -0.796875q-0.484375 -0.296875 -1.140625 -0.296875q-1.046875 0 -1.8125 0.671875q-0.75 0.65625 -0.75 2.515625l0 5.28125l-1.640625 0zm13.063217 0l-3.6875 -9.671875l1.734375 0l2.078125 5.796875q0.328125 0.9375 0.625 1.9375q0.203125 -0.765625 0.609375 -1.828125l2.140625 -5.90625l1.6875 0l-3.65625 9.671875l-1.53125 0zm6.03125 -4.84375q0 -2.6875 1.484375 -3.96875q1.25 -1.078125 3.046875 -1.078125q2.0 0 3.265625 1.3125q1.265625 1.296875 1.265625 3.609375q0 1.859375 -0.5625 2.9375q-0.5625 1.0625 -1.640625 1.65625q-1.0625 0.59375 -2.328125 0.59375q-2.03125 0 -3.28125 -1.296875q-1.25 -1.3125 -1.25 -3.765625zm1.6875 0q0 1.859375 0.796875 2.796875q0.8125 0.921875 2.046875 0.921875q1.21875 0 2.03125 -0.921875q0.8125 -0.9375 0.8125 -2.84375q0 -1.796875 -0.8125 -2.71875q-0.8125 -0.921875 -2.03125 -0.921875q-1.234375 0 -2.046875 0.921875q-0.796875 0.90625 -0.796875 2.765625zm9.250717 4.84375l0 -13.359375l1.640625 0l0 13.359375l-1.640625 0zm10.519821 0l0 -1.421875q-1.125 1.640625 -3.0625 1.640625q-0.859375 0 -1.609375 -0.328125q-0.734375 -0.328125 -1.09375 -0.828125q-0.359375 -0.5 -0.5 -1.21875q-0.109375 -0.46875 -0.109375 -1.53125l0 -5.984375l1.640625 0l0 5.359375q0 1.28125 0.109375 1.734375q0.15625 0.640625 0.65625 1.015625q0.5 0.375 1.234375 0.375q0.734375 0 1.375 -0.375q0.65625 -0.390625 0.921875 -1.03125q0.265625 -0.65625 0.265625 -1.890625l0 -5.1875l1.640625 0l0 9.671875l-1.46875 0zm7.625717 -1.46875l0.234375 1.453125q-0.6875 0.140625 -1.234375 0.140625q-0.890625 0 -1.390625 -0.28125q-0.484375 -0.28125 -0.6875 -0.734375q-0.203125 -0.46875 -0.203125 -1.9375l0 -5.578125l-1.203125 0l0 -1.265625l1.203125 0l0 -2.390625l1.625 -0.984375l0 3.375l1.65625 0l0 1.265625l-1.65625 0l0 5.671875q0 0.6875 0.078125 0.890625q0.09375 0.203125 0.28125 0.328125q0.203125 0.109375 0.578125 0.109375q0.265625 0 0.71875 -0.0625zm1.6051788 -10.0l0 -1.890625l1.640625 0l0 1.890625l-1.640625 0zm0 11.46875l0 -9.671875l1.640625 0l0 9.671875l-1.640625 0zm3.5354462 -4.84375q0 -2.6875 1.484375 -3.96875q1.25 -1.078125 3.046875 -1.078125q2.0 0 3.265625 1.3125q1.265625 1.296875 1.265625 3.609375q0 1.859375 -0.5625 2.9375q-0.5625 1.0625 -1.640625 1.65625q-1.0625 0.59375 -2.328125 0.59375q-2.03125 0 -3.28125 -1.296875q-1.25 -1.3125 -1.25 -3.765625zm1.6875 0q0 1.859375 0.796875 2.796875q0.8125 0.921875 2.046875 0.921875q1.21875 0 2.03125 -0.921875q0.8125 -0.9375 0.8125 -2.84375q0 -1.796875 -0.8125 -2.71875q-0.8125 -0.921875 -2.03125 -0.921875q-1.234375 0 -2.046875 0.921875q-0.796875 0.90625 -0.796875 2.765625zm9.297592 4.84375l0 -9.671875l1.46875 0l0 1.375q1.0625 -1.59375 3.0781403 -1.59375q0.875 0 1.609375 0.3125q0.734375 0.3125 1.09375 0.828125q0.375 0.5 0.515625 1.203125q0.09375 0.453125 0.09375 1.59375l0 5.953125l-1.640625 0l0 -5.890625q0 -1.0 -0.203125 -1.484375q-0.1875 -0.5 -0.671875 -0.796875q-0.484375 -0.296875 -1.1406403 -0.296875q-1.046875 0 -1.8125 0.671875q-0.75 0.65625 -0.75 2.515625l0 5.28125l-1.640625 0z" fill-rule="nonzero"/><path fill="#000000" fill-opacity="0.0" d="m197.65355 403.3071l0 0c0 -7.601532 6.1622467 -13.763794 13.763779 -13.763794l0 0c3.6503754 0 7.151245 1.4501038 9.732452 4.031311c2.5812073 2.5812073 4.0313263 6.0820923 4.0313263 9.732483l0 0c0 7.6015015 -6.162262 13.763763 -13.763779 13.763763l0 0c-7.601532 0 -13.763779 -6.162262 -13.763779 -13.763763z" fill-rule="evenodd"/><path stroke="#000000" stroke-width="1.0" stroke-linejoin="round" stroke-linecap="butt" d="m197.65355 403.3071l0 0c0 -7.601532 6.1622467 -13.763794 13.763779 -13.763794l0 0c3.6503754 0 7.151245 1.4501038 9.732452 4.031311c2.5812073 2.5812073 4.0313263 6.0820923 4.0313263 9.732483l0 0c0 7.6015015 -6.162262 13.763763 -13.763779 13.763763l0 0c-7.601532 0 -13.763779 -6.162262 -13.763779 -13.763763z" fill-rule="evenodd"/><path fill="#000000" d="m201.30232 400.06985l6.877762 0l0 -6.877777l6.474472 0l0 6.877777l6.877762 0l0 6.4744873l-6.877762 0l0 6.8777466l-6.474472 0l0 -6.8777466l-6.877762 0z" fill-rule="evenodd"/><path stroke="#000000" stroke-width="1.0" stroke-linejoin="round" stroke-linecap="butt" d="m201.30232 400.06985l6.877762 0l0 -6.877777l6.474472 0l0 6.877777l6.877762 0l0 6.4744873l-6.877762 0l0 6.8777466l-6.474472 0l0 -6.8777466l-6.877762 0z" fill-rule="evenodd"/><path fill="#000000" fill-opacity="0.0" d="m197.65355 49.254593l0 0c0 -7.6015244 6.1622467 -13.763779 13.763779 -13.763779l0 0c3.6503754 0 7.151245 1.4501076 9.732452 4.0313187c2.5812073 2.5812073 4.0313263 6.082081 4.0313263 9.73246l0 0c0 7.6015244 -6.162262 13.763779 -13.763779 13.763779l0 0c-7.601532 0 -13.763779 -6.1622543 -13.763779 -13.763779z" fill-rule="evenodd"/><path stroke="#000000" stroke-width="1.0" stroke-linejoin="round" stroke-linecap="butt" d="m197.65355 49.254593l0 0c0 -7.6015244 6.1622467 -13.763779 13.763779 -13.763779l0 0c3.6503754 0 7.151245 1.4501076 9.732452 4.0313187c2.5812073 2.5812073 4.0313263 6.082081 4.0313263 9.73246l0 0c0 7.6015244 -6.162262 13.763779 -13.763779 13.763779l0 0c-7.601532 0 -13.763779 -6.1622543 -13.763779 -13.763779z" fill-rule="evenodd"/><path fill="#000000" d="m201.30232 46.017353l6.877762 0l0 -6.877762l6.474472 0l0 6.877762l6.877762 0l0 6.4744797l-6.877762 0l0 6.877762l-6.474472 0l0 -6.877762l-6.877762 0z" fill-rule="evenodd"/><path stroke="#000000" stroke-width="1.0" stroke-linejoin="round" stroke-linecap="butt" d="m201.30232 46.017353l6.877762 0l0 -6.877762l6.474472 0l0 6.877762l6.877762 0l0 6.4744797l-6.877762 0l0 6.877762l-6.474472 0l0 -6.877762l-6.877762 0z" fill-rule="evenodd"/><path fill="#000000" fill-opacity="0.0" d="m211.41733 444.0761l0 -30.64566" fill-rule="evenodd"/><path stroke="#000000" stroke-width="2.0" stroke-linejoin="round" stroke-linecap="butt" d="m211.41733 444.0761l0 -18.64566" fill-rule="evenodd"/><path fill="#000000" stroke="#000000" stroke-width="2.0" stroke-linecap="butt" d="m214.7208 425.43045l-3.3034668 -9.076202l-3.3034668 9.076202z" fill-rule="evenodd"/><path fill="#000000" fill-opacity="0.0" d="m201.30232 403.3071l-61.669296 0l0 -38.236237" fill-rule="evenodd"/><path stroke="#000000" stroke-width="2.0" stroke-linejoin="round" stroke-linecap="butt" d="m201.30232 403.3071l-61.669296 0l0 -26.236237" fill-rule="evenodd"/><path fill="#000000" stroke="#000000" stroke-width="2.0" stroke-linecap="butt" d="m142.9365 377.07086l-3.3034668 -9.076202l-3.3034668 9.076202z" fill-rule="evenodd"/><path fill="#000000" fill-opacity="0.0" d="m282.0 281.37796l0 -15.027527l0.06298828 0l0 -15.01973" fill-rule="evenodd"/><path stroke="#000000" stroke-width="2.0" stroke-linejoin="round" stroke-linecap="butt" d="m282.0 281.37796l0 -15.027527l0.06298828 0l0 -3.0197144" fill-rule="evenodd"/><path fill="#000000" stroke="#000000" stroke-width="2.0" stroke-linecap="butt" d="m285.36646 263.33072l-3.3034668 -9.076202l-3.3034668 9.076202z" fill-rule="evenodd"/><path fill="#000000" fill-opacity="0.0" d="m282.0 167.64305l0 -10.249313l0.06298828 0l0 -10.254623" fill-rule="evenodd"/><path stroke="#000000" stroke-width="2.0" stroke-linejoin="round" stroke-linecap="butt" d="m282.0 167.64305l0 -8.504105" fill-rule="evenodd"/><path fill="#000000" stroke="#000000" stroke-width="2.0" stroke-linecap="butt" d="m285.3034 159.15628l-3.2557678 -9.093414l-3.3510437 9.058731z" fill-rule="evenodd"/><path fill="#000000" fill-opacity="0.0" d="m201.30232 403.3071l-163.3207 0l0 -354.04724l163.38368 0" fill-rule="evenodd"/><path stroke="#000000" stroke-width="2.0" stroke-linejoin="round" stroke-linecap="butt" stroke-dasharray="8.0,6.0" d="m201.30232 403.3071l-163.3207 0l0 -354.04724l151.3837 0" fill-rule="evenodd"/><path fill="#000000" stroke="#000000" stroke-width="2.0" stroke-linecap="butt" d="m189.36533 52.56331l9.076187 -3.3034668l-9.076187 -3.303463z" fill-rule="evenodd"/><path fill="#000000" fill-opacity="0.0" d="m139.63255 309.39108l0 -260.12598l61.66928 0" fill-rule="evenodd"/><path stroke="#000000" stroke-width="2.0" stroke-linejoin="round" stroke-linecap="butt" d="m139.63255 309.39108l0 -260.12598l49.66928 0" fill-rule="evenodd"/><path fill="#000000" stroke="#000000" stroke-width="2.0" stroke-linecap="butt" d="m189.30183 52.568558l9.076202 -3.3034668l-9.076202 -3.303463z" fill-rule="evenodd"/><path fill="#000000" fill-opacity="0.0" d="m112.10499 254.55249l0 -122.77165l27.527565 0l0 122.77165z" fill-rule="evenodd"/><path fill="#000000" d="m131.34499 238.82434l-7.625 0l0 -3.375q0 -1.015625 0.203125 -1.546875q0.203125 -0.53125 0.734375 -0.84375q0.515625 -0.328125 1.140625 -0.328125q0.8125 0 1.375 0.53125q0.546875 0.515625 0.703125 1.625q0.1875 -0.40625 0.375 -0.609375q0.40625 -0.453125 1.015625 -0.84375l2.078125 -1.328125l0 1.265625l-1.59375 1.015625q-0.6875 0.4375 -1.046875 0.734375q-0.359375 0.28125 -0.5 0.515625q-0.15625 0.21875 -0.203125 0.453125q-0.046875 0.171875 -0.046875 0.5625l0 1.171875l3.390625 0l0 1.0zm-4.265625 -1.0l0 -2.171875q0 -0.6875 -0.140625 -1.078125q-0.140625 -0.390625 -0.453125 -0.59375q-0.3125 -0.203125 -0.6875 -0.203125q-0.546875 0 -0.890625 0.390625q-0.34375 0.390625 -0.34375 1.234375l0 2.421875l2.515625 0zm2.484375 -10.336227l0.125 -0.96875q0.84375 0.234375 1.3125 0.859375q0.46875 0.609375 0.46875 1.578125q0 1.203125 -0.75 1.921875q-0.75 0.703125 -2.09375 0.703125q-1.390625 0 -2.15625 -0.71875q-0.78125 -0.71875 -0.78125 -1.859375q0 -1.109375 0.765625 -1.8125q0.75 -0.703125 2.125 -0.703125q0.078125 0 0.234375 0l0 4.125q0.921875 -0.046875 1.40625 -0.515625q0.484375 -0.46875 0.484375 -1.15625q0 -0.515625 -0.265625 -0.875q-0.28125 -0.359375 -0.875 -0.578125zm-1.515625 3.078125l0 -3.09375q-0.6875 0.0625 -1.046875 0.359375q-0.53125 0.453125 -0.53125 1.15625q0 0.640625 0.4375 1.09375q0.421875 0.4375 1.140625 0.484375zm1.640625 -4.8483734l-0.140625 -0.921875q0.5625 -0.078125 0.859375 -0.4375q0.296875 -0.359375 0.296875 -1.0q0 -0.640625 -0.265625 -0.953125q-0.265625 -0.3125 -0.625 -0.3125q-0.3125 0 -0.5 0.28125q-0.125 0.1875 -0.3125 0.953125q-0.265625 1.03125 -0.453125 1.4375q-0.1875 0.390625 -0.515625 0.59375q-0.34375 0.203125 -0.75 0.203125q-0.359375 0 -0.671875 -0.171875q-0.328125 -0.171875 -0.53125 -0.453125q-0.15625 -0.21875 -0.265625 -0.59375q-0.125 -0.390625 -0.125 -0.8125q0 -0.65625 0.1875 -1.140625q0.1875 -0.5 0.515625 -0.734375q0.3125 -0.234375 0.859375 -0.3125l0.125 0.90625q-0.4375 0.0625 -0.671875 0.375q-0.234375 0.296875 -0.234375 0.828125q0 0.65625 0.21875 0.9375q0.203125 0.265625 0.484375 0.265625q0.1875 0 0.328125 -0.109375q0.15625 -0.125 0.25 -0.359375q0.0625 -0.140625 0.25 -0.828125q0.265625 -1.0 0.4375 -1.390625q0.15625 -0.390625 0.484375 -0.609375q0.3125 -0.234375 0.796875 -0.234375q0.46875 0 0.890625 0.28125q0.40625 0.265625 0.640625 0.78125q0.21875 0.515625 0.21875 1.171875q0 1.078125 -0.4375 1.640625q-0.453125 0.5625 -1.34375 0.71875zm-4.890625 -5.703125l-1.078125 0l0 -0.9375l1.078125 0l0 0.9375zm6.546875 0l-5.53125 0l0 -0.9375l5.53125 0l0 0.9375zm0 -5.9456024l-0.703125 0q0.828125 0.515625 0.828125 1.546875q0 0.65625 -0.359375 1.21875q-0.375 0.546875 -1.015625 0.859375q-0.65625 0.296875 -1.5 0.296875q-0.828125 0 -1.5 -0.28125q-0.6875 -0.28125 -1.046875 -0.828125q-0.359375 -0.546875 -0.359375 -1.234375q0 -0.5 0.21875 -0.890625q0.203125 -0.390625 0.546875 -0.625l-2.734375 0l0 -0.9375l7.625 0l0 0.875zm-2.75 2.953125q1.046875 0 1.578125 -0.4375q0.53125 -0.453125 0.53125 -1.0625q0 -0.609375 -0.5 -1.03125q-0.515625 -0.4375 -1.53125 -0.4375q-1.140625 0 -1.671875 0.4375q-0.53125 0.4375 -0.53125 1.078125q0 0.609375 0.515625 1.03125q0.5 0.421875 1.609375 0.421875zm2.75 -8.926498l-0.8125 0q0.9375 0.65625 0.9375 1.75q0 0.5 -0.1875 0.921875q-0.1875 0.421875 -0.46875 0.625q-0.28125 0.203125 -0.703125 0.296875q-0.265625 0.046875 -0.875 0.046875l-3.421875 0l0 -0.9375l3.0625 0q0.734375 0 1.0 -0.046875q0.359375 -0.09375 0.578125 -0.375q0.203125 -0.296875 0.203125 -0.703125q0 -0.421875 -0.203125 -0.796875q-0.21875 -0.375 -0.59375 -0.515625q-0.375 -0.15625 -1.078125 -0.15625l-2.96875 0l0 -0.9375l5.53125 0l0 0.828125zm-0.6875 -5.9108734q0.453125 0.53125 0.640625 1.015625q0.171875 0.46875 0.171875 1.015625q0 0.921875 -0.4375 1.40625q-0.453125 0.484375 -1.140625 0.484375q-0.40625 0 -0.734375 -0.171875q-0.34375 -0.1875 -0.546875 -0.484375q-0.203125 -0.3125 -0.3125 -0.6875q-0.0625 -0.265625 -0.140625 -0.828125q-0.125 -1.125 -0.3125 -1.671875q-0.203125 0 -0.25 0q-0.578125 0 -0.8125 0.265625q-0.3125 0.359375 -0.3125 1.0625q0 0.65625 0.234375 0.984375q0.234375 0.3125 0.8125 0.453125l-0.125 0.921875q-0.578125 -0.125 -0.9375 -0.40625q-0.375 -0.296875 -0.5625 -0.828125q-0.203125 -0.546875 -0.203125 -1.25q0 -0.71875 0.171875 -1.15625q0.171875 -0.4375 0.421875 -0.640625q0.25 -0.21875 0.640625 -0.296875q0.234375 -0.046875 0.859375 -0.046875l1.25 0q1.296875 0 1.65625 -0.0625q0.34375 -0.0625 0.65625 -0.234375l0 0.96875q-0.296875 0.15625 -0.6875 0.1875zm-2.078125 0.078125q0.203125 0.515625 0.34375 1.53125q0.078125 0.578125 0.1875 0.828125q0.109375 0.234375 0.3125 0.359375q0.1875 0.125 0.4375 0.125q0.375 0 0.625 -0.28125q0.25 -0.28125 0.25 -0.828125q0 -0.53125 -0.234375 -0.953125q-0.234375 -0.421875 -0.65625 -0.625q-0.3125 -0.15625 -0.9375 -0.15625l-0.328125 0zm2.765625 -2.3796234l-7.625 0l0 -0.9375l7.625 0l0 0.9375zm-2.671875 -10.90625l0.25 -1.015625q1.25 0.328125 1.90625 1.15625q0.640625 0.8125 0.640625 2.015625q0 1.234375 -0.5 2.0q-0.5 0.765625 -1.453125 1.171875q-0.953125 0.40625 -2.046875 0.40625q-1.1875 0 -2.078125 -0.453125q-0.890625 -0.453125 -1.34375 -1.296875q-0.46875 -0.84375 -0.46875 -1.84375q0 -1.15625 0.59375 -1.9375q0.578125 -0.78125 1.640625 -1.078125l0.234375 0.984375q-0.84375 0.265625 -1.21875 0.78125q-0.375 0.5 -0.375 1.265625q0 0.875 0.421875 1.46875q0.421875 0.59375 1.140625 0.828125q0.703125 0.234375 1.453125 0.234375q0.96875 0 1.703125 -0.28125q0.71875 -0.28125 1.078125 -0.875q0.359375 -0.59375 0.359375 -1.296875q0 -0.84375 -0.484375 -1.4375q-0.5 -0.59375 -1.453125 -0.796875zm-0.09375 -1.7893524q-1.53125 0 -2.265625 -0.84375q-0.625 -0.71875 -0.625 -1.734375q0 -1.140625 0.75 -1.859375q0.75 -0.734375 2.0625 -0.734375q1.0625 0 1.6875 0.328125q0.609375 0.3125 0.953125 0.921875q0.328125 0.609375 0.328125 1.34375q0 1.15625 -0.734375 1.875q-0.75 0.703125 -2.15625 0.703125zm0 -0.953125q1.0625 0 1.59375 -0.46875q0.53125 -0.46875 0.53125 -1.15625q0 -0.703125 -0.53125 -1.15625q-0.53125 -0.46875 -1.625 -0.46875q-1.015625 0 -1.546875 0.46875q-0.53125 0.453125 -0.53125 1.15625q0 0.6875 0.53125 1.15625q0.515625 0.46875 1.578125 0.46875zm2.765625 -5.3171234l-5.53125 0l0 -0.84375l0.796875 0q-0.921875 -0.609375 -0.921875 -1.75q0 -0.5 0.1875 -0.921875q0.171875 -0.421875 0.46875 -0.625q0.296875 -0.21875 0.6875 -0.296875q0.265625 -0.046875 0.921875 -0.046875l3.390625 0l0 0.9375l-3.359375 0q-0.578125 0 -0.859375 0.109375q-0.28125 0.109375 -0.453125 0.390625q-0.171875 0.265625 -0.171875 0.640625q0 0.59375 0.390625 1.03125q0.375 0.4375 1.4375 0.4375l3.015625 0l0 0.9375zm0 -5.9264984l-5.53125 0l0 -0.84375l0.796875 0q-0.921875 -0.609375 -0.921875 -1.75q0 -0.5 0.1875 -0.921875q0.171875 -0.421875 0.46875 -0.625q0.296875 -0.21875 0.6875 -0.296875q0.265625 -0.046875 0.921875 -0.046875l3.390625 0l0 0.9375l-3.359375 0q-0.578125 0 -0.859375 0.109375q-0.28125 0.109375 -0.453125 0.390625q-0.171875 0.265625 -0.171875 0.640625q0 0.59375 0.390625 1.03125q0.375 0.4375 1.4375 0.4375l3.015625 0l0 0.9375zm-1.78125 -9.707748l0.125 -0.96875q0.84375 0.234375 1.3125 0.859375q0.46875 0.609375 0.46875 1.578125q0 1.203125 -0.75 1.921875q-0.75 0.703125 -2.09375 0.703125q-1.390625 0 -2.15625 -0.71875q-0.78125 -0.71875 -0.78125 -1.859375q0 -1.109375 0.765625 -1.8125q0.75 -0.703125 2.125 -0.703125q0.078125 0 0.234375 0l0 4.125q0.921875 -0.046875 1.40625 -0.515625q0.484375 -0.46875 0.484375 -1.15625q0 -0.515625 -0.265625 -0.875q-0.28125 -0.359375 -0.875 -0.578125zm-1.515625 3.078125l0 -3.09375q-0.6875 0.0625 -1.046875 0.359375q-0.53125 0.453125 -0.53125 1.15625q0 0.640625 0.4375 1.09375q0.421875 0.4375 1.140625 0.484375zm1.265625 -8.832748l0.125 -0.921875q0.953125 0.15625 1.5 0.78125q0.53125 0.625 0.53125 1.53125q0 1.125 -0.734375 1.8125q-0.75 0.6875 -2.125 0.6875q-0.90625 0 -1.578125 -0.296875q-0.671875 -0.296875 -1.0 -0.890625q-0.34375 -0.609375 -0.34375 -1.328125q0 -0.890625 0.46875 -1.46875q0.453125 -0.578125 1.28125 -0.734375l0.140625 0.90625q-0.546875 0.140625 -0.828125 0.46875q-0.28125 0.328125 -0.28125 0.796875q0 0.703125 0.515625 1.15625q0.5 0.4375 1.59375 0.4375q1.109375 0 1.625 -0.421875q0.5 -0.4375 0.5 -1.125q0 -0.546875 -0.34375 -0.90625q-0.34375 -0.375 -1.046875 -0.484375zm1.1875 -3.765625l0.828125 -0.125q0.09375 0.390625 0.09375 0.703125q0 0.5 -0.15625 0.78125q-0.171875 0.28125 -0.4375 0.40625q-0.265625 0.109375 -1.109375 0.109375l-3.171875 0l0 0.6875l-0.734375 0l0 -0.6875l-1.359375 0l-0.5625 -0.9375l1.921875 0l0 -0.9375l0.734375 0l0 0.9375l3.234375 0q0.390625 0 0.515625 -0.046875q0.109375 -0.046875 0.1875 -0.15625q0.0625 -0.109375 0.0625 -0.328125q0 -0.15625 -0.046875 -0.40625zm0.84375 -7.140045l0 0.9375l-5.96875 0q0.328125 0.34375 0.65625 0.890625q0.3125 0.546875 0.46875 0.984375l-0.90625 0q-0.359375 -0.796875 -0.890625 -1.375q-0.53125 -0.59375 -1.015625 -0.828125l0 -0.609375l7.65625 0z" fill-rule="nonzero"/><path fill="#000000" fill-opacity="0.0" d="m10.454068 257.04477l0 -129.41733l27.527561 0l0 129.41733z" fill-rule="evenodd"/><path fill="#000000" d="m29.694069 237.99377l-7.625 0l0 -3.375q0 -1.015625 0.203125 -1.546875q0.203125 -0.53125 0.734375 -0.84375q0.515625 -0.328125 1.140625 -0.328125q0.8125 0 1.375 0.53125q0.546875 0.515625 0.703125 1.625q0.1875 -0.40625 0.375 -0.609375q0.40625 -0.453125 1.015625 -0.84375l2.078125 -1.328125l0 1.265625l-1.59375 1.015625q-0.6875 0.4375 -1.046875 0.734375q-0.359375 0.28125 -0.5 0.515625q-0.15625 0.21875 -0.203125 0.453125q-0.046875 0.171875 -0.046875 0.5625l0 1.171875l3.390625 0l0 1.0zm-4.265625 -1.0l0 -2.171875q0 -0.6875 -0.140625 -1.078125q-0.140625 -0.390625 -0.453125 -0.59375q-0.3125 -0.203125 -0.6875 -0.203125q-0.546875 0 -0.890625 0.390625q-0.34375 0.390625 -0.34375 1.234375l0 2.421875l2.515625 0zm2.484375 -10.336227l0.125 -0.96875q0.84375 0.234375 1.3125 0.859375q0.46875 0.609375 0.46875 1.578125q0 1.203125 -0.75 1.921875q-0.75 0.703125 -2.09375 0.703125q-1.390625 0 -2.15625 -0.71875q-0.78125 -0.71875 -0.78125 -1.859375q0 -1.109375 0.765625 -1.8125q0.75 -0.703125 2.125 -0.703125q0.078125 0 0.234375 0l0 4.125q0.921875 -0.046875 1.40625 -0.515625q0.484375 -0.46875 0.484375 -1.15625q0 -0.515625 -0.265625 -0.875q-0.28125 -0.359375 -0.875 -0.578125zm-1.515625 3.078125l0 -3.09375q-0.6875 0.0625 -1.046875 0.359375q-0.53125 0.453125 -0.53125 1.15625q0 0.640625 0.4375 1.09375q0.421875 0.4375 1.140625 0.484375zm1.640625 -4.8483734l-0.140625 -0.921875q0.5625 -0.078125 0.859375 -0.4375q0.296875 -0.359375 0.296875 -1.0q0 -0.640625 -0.265625 -0.953125q-0.265625 -0.3125 -0.625 -0.3125q-0.3125 0 -0.5 0.28125q-0.125 0.1875 -0.3125 0.953125q-0.265625 1.03125 -0.453125 1.4375q-0.1875 0.390625 -0.515625 0.59375q-0.34375 0.203125 -0.75 0.203125q-0.359375 0 -0.671875 -0.171875q-0.328125 -0.171875 -0.53125 -0.453125q-0.15625 -0.21875 -0.265625 -0.59375q-0.125 -0.390625 -0.125 -0.8125q0 -0.65625 0.1875 -1.140625q0.1875 -0.5 0.515625 -0.734375q0.3125 -0.234375 0.859375 -0.3125l0.125 0.90625q-0.4375 0.0625 -0.671875 0.375q-0.234375 0.296875 -0.234375 0.828125q0 0.65625 0.21875 0.9375q0.203125 0.265625 0.484375 0.265625q0.1875 0 0.328125 -0.109375q0.15625 -0.125 0.25 -0.359375q0.0625 -0.140625 0.25 -0.828125q0.265625 -1.0 0.4375 -1.390625q0.15625 -0.390625 0.484375 -0.609375q0.3125 -0.234375 0.796875 -0.234375q0.46875 0 0.890625 0.28125q0.40625 0.265625 0.640625 0.78125q0.21875 0.515625 0.21875 1.171875q0 1.078125 -0.4375 1.640625q-0.453125 0.5625 -1.34375 0.71875zm-4.890625 -5.703125l-1.078125 0l0 -0.9375l1.078125 0l0 0.9375zm6.546875 0l-5.53125 0l0 -0.9375l5.53125 0l0 0.9375zm0 -5.9456024l-0.703125 0q0.828125 0.515625 0.828125 1.546875q0 0.65625 -0.359375 1.21875q-0.375 0.546875 -1.015625 0.859375q-0.65625 0.296875 -1.5 0.296875q-0.828125 0 -1.5 -0.28125q-0.6875 -0.28125 -1.046875 -0.828125q-0.359375 -0.546875 -0.359375 -1.234375q0 -0.5 0.21875 -0.890625q0.203125 -0.390625 0.546875 -0.625l-2.734375 0l0 -0.9375l7.625 0l0 0.875zm-2.75 2.953125q1.046875 0 1.578125 -0.4375q0.53125 -0.453125 0.53125 -1.0625q0 -0.609375 -0.5 -1.03125q-0.515625 -0.4375 -1.53125 -0.4375q-1.140625 0 -1.671875 0.4375q-0.53125 0.4375 -0.53125 1.078125q0 0.609375 0.515625 1.03125q0.5 0.421875 1.609375 0.421875zm2.75 -8.926498l-0.8125 0q0.9375 0.65625 0.9375 1.75q0 0.5 -0.1875 0.921875q-0.1875 0.421875 -0.46875 0.625q-0.28125 0.203125 -0.703125 0.296875q-0.265625 0.046875 -0.875 0.046875l-3.421875 0l0 -0.9375l3.0625 0q0.734375 0 1.0 -0.046875q0.359375 -0.09375 0.578125 -0.375q0.203125 -0.296875 0.203125 -0.703125q0 -0.421875 -0.203125 -0.796875q-0.21875 -0.375 -0.59375 -0.515625q-0.375 -0.15625 -1.078125 -0.15625l-2.96875 0l0 -0.9375l5.53125 0l0 0.828125zm-0.6875 -5.9108734q0.453125 0.53125 0.640625 1.015625q0.171875 0.46875 0.171875 1.015625q0 0.921875 -0.4375 1.40625q-0.453125 0.484375 -1.140625 0.484375q-0.40625 0 -0.734375 -0.171875q-0.34375 -0.1875 -0.546875 -0.484375q-0.203125 -0.3125 -0.3125 -0.6875q-0.0625 -0.265625 -0.140625 -0.828125q-0.125 -1.125 -0.3125 -1.671875q-0.203125 0 -0.25 0q-0.578125 0 -0.8125 0.265625q-0.3125 0.359375 -0.3125 1.0625q0 0.65625 0.234375 0.984375q0.234375 0.3125 0.8125 0.453125l-0.125 0.921875q-0.578125 -0.125 -0.9375 -0.40625q-0.375 -0.296875 -0.5625 -0.828125q-0.203125 -0.546875 -0.203125 -1.25q0 -0.71875 0.171875 -1.15625q0.171875 -0.4375 0.421875 -0.640625q0.25 -0.21875 0.640625 -0.296875q0.234375 -0.046875 0.859375 -0.046875l1.25 0q1.296875 0 1.65625 -0.0625q0.34375 -0.0625 0.65625 -0.234375l0 0.96875q-0.296875 0.15625 -0.6875 0.1875zm-2.078125 0.078125q0.203125 0.515625 0.34375 1.53125q0.078125 0.578125 0.1875 0.828125q0.109375 0.234375 0.3125 0.359375q0.1875 0.125 0.4375 0.125q0.375 0 0.625 -0.28125q0.25 -0.28125 0.25 -0.828125q0 -0.53125 -0.234375 -0.953125q-0.234375 -0.421875 -0.65625 -0.625q-0.3125 -0.15625 -0.9375 -0.15625l-0.328125 0zm2.765625 -2.3796234l-7.625 0l0 -0.9375l7.625 0l0 0.9375zm-2.671875 -10.906265l0.25 -1.015625q1.25 0.328125 1.90625 1.15625q0.640625 0.8125 0.640625 2.015625q0 1.234375 -0.5 2.0q-0.5 0.76564026 -1.453125 1.1718903q-0.953125 0.40625 -2.046875 0.40625q-1.1875 0 -2.078125 -0.453125q-0.890625 -0.45314026 -1.34375 -1.2968903q-0.46875 -0.84375 -0.46875 -1.84375q0 -1.15625 0.59375 -1.9375q0.578125 -0.78125 1.640625 -1.078125l0.234375 0.984375q-0.84375 0.265625 -1.21875 0.78125q-0.375 0.5 -0.375 1.265625q0 0.875 0.421875 1.46875q0.421875 0.59375 1.140625 0.828125q0.703125 0.234375 1.453125 0.234375q0.96875 0 1.703125 -0.28125q0.71875 -0.28125 1.078125 -0.875q0.359375 -0.59375 0.359375 -1.296875q0 -0.84375 -0.484375 -1.4375q-0.5 -0.59375 -1.453125 -0.796875zm-0.09375 -1.7893524q-1.53125 0 -2.265625 -0.84375q-0.625 -0.71875 -0.625 -1.734375q0 -1.140625 0.75 -1.859375q0.75 -0.734375 2.0625 -0.734375q1.0625 0 1.6875 0.328125q0.609375 0.3125 0.953125 0.921875q0.328125 0.609375 0.328125 1.34375q0 1.15625 -0.734375 1.875q-0.75 0.703125 -2.15625 0.703125zm0 -0.953125q1.0625 0 1.59375 -0.46875q0.53125 -0.46875 0.53125 -1.15625q0 -0.703125 -0.53125 -1.15625q-0.53125 -0.46875 -1.625 -0.46875q-1.015625 0 -1.546875 0.46875q-0.53125 0.453125 -0.53125 1.15625q0 0.6875 0.53125 1.15625q0.515625 0.46875 1.578125 0.46875zm2.765625 -5.3171234l-5.53125 0l0 -0.84375l0.796875 0q-0.921875 -0.609375 -0.921875 -1.75q0 -0.5 0.1875 -0.921875q0.171875 -0.421875 0.46875 -0.625q0.296875 -0.21875 0.6875 -0.296875q0.265625 -0.046875 0.921875 -0.046875l3.390625 0l0 0.9375l-3.359375 0q-0.578125 0 -0.859375 0.109375q-0.28125 0.109375 -0.453125 0.390625q-0.171875 0.265625 -0.171875 0.640625q0 0.59375 0.390625 1.03125q0.375 0.4375 1.4375 0.4375l3.015625 0l0 0.9375zm0 -5.9264984l-5.53125 0l0 -0.84375l0.796875 0q-0.921875 -0.609375 -0.921875 -1.75q0 -0.5 0.1875 -0.921875q0.171875 -0.421875 0.46875 -0.625q0.296875 -0.21875 0.6875 -0.296875q0.265625 -0.046875 0.921875 -0.046875l3.390625 0l0 0.9375l-3.359375 0q-0.578125 0 -0.859375 0.109375q-0.28125 0.109375 -0.453125 0.390625q-0.171875 0.265625 -0.171875 0.640625q0 0.59375 0.390625 1.03125q0.375 0.4375 1.4375 0.4375l3.015625 0l0 0.9375zm-1.78125 -9.707748l0.125 -0.96875q0.84375 0.234375 1.3125 0.859375q0.46875 0.609375 0.46875 1.578125q0 1.203125 -0.75 1.921875q-0.75 0.703125 -2.09375 0.703125q-1.390625 0 -2.15625 -0.71875q-0.78125 -0.71875 -0.78125 -1.859375q0 -1.109375 0.765625 -1.8125q0.75 -0.703125 2.125 -0.703125q0.078125 0 0.234375 0l0 4.125q0.921875 -0.046875 1.40625 -0.515625q0.484375 -0.46875 0.484375 -1.15625q0 -0.515625 -0.265625 -0.875q-0.28125 -0.359375 -0.875 -0.578125zm-1.515625 3.078125l0 -3.09375q-0.6875 0.0625 -1.046875 0.359375q-0.53125 0.453125 -0.53125 1.15625q0 0.640625 0.4375 1.09375q0.421875 0.4375 1.140625 0.484375zm1.265625 -8.832748l0.125 -0.921875q0.953125 0.15625 1.5 0.78125q0.53125 0.625 0.53125 1.53125q0 1.125 -0.734375 1.8125q-0.75 0.6875 -2.125 0.6875q-0.90625 0 -1.578125 -0.296875q-0.671875 -0.296875 -1.0 -0.890625q-0.34375 -0.609375 -0.34375 -1.328125q0 -0.890625 0.46875 -1.46875q0.453125 -0.578125 1.28125 -0.734375l0.140625 0.90625q-0.546875 0.140625 -0.828125 0.46875q-0.28125 0.328125 -0.28125 0.796875q0 0.703125 0.515625 1.15625q0.5 0.4375 1.59375 0.4375q1.109375 0 1.625 -0.421875q0.5 -0.4375 0.5 -1.125q0 -0.546875 -0.34375 -0.90625q-0.34375 -0.375 -1.046875 -0.484375zm1.1875 -3.765625l0.828125 -0.125q0.09375 0.390625 0.09375 0.703125q0 0.5 -0.15625 0.78125q-0.171875 0.28125 -0.4375 0.40625q-0.265625 0.109375 -1.109375 0.109375l-3.171875 0l0 0.6875l-0.734375 0l0 -0.6875l-1.359375 0l-0.5625 -0.9375l1.921875 0l0 -0.9375l0.734375 0l0 0.9375l3.234375 0q0.390625 0 0.515625 -0.046875q0.109375 -0.046875 0.1875 -0.15625q0.0625 -0.109375 0.0625 -0.328125q0 -0.15625 -0.046875 -0.40625zm-0.0625 -8.53067l0.90625 0l0 5.03125q-0.34375 0.015625 -0.65625 -0.109375q-0.515625 -0.1875 -1.015625 -0.609375q-0.5 -0.421875 -1.140625 -1.234375q-1.03125 -1.234375 -1.625 -1.671875q-0.59375 -0.4375 -1.125 -0.4375q-0.5625 0 -0.9375 0.40625q-0.390625 0.390625 -0.390625 1.03125q0 0.671875 0.40625 1.078125q0.40625 0.40625 1.125 0.40625l-0.09375 0.96875q-1.078125 -0.09375 -1.640625 -0.734375q-0.5625 -0.65625 -0.5625 -1.734375q0 -1.109375 0.609375 -1.75q0.609375 -0.640625 1.5 -0.640625q0.46875 0 0.90625 0.1875q0.4375 0.1875 0.9375 0.625q0.484375 0.4375 1.328125 1.453125q0.71875 0.828125 0.96875 1.078125q0.25 0.234375 0.5 0.390625l0 -3.734375z" fill-rule="nonzero"/><path fill="#000000" fill-opacity="0.0" d="m221.53232 403.3071l60.472443 0l0 -38.236237" fill-rule="evenodd"/><path stroke="#000000" stroke-width="2.0" stroke-linejoin="round" stroke-linecap="butt" d="m221.53232 403.3071l60.472443 0l0 -26.236237" fill-rule="evenodd"/><path fill="#000000" stroke="#000000" stroke-width="2.0" stroke-linecap="butt" d="m285.30823 377.07086l-3.3034668 -9.076202l-3.3034668 9.076202z" fill-rule="evenodd"/><path fill="#000000" fill-opacity="0.0" d="m211.41733 39.13959l0 -17.889763" fill-rule="evenodd"/><path stroke="#000000" stroke-width="2.0" stroke-linejoin="round" stroke-linecap="butt" d="m211.41733 39.13959l0 -5.889763" fill-rule="evenodd"/><path fill="#000000" stroke="#000000" stroke-width="2.0" stroke-linecap="butt" d="m214.7208 33.24983l-3.3034668 -9.076195l-3.3034668 9.076195z" fill-rule="evenodd"/><path fill="#000000" fill-opacity="0.0" d="m282.0 91.47769l0 -42.23622l-60.472443 0" fill-rule="evenodd"/><path stroke="#000000" stroke-width="2.0" stroke-linejoin="round" stroke-linecap="butt" d="m282.0 91.47769l0 -42.23622l-48.472443 0" fill-rule="evenodd"/><path fill="#000000" stroke="#000000" stroke-width="2.0" stroke-linecap="butt" d="m233.52756 45.938004l-9.076187 3.3034668l9.076187 3.303463z" fill-rule="evenodd"/><path fill="#000000" fill-opacity="0.0" d="m246.17323 19.940945l112.66142 0l0 20.503937l-112.66142 0z" fill-rule="evenodd"/><path fill="#000000" d="m257.9701 38.732914l0 -2.40625l2.40625 0l0 2.40625l-2.40625 0zm8.015625 0l0 -2.40625l2.390625 0l0 2.40625l-2.390625 0zm7.984375 0l0 -2.40625l2.421875 0l0 2.40625l-2.421875 0zm7.390625 0l0 -2.40625l2.390625 0l0 2.40625l-2.390625 0zm6.6679688 0l0 -2.40625l2.390625 0l0 2.40625l-2.390625 0zm6.6679688 0l0 -2.40625l2.390625 0l0 2.40625l-2.390625 0z" fill-rule="nonzero"/><path fill="#000000" fill-opacity="0.0" d="m64.0 516.1837l294.83466 0l0 30.047241l-294.83466 0z" fill-rule="evenodd"/><path fill="#000000" d="m181.78171 538.1273l0 -13.359375l5.921875 0q1.78125 0 2.703125 0.359375q0.9375 0.359375 1.484375 1.28125q0.5625 0.90625 0.5625 2.015625q0 1.40625 -0.921875 2.390625q-0.921875 0.96875 -2.84375 1.234375q0.703125 0.34375 1.078125 0.671875q0.765625 0.703125 1.453125 1.765625l2.328125 3.640625l-2.21875 0l-1.765625 -2.78125q-0.78125 -1.203125 -1.28125 -1.828125q-0.5 -0.640625 -0.90625 -0.890625q-0.390625 -0.265625 -0.796875 -0.359375q-0.296875 -0.078125 -0.984375 -0.078125l-2.046875 0l0 5.9375l-1.765625 0zm1.765625 -7.453125l3.796875 0q1.21875 0 1.890625 -0.25q0.6875 -0.265625 1.046875 -0.8125q0.359375 -0.546875 0.359375 -1.1875q0 -0.953125 -0.6875 -1.5625q-0.6875 -0.609375 -2.1875 -0.609375l-4.21875 0l0 4.421875zm18.09793 4.34375l1.6875 0.203125q-0.40625 1.484375 -1.484375 2.3125q-1.078125 0.8125 -2.765625 0.8125q-2.125 0 -3.375 -1.296875q-1.234375 -1.3125 -1.234375 -3.671875q0 -2.453125 1.25 -3.796875q1.265625 -1.34375 3.265625 -1.34375q1.9375 0 3.15625 1.328125q1.234375 1.3125 1.234375 3.703125q0 0.15625 0 0.4375l-7.21875 0q0.09375 1.59375 0.90625 2.453125q0.8125 0.84375 2.015625 0.84375q0.90625 0 1.546875 -0.46875q0.640625 -0.484375 1.015625 -1.515625zm-5.390625 -2.65625l5.40625 0q-0.109375 -1.21875 -0.625 -1.828125q-0.78125 -0.953125 -2.03125 -0.953125q-1.125 0 -1.90625 0.765625q-0.765625 0.75 -0.84375 2.015625zm8.485107 2.875l1.625 -0.25q0.125 0.96875 0.75 1.5q0.625 0.515625 1.75 0.515625q1.125 0 1.671875 -0.453125q0.546875 -0.46875 0.546875 -1.09375q0 -0.546875 -0.484375 -0.875q-0.328125 -0.21875 -1.671875 -0.546875q-1.8125 -0.46875 -2.515625 -0.796875q-0.6875 -0.328125 -1.046875 -0.90625q-0.359375 -0.59375 -0.359375 -1.3125q0 -0.640625 0.296875 -1.1875q0.296875 -0.5625 0.8125 -0.921875q0.375 -0.28125 1.03125 -0.46875q0.671875 -0.203125 1.421875 -0.203125q1.140625 0 2.0 0.328125q0.859375 0.328125 1.265625 0.890625q0.421875 0.5625 0.578125 1.5l-1.609375 0.21875q-0.109375 -0.75 -0.640625 -1.171875q-0.515625 -0.421875 -1.46875 -0.421875q-1.140625 0 -1.625 0.375q-0.46875 0.375 -0.46875 0.875q0 0.3125 0.1875 0.578125q0.203125 0.265625 0.640625 0.4375q0.234375 0.09375 1.4375 0.421875q1.75 0.453125 2.4375 0.75q0.6875 0.296875 1.078125 0.859375q0.390625 0.5625 0.390625 1.40625q0 0.828125 -0.484375 1.546875q-0.46875 0.71875 -1.375 1.125q-0.90625 0.390625 -2.046875 0.390625q-1.875 0 -2.875 -0.78125q-0.984375 -0.78125 -1.25 -2.328125zm10.171875 2.890625l0 -13.359375l1.8125 0l7.015625 10.484375l0 -10.484375l1.6875 0l0 13.359375l-1.8125 0l-7.015625 -10.5l0 10.5l-1.6875 0zm19.91043 -3.109375l1.6875 0.203125q-0.40625 1.484375 -1.484375 2.3125q-1.078125 0.8125 -2.765625 0.8125q-2.125 0 -3.375 -1.296875q-1.234375 -1.3125 -1.234375 -3.671875q0 -2.453125 1.25 -3.796875q1.265625 -1.34375 3.265625 -1.34375q1.9375 0 3.15625 1.328125q1.234375 1.3125 1.234375 3.703125q0 0.15625 0 0.4375l-7.21875 0q0.09375 1.59375 0.90625 2.453125q0.8125 0.84375 2.015625 0.84375q0.90625 0 1.546875 -0.46875q0.640625 -0.484375 1.015625 -1.515625zm-5.390625 -2.65625l5.40625 0q-0.109375 -1.21875 -0.625 -1.828125q-0.78125 -0.953125 -2.03125 -0.953125q-1.125 0 -1.90625 0.765625q-0.765625 0.75 -0.84375 2.015625zm12.719482 4.296875l0.234375 1.453125q-0.6875 0.140625 -1.234375 0.140625q-0.890625 0 -1.390625 -0.28125q-0.484375 -0.28125 -0.6875 -0.734375q-0.203125 -0.46875 -0.203125 -1.9375l0 -5.578125l-1.203125 0l0 -1.265625l1.203125 0l0 -2.390625l1.625 -0.984375l0 3.375l1.65625 0l0 1.265625l-1.65625 0l0 5.671875q0 0.6875 0.078125 0.890625q0.09375 0.203125 0.28125 0.328125q0.203125 0.109375 0.578125 0.109375q0.265625 0 0.71875 -0.0625z" fill-rule="nonzero"/></g></svg>