<svg version="1.1" viewBox="0.0 0.0 391.7795275590551 558.010498687664" fill="none" stroke="none" stroke-linecap="square" stroke-miterlimit="10" xmlns:xlink="http://www.w3.org/1999/xlink" xmlns="http://www.w3.org/2000/svg"><clipPath id="p.0"><path d="m0 0l391.77954 0l0 558.0105l-391.77954 0l0 -558.0105z" clip-rule="nonzero"/></clipPath><g clip-path="url(#p.0)"><path fill="#000000" fill-opacity="0.0" d="m0 0l391.77954 0l0 558.0105l-391.77954 0z" fill-rule="evenodd"/><path fill="#ffffff" d="m8.51706 9.419948l377.73227 0l0 540.8819l-377.73227 0z" fill-rule="evenodd"/><path stroke="#000000" stroke-width="1.0" stroke-linejoin="round" stroke-linecap="butt" d="m8.51706 9.419948l377.73227 0l0 540.8819l-377.73227 0z" fill-rule="evenodd"/><path fill="#003366" d="m62.062992 440.18777l294.83466 0l0 45.102356l-294.83466 0z" fill-rule="evenodd"/><path stroke="#000000" stroke-width="1.0" stroke-linejoin="round" stroke-linecap="butt" d="m62.062992 440.18777l294.83466 0l0 45.102356l-294.83466 0z" fill-rule="evenodd"/><path fill="#ffffff" d="m198.67282 453.97144l1.765625 0.453125q-0.5625 2.171875 -2.0 3.328125q-1.4375 1.140625 -3.53125 1.140625q-2.15625 0 -3.515625 -0.875q-1.34375 -0.890625 -2.0625 -2.546875q-0.703125 -1.671875 -0.703125 -3.59375q0 -2.078125 0.796875 -3.625q0.796875 -1.5625 2.265625 -2.359375q1.484375 -0.8125 3.25 -0.8125q2.0 0 3.359375 1.015625q1.375 1.015625 1.90625 2.875l-1.734375 0.40625q-0.46875 -1.453125 -1.359375 -2.109375q-0.875 -0.671875 -2.203125 -0.671875q-1.546875 0 -2.578125 0.734375q-1.03125 0.734375 -1.453125 1.984375q-0.421875 1.234375 -0.421875 2.5625q0 1.703125 0.5 2.96875q0.5 1.265625 1.546875 1.90625q1.046875 0.625 2.265625 0.625q1.484375 0 2.515625 -0.859375q1.03125 -0.859375 1.390625 -2.546875zm3.129181 -0.15625q0 -2.6875 1.484375 -3.96875q1.25 -1.078125 3.046875 -1.078125q2.0 0 3.265625 1.3125q1.265625 1.296875 1.265625 3.609375q0 1.859375 -0.5625 2.9375q-0.5625 1.0625 -1.640625 1.65625q-1.0625 0.59375 -2.328125 0.59375q-2.03125 0 -3.28125 -1.296875q-1.25 -1.3125 -1.25 -3.765625zm1.6875 0q0 1.859375 0.796875 2.796875q0.8125 0.921875 2.046875 0.921875q1.21875 0 2.03125 -0.921875q0.8125 -0.9375 0.8125 -2.84375q0 -1.796875 -0.8125 -2.71875q-0.8125 -0.921875 -2.03125 -0.921875q-1.234375 0 -2.046875 0.921875q-0.796875 0.90625 -0.796875 2.765625zm9.297607 4.84375l0 -9.671875l1.46875 0l0 1.375q1.0625 -1.59375 3.078125 -1.59375q0.875 0 1.609375 0.3125q0.734375 0.3125 1.09375 0.828125q0.375 0.5 0.515625 1.203125q0.09375 0.453125 0.09375 1.59375l0 5.953125l-1.640625 0l0 -5.890625q0 -1.0 -0.203125 -1.484375q-0.1875 -0.5 -0.671875 -0.796875q-0.484375 -0.296875 -1.140625 -0.296875q-1.046875 0 -1.8125 0.671875q-0.75 0.65625 -0.75 2.515625l0 5.28125l-1.640625 0zm13.063202 0l-3.6875 -9.671875l1.734375 0l2.078125 5.796875q0.328125 0.9375 0.625 1.9375q0.203125 -0.765625 0.609375 -1.828125l2.140625 -5.90625l1.6875 0l-3.65625 9.671875l-1.53125 0z" fill-rule="nonzero"/><path fill="#ffffff" d="m156.0628 480.65894l-2.96875 -9.671875l1.703125 0l1.53125 5.578125l0.578125 2.078125q0.046875 -0.15625 0.5 -2.0l1.546875 -5.65625l1.6875 0l1.4375 5.609375l0.484375 1.84375l0.5625 -1.859375l1.65625 -5.59375l1.59375 0l-3.03125 9.671875l-1.703125 0l-1.53125 -5.796875l-0.375 -1.640625l-1.953125 7.4375l-1.71875 0zm11.691696 -11.46875l0 -1.890625l1.640625 0l0 1.890625l-1.640625 0zm0 11.46875l0 -9.671875l1.640625 0l0 9.671875l-1.640625 0zm7.722946 -1.46875l0.234375 1.453125q-0.6875 0.140625 -1.234375 0.140625q-0.890625 0 -1.390625 -0.28125q-0.484375 -0.28125 -0.6875 -0.734375q-0.203125 -0.46875 -0.203125 -1.9375l0 -5.578125l-1.203125 0l0 -1.265625l1.203125 0l0 -2.390625l1.625 -0.984375l0 3.375l1.65625 0l0 1.265625l-1.65625 0l0 5.671875q0 0.6875 0.078125 0.890625q0.09375 0.203125 0.28125 0.328125q0.203125 0.109375 0.578125 0.109375q0.265625 0 0.71875 -0.0625zm1.6051788 1.46875l0 -13.359375l1.640625 0l0 4.796875q1.140625 -1.328125 2.890625 -1.328125q1.078125 0 1.859375 0.421875q0.796875 0.421875 1.140625 1.171875q0.34375 0.75 0.34375 2.171875l0 6.125l-1.640625 0l0 -6.125q0 -1.234375 -0.53125 -1.796875q-0.53125 -0.5625 -1.515625 -0.5625q-0.71875 0 -1.359375 0.390625q-0.640625 0.375 -0.921875 1.015625q-0.265625 0.640625 -0.265625 1.78125l0 5.296875l-1.640625 0zm8.860092 3.703125l0 -1.1875l10.859375 0l0 1.1875l-10.859375 0zm13.391327 -3.703125l-1.515625 0l0 -13.359375l1.640625 0l0 4.765625q1.046875 -1.296875 2.65625 -1.296875q0.890625 0 1.6875 0.359375q0.796875 0.359375 1.3125 1.015625q0.515625 0.640625 0.796875 1.5625q0.296875 0.921875 0.296875 1.96875q0 2.484375 -1.234375 3.84375q-1.21875 1.359375 -2.953125 1.359375q-1.703125 0 -2.6875 -1.4375l0 1.21875zm-0.015625 -4.90625q0 1.734375 0.484375 2.515625q0.765625 1.265625 2.09375 1.265625q1.078125 0 1.859375 -0.9375q0.78125 -0.9375 0.78125 -2.78125q0 -1.890625 -0.75 -2.796875q-0.75 -0.90625 -1.828125 -0.90625q-1.0625 0 -1.859375 0.9375q-0.78125 0.9375 -0.78125 2.703125zm8.891357 4.90625l0 -9.671875l1.46875 0l0 1.375q1.0625 -1.59375 3.078125 -1.59375q0.875 0 1.609375 0.3125q0.734375 0.3125 1.09375 0.828125q0.375 0.5 0.515625 1.203125q0.09375 0.453125 0.09375 1.59375l0 5.953125l-1.640625 0l0 -5.890625q0 -1.0 -0.203125 -1.484375q-0.1875 -0.5 -0.671875 -0.796875q-0.484375 -0.296875 -1.140625 -0.296875q-1.046875 0 -1.8125 0.671875q-0.75 0.65625 -0.75 2.515625l0 5.28125l-1.640625 0zm19.000702 -7.859375l-8.828125 0l0 -1.515625l8.828125 0l0 1.515625zm0 4.0625l-8.828125 0l0 -1.53125l8.828125 0l0 1.53125zm5.8793335 3.796875l0 -11.78125l-4.40625 0l0 -1.578125l10.578125 0l0 1.578125l-4.40625 0l0 11.78125l-1.765625 0zm7.0782776 0l0 -9.671875l1.46875 0l0 1.46875q0.5625 -1.03125 1.03125 -1.359375q0.484375 -0.328125 1.0625 -0.328125q0.828125 0 1.6875 0.53125l-0.5625 1.515625q-0.609375 -0.359375 -1.203125 -0.359375q-0.546875 0 -0.96875 0.328125q-0.421875 0.328125 -0.609375 0.890625q-0.28125 0.875 -0.28125 1.921875l0 5.0625l-1.625 0zm12.556427 0l0 -1.421875q-1.125 1.640625 -3.0625 1.640625q-0.859375 0 -1.609375 -0.328125q-0.734375 -0.328125 -1.09375 -0.828125q-0.359375 -0.5 -0.5 -1.21875q-0.109375 -0.46875 -0.109375 -1.53125l0 -5.984375l1.640625 0l0 5.359375q0 1.28125 0.109375 1.734375q0.15625 0.640625 0.65625 1.015625q0.5 0.375 1.234375 0.375q0.734375 0 1.375 -0.375q0.65625 -0.390625 0.921875 -1.03125q0.265625 -0.65625 0.265625 -1.890625l0 -5.1875l1.640625 0l0 9.671875l-1.46875 0zm10.672607 -3.109375l1.6875 0.203125q-0.40625 1.484375 -1.484375 2.3125q-1.078125 0.8125 -2.765625 0.8125q-2.125 0 -3.375 -1.296875q-1.234375 -1.3125 -1.234375 -3.671875q0 -2.453125 1.25 -3.796875q1.265625 -1.34375 3.265625 -1.34375q1.9375 0 3.15625 1.328125q1.234375 1.3125 1.234375 3.703125q0 0.15625 0 0.4375l-7.21875 0q0.09375 1.59375 0.90625 2.453125q0.8125 0.84375 2.015625 0.84375q0.90625 0 1.546875 -0.46875q0.640625 -0.484375 1.015625 -1.515625zm-5.390625 -2.65625l5.40625 0q-0.109375 -1.21875 -0.625 -1.828125q-0.78125 -0.953125 -2.03125 -0.953125q-1.125 0 -1.90625 0.765625q-0.765625 0.75 -0.84375 2.015625z" fill-rule="nonzero"/><path fill="#000000" fill-opacity="0.0" d="m195.71654 399.97507l0 0c0 -7.601532 6.1622467 -13.763794 13.763779 -13.763794l0 0c3.6503754 0 7.151245 1.4501343 9.732468 4.0313416c2.5812073 2.5812073 4.031311 6.082062 4.031311 9.732452l0 0c0 7.601532 -6.162262 13.763763 -13.763779 13.763763l0 0c-7.601532 0 -13.763779 -6.1622314 -13.763779 -13.763763z" fill-rule="evenodd"/><path stroke="#000000" stroke-width="1.0" stroke-linejoin="round" stroke-linecap="butt" d="m195.71654 399.97507l0 0c0 -7.601532 6.1622467 -13.763794 13.763779 -13.763794l0 0c3.6503754 0 7.151245 1.4501343 9.732468 4.0313416c2.5812073 2.5812073 4.031311 6.082062 4.031311 9.732452l0 0c0 7.601532 -6.162262 13.763763 -13.763779 13.763763l0 0c-7.601532 0 -13.763779 -6.1622314 -13.763779 -13.763763z" fill-rule="evenodd"/><path fill="#000000" d="m199.36531 396.73782l6.877762 0l0 -6.8777466l6.4744873 0l0 6.8777466l6.877762 0l0 6.4744873l-6.877762 0l0 6.8777466l-6.4744873 0l0 -6.8777466l-6.877762 0z" fill-rule="evenodd"/><path stroke="#000000" stroke-width="1.0" stroke-linejoin="round" stroke-linecap="butt" d="m199.36531 396.73782l6.877762 0l0 -6.8777466l6.4744873 0l0 6.8777466l6.877762 0l0 6.4744873l-6.877762 0l0 6.8777466l-6.4744873 0l0 -6.8777466l-6.877762 0z" fill-rule="evenodd"/><path fill="#000000" fill-opacity="0.0" d="m195.71654 45.922573l0 0c0 -7.601528 6.1622467 -13.763779 13.763779 -13.763779l0 0c3.6503754 0 7.151245 1.4501076 9.732468 4.031315c2.5812073 2.581211 4.031311 6.082081 4.031311 9.732464l0 0c0 7.6015244 -6.162262 13.763779 -13.763779 13.763779l0 0c-7.601532 0 -13.763779 -6.1622543 -13.763779 -13.763779z" fill-rule="evenodd"/><path stroke="#000000" stroke-width="1.0" stroke-linejoin="round" stroke-linecap="butt" d="m195.71654 45.922573l0 0c0 -7.601528 6.1622467 -13.763779 13.763779 -13.763779l0 0c3.6503754 0 7.151245 1.4501076 9.732468 4.031315c2.5812073 2.581211 4.031311 6.082081 4.031311 9.732464l0 0c0 7.6015244 -6.162262 13.763779 -13.763779 13.763779l0 0c-7.601532 0 -13.763779 -6.1622543 -13.763779 -13.763779z" fill-rule="evenodd"/><path fill="#000000" d="m199.36531 42.68533l6.877762 0l0 -6.877758l6.4744873 0l0 6.877758l6.877762 0l0 6.4744835l-6.877762 0l0 6.877762l-6.4744873 0l0 -6.877762l-6.877762 0z" fill-rule="evenodd"/><path stroke="#000000" stroke-width="1.0" stroke-linejoin="round" stroke-linecap="butt" d="m199.36531 42.68533l6.877762 0l0 -6.877758l6.4744873 0l0 6.877758l6.877762 0l0 6.4744835l-6.877762 0l0 6.877762l-6.4744873 0l0 -6.877762l-6.877762 0z" fill-rule="evenodd"/><path fill="#000000" fill-opacity="0.0" d="m209.48032 440.18777l0 -30.11023" fill-rule="evenodd"/><path stroke="#000000" stroke-width="2.0" stroke-linejoin="round" stroke-linecap="butt" d="m209.48032 440.18774l0 -18.11023" fill-rule="evenodd"/><path fill="#000000" stroke="#000000" stroke-width="2.0" stroke-linecap="butt" d="m212.78378 422.0775l-3.3034668 -9.076202l-3.3034668 9.076202z" fill-rule="evenodd"/><path fill="#000000" fill-opacity="0.0" d="m280.0 164.31772l0 -10.251968l0.06298828 0l0 -10.251968" fill-rule="evenodd"/><path stroke="#000000" stroke-width="1.0" stroke-linejoin="round" stroke-linecap="butt" d="m280.0 164.31772l0 -10.251968l0.06298828 0l0 -4.2519684" fill-rule="evenodd"/><path fill="#000000" stroke="#000000" stroke-width="1.0" stroke-linecap="butt" d="m281.71472 149.81378l-1.6517334 -4.538101l-1.6517334 4.538101z" fill-rule="evenodd"/><path fill="#000000" fill-opacity="0.0" d="m8.51706 253.71274l0 -129.41733l27.527561 0l0 129.41733z" fill-rule="evenodd"/><path fill="#000000" d="m27.757061 234.66174l-7.625 0l0 -3.375q0 -1.015625 0.203125 -1.546875q0.203125 -0.53125 0.734375 -0.84375q0.515625 -0.328125 1.140625 -0.328125q0.8125 0 1.375 0.53125q0.546875 0.515625 0.703125 1.625q0.1875 -0.40625 0.375 -0.609375q0.40625 -0.453125 1.015625 -0.84375l2.078125 -1.328125l0 1.265625l-1.59375 1.015625q-0.6875 0.4375 -1.046875 0.734375q-0.359375 0.28125 -0.5 0.515625q-0.15625 0.21875 -0.203125 0.453125q-0.046875 0.171875 -0.046875 0.5625l0 1.171875l3.390625 0l0 1.0zm-4.265625 -1.0l0 -2.171875q0 -0.6875 -0.140625 -1.078125q-0.140625 -0.390625 -0.453125 -0.59375q-0.3125 -0.203125 -0.6875 -0.203125q-0.546875 0 -0.890625 0.390625q-0.34375 0.390625 -0.34375 1.234375l0 2.421875l2.515625 0zm2.484375 -10.336227l0.125 -0.96875q0.84375 0.234375 1.3125 0.859375q0.46875 0.609375 0.46875 1.578125q0 1.203125 -0.75 1.921875q-0.75 0.703125 -2.09375 0.703125q-1.390625 0 -2.15625 -0.71875q-0.78125 -0.71875 -0.78125 -1.859375q0 -1.109375 0.765625 -1.8125q0.75 -0.703125 2.125 -0.703125q0.078125 0 0.234375 0l0 4.125q0.921875 -0.046875 1.40625 -0.515625q0.484375 -0.46875 0.484375 -1.15625q0 -0.515625 -0.265625 -0.875q-0.28125 -0.359375 -0.875 -0.578125zm-1.515625 3.078125l0 -3.09375q-0.6875 0.0625 -1.046875 0.359375q-0.53125 0.453125 -0.53125 1.15625q0 0.640625 0.4375 1.09375q0.421875 0.4375 1.140625 0.484375zm1.640625 -4.8483734l-0.140625 -0.921875q0.5625 -0.078125 0.859375 -0.4375q0.296875 -0.359375 0.296875 -1.0q0 -0.640625 -0.265625 -0.953125q-0.265625 -0.3125 -0.625 -0.3125q-0.3125 0 -0.5 0.28125q-0.125 0.1875 -0.3125 0.953125q-0.265625 1.03125 -0.453125 1.4375q-0.1875 0.390625 -0.515625 0.59375q-0.34375 0.203125 -0.75 0.203125q-0.359375 0 -0.671875 -0.171875q-0.328125 -0.171875 -0.53125 -0.453125q-0.15625 -0.21875 -0.265625 -0.59375q-0.125 -0.390625 -0.125 -0.8125q0 -0.65625 0.1875 -1.140625q0.1875 -0.5 0.515625 -0.734375q0.3125 -0.234375 0.859375 -0.3125l0.125 0.90625q-0.4375 0.0625 -0.671875 0.375q-0.234375 0.296875 -0.234375 0.828125q0 0.65625 0.21875 0.9375q0.203125 0.265625 0.484375 0.265625q0.1875 0 0.328125 -0.109375q0.15625 -0.125 0.25 -0.359375q0.0625 -0.140625 0.25 -0.828125q0.265625 -1.0 0.4375 -1.390625q0.15625 -0.390625 0.484375 -0.609375q0.3125 -0.234375 0.796875 -0.234375q0.46875 0 0.890625 0.28125q0.40625 0.265625 0.640625 0.78125q0.21875 0.515625 0.21875 1.171875q0 1.078125 -0.4375 1.640625q-0.453125 0.5625 -1.34375 0.71875zm-4.890625 -5.703125l-1.078125 0l0 -0.9375l1.078125 0l0 0.9375zm6.546875 0l-5.53125 0l0 -0.9375l5.53125 0l0 0.9375zm0 -5.9456024l-0.703125 0q0.828125 0.515625 0.828125 1.546875q0 0.65625 -0.359375 1.21875q-0.375 0.546875 -1.015625 0.859375q-0.65625 0.296875 -1.5 0.296875q-0.828125 0 -1.5 -0.28125q-0.6875 -0.28125 -1.046875 -0.828125q-0.359375 -0.546875 -0.359375 -1.234375q0 -0.5 0.21875 -0.890625q0.203125 -0.390625 0.546875 -0.625l-2.734375 0l0 -0.9375l7.625 0l0 0.875zm-2.75 2.953125q1.046875 0 1.578125 -0.4375q0.53125 -0.453125 0.53125 -1.0625q0 -0.609375 -0.5 -1.03125q-0.515625 -0.4375 -1.53125 -0.4375q-1.140625 0 -1.671875 0.4375q-0.53125 0.4375 -0.53125 1.078125q0 0.609375 0.515625 1.03125q0.5 0.421875 1.609375 0.421875zm2.75 -8.926498l-0.8125 0q0.9375 0.65625 0.9375 1.75q0 0.5 -0.1875 0.921875q-0.1875 0.421875 -0.46875 0.625q-0.28125 0.203125 -0.703125 0.296875q-0.265625 0.046875 -0.875 0.046875l-3.421875 0l0 -0.9375l3.0625 0q0.734375 0 1.0 -0.046875q0.359375 -0.09375 0.578125 -0.375q0.203125 -0.296875 0.203125 -0.703125q0 -0.421875 -0.203125 -0.796875q-0.21875 -0.375 -0.59375 -0.515625q-0.375 -0.15625 -1.078125 -0.15625l-2.96875 0l0 -0.9375l5.53125 0l0 0.828125zm-0.6875 -5.9108734q0.453125 0.53125 0.640625 1.015625q0.171875 0.46875 0.171875 1.015625q0 0.921875 -0.4375 1.40625q-0.453125 0.484375 -1.140625 0.484375q-0.40625 0 -0.734375 -0.171875q-0.34375 -0.1875 -0.546875 -0.484375q-0.203125 -0.3125 -0.3125 -0.6875q-0.0625 -0.265625 -0.140625 -0.828125q-0.125 -1.125 -0.3125 -1.671875q-0.203125 0 -0.25 0q-0.578125 0 -0.8125 0.265625q-0.3125 0.359375 -0.3125 1.0625q0 0.65625 0.234375 0.984375q0.234375 0.3125 0.8125 0.453125l-0.125 0.921875q-0.578125 -0.125 -0.9375 -0.40625q-0.375 -0.296875 -0.5625 -0.828125q-0.203125 -0.546875 -0.203125 -1.25q0 -0.71875 0.171875 -1.15625q0.171875 -0.4375 0.421875 -0.640625q0.25 -0.21875 0.640625 -0.296875q0.234375 -0.046875 0.859375 -0.046875l1.25 0q1.296875 0 1.65625 -0.0625q0.34375 -0.0625 0.65625 -0.234375l0 0.96875q-0.296875 0.15625 -0.6875 0.1875zm-2.078125 0.078125q0.203125 0.515625 0.34375 1.53125q0.078125 0.578125 0.1875 0.828125q0.109375 0.234375 0.3125 0.359375q0.1875 0.125 0.4375 0.125q0.375 0 0.625 -0.28125q0.25 -0.28125 0.25 -0.828125q0 -0.53125 -0.234375 -0.953125q-0.234375 -0.421875 -0.65625 -0.625q-0.3125 -0.15625 -0.9375 -0.15625l-0.328125 0zm2.765625 -2.3796234l-7.625 0l0 -0.9375l7.625 0l0 0.9375zm-2.671875 -10.90625l0.25 -1.015625q1.25 0.328125 1.90625 1.15625q0.640625 0.8125 0.640625 2.015625q0 1.234375 -0.5 2.0q-0.5 0.765625 -1.453125 1.171875q-0.953125 0.40625 -2.046875 0.40625q-1.1875 0 -2.078125 -0.453125q-0.890625 -0.453125 -1.34375 -1.296875q-0.46875 -0.84375 -0.46875 -1.84375q0 -1.15625 0.59375 -1.9375q0.578125 -0.78125 1.640625 -1.078125l0.234375 0.984375q-0.84375 0.265625 -1.21875 0.78125q-0.375 0.5 -0.375 1.265625q0 0.875 0.421875 1.46875q0.421875 0.59375 1.140625 0.828125q0.703125 0.234375 1.453125 0.234375q0.96875 0 1.703125 -0.28125q0.71875 -0.28125 1.078125 -0.875q0.359375 -0.59375 0.359375 -1.296875q0 -0.84375 -0.484375 -1.4375q-0.5 -0.59375 -1.453125 -0.796875zm-0.09375 -1.7893524q-1.53125 0 -2.265625 -0.84375q-0.625 -0.71875 -0.625 -1.734375q0 -1.140625 0.75 -1.859375q0.75 -0.734375 2.0625 -0.734375q1.0625 0 1.6875 0.328125q0.609375 0.3125 0.953125 0.921875q0.328125 0.609375 0.328125 1.34375q0 1.15625 -0.734375 1.875q-0.75 0.703125 -2.15625 0.703125zm0 -0.953125q1.0625 0 1.59375 -0.46875q0.53125 -0.46875 0.53125 -1.15625q0 -0.703125 -0.53125 -1.15625q-0.53125 -0.46875 -1.625 -0.46875q-1.015625 0 -1.546875 0.46875q-0.53125 0.453125 -0.53125 1.15625q0 0.6875 0.53125 1.15625q0.515625 0.46875 1.578125 0.46875zm2.765625 -5.3171234l-5.53125 0l0 -0.84375l0.796875 0q-0.921875 -0.609375 -0.921875 -1.75q0 -0.5 0.1875 -0.921875q0.171875 -0.421875 0.46875 -0.625q0.296875 -0.21875 0.6875 -0.296875q0.265625 -0.046875 0.921875 -0.046875l3.390625 0l0 0.9375l-3.359375 0q-0.578125 0 -0.859375 0.109375q-0.28125 0.109375 -0.453125 0.390625q-0.171875 0.265625 -0.171875 0.640625q0 0.59375 0.390625 1.03125q0.375 0.4375 1.4375 0.4375l3.015625 0l0 0.9375zm0 -5.9264984l-5.53125 0l0 -0.84375l0.796875 0q-0.921875 -0.609375 -0.921875 -1.75q0 -0.5 0.1875 -0.921875q0.171875 -0.421875 0.46875 -0.625q0.296875 -0.21875 0.6875 -0.296875q0.265625 -0.046875 0.921875 -0.046875l3.390625 0l0 0.9375l-3.359375 0q-0.578125 0 -0.859375 0.109375q-0.28125 0.109375 -0.453125 0.390625q-0.171875 0.265625 -0.171875 0.640625q0 0.59375 0.390625 1.03125q0.375 0.4375 1.4375 0.4375l3.015625 0l0 0.9375zm-1.78125 -9.707748l0.125 -0.96875q0.84375 0.234375 1.3125 0.859375q0.46875 0.609375 0.46875 1.578125q0 1.203125 -0.75 1.921875q-0.75 0.703125 -2.09375 0.703125q-1.390625 0 -2.15625 -0.71875q-0.78125 -0.71875 -0.78125 -1.859375q0 -1.109375 0.765625 -1.8125q0.75 -0.703125 2.125 -0.703125q0.078125 0 0.234375 0l0 4.125q0.921875 -0.046875 1.40625 -0.515625q0.484375 -0.46875 0.484375 -1.15625q0 -0.515625 -0.265625 -0.875q-0.28125 -0.359375 -0.875 -0.578125zm-1.515625 3.078125l0 -3.09375q-0.6875 0.0625 -1.046875 0.359375q-0.53125 0.453125 -0.53125 1.15625q0 0.640625 0.4375 1.09375q0.421875 0.4375 1.140625 0.484375zm1.265625 -8.832748l0.125 -0.921875q0.953125 0.15625 1.5 0.78125q0.53125 0.625 0.53125 1.53125q0 1.125 -0.734375 1.8125q-0.75 0.6875 -2.125 0.6875q-0.90625 0 -1.578125 -0.296875q-0.671875 -0.296875 -1.0 -0.890625q-0.34375 -0.609375 -0.34375 -1.328125q0 -0.890625 0.46875 -1.46875q0.453125 -0.578125 1.28125 -0.734375l0.140625 0.90625q-0.546875 0.140625 -0.828125 0.46875q-0.28125 0.328125 -0.28125 0.796875q0 0.703125 0.515625 1.15625q0.5 0.4375 1.59375 0.4375q1.109375 0 1.625 -0.421875q0.5 -0.4375 0.5 -1.125q0 -0.546875 -0.34375 -0.90625q-0.34375 -0.375 -1.046875 -0.484375zm1.1875 -3.765625l0.828125 -0.125q0.09375 0.390625 0.09375 0.703125q0 0.5 -0.15625 0.78125q-0.171875 0.28125 -0.4375 0.40625q-0.265625 0.109375 -1.109375 0.109375l-3.171875 0l0 0.6875l-0.734375 0l0 -0.6875l-1.359375 0l-0.5625 -0.9375l1.921875 0l0 -0.9375l0.734375 0l0 0.9375l3.234375 0q0.390625 0 0.515625 -0.046875q0.109375 -0.046875 0.1875 -0.15625q0.0625 -0.109375 0.0625 -0.328125q0 -0.15625 -0.046875 -0.40625zm-0.0625 -8.53067l0.90625 0l0 5.03125q-0.34375 0.015625 -0.65625 -0.109375q-0.515625 -0.1875 -1.015625 -0.609375q-0.5 -0.421875 -1.140625 -1.234375q-1.03125 -1.234375 -1.625 -1.671875q-0.59375 -0.4375 -1.125 -0.4375q-0.5625 0 -0.9375 0.40625q-0.390625 0.390625 -0.390625 1.03125q0 0.671875 0.40625 1.078125q0.40625 0.40625 1.125 0.40625l-0.09375 0.96875q-1.078125 -0.09375 -1.640625 -0.734375q-0.5625 -0.65625 -0.5625 -1.734375q0 -1.109375 0.609375 -1.75q0.609375 -0.640625 1.5 -0.640625q0.46875 0 0.90625 0.1875q0.4375 0.1875 0.9375 0.625q0.484375 0.4375 1.328125 1.453125q0.71875 0.828125 0.96875 1.078125q0.25 0.234375 0.5 0.390625l0 -3.734375z" fill-rule="nonzero"/><path fill="#000000" fill-opacity="0.0" d="m280.063 312.9106l0 -32.456024l0.06298828 0l0 -32.45735" fill-rule="evenodd"/><path stroke="#000000" stroke-width="1.0" stroke-linejoin="round" stroke-linecap="butt" d="m280.063 312.9106l0 -32.456024l0.06298828 0l0 -26.457352" fill-rule="evenodd"/><path fill="#000000" stroke="#000000" stroke-width="1.0" stroke-linecap="butt" d="m281.7777 253.99724l-1.6517334 -4.538101l-1.6517334 4.538101z" fill-rule="evenodd"/><path fill="#cccccc" d="m62.062992 67.38976l294.83466 0l0 311.1181l-294.83466 0z" fill-rule="evenodd"/><path stroke="#000000" stroke-width="1.0" stroke-linejoin="round" stroke-linecap="butt" d="m62.062992 67.38976l294.83466 0l0 311.1181l-294.83466 0z" fill-rule="evenodd"/><path fill="#000000" d="m71.79737 85.34976l0 -6.671875l2.953125 0q0.90625 0 1.359375 0.1875q0.46875 0.171875 0.75 0.625q0.28125 0.453125 0.28125 1.0q0 0.71875 -0.46875 1.203125q-0.453125 0.484375 -1.421875 0.625q0.359375 0.15625 0.53125 0.328125q0.390625 0.359375 0.734375 0.890625l1.171875 1.8125l-1.125 0l-0.875 -1.390625q-0.390625 -0.59375 -0.640625 -0.90625q-0.25 -0.328125 -0.453125 -0.453125q-0.1875 -0.140625 -0.390625 -0.1875q-0.15625 -0.03125 -0.5 -0.03125l-1.03125 0l0 2.96875l-0.875 0zm0.875 -3.734375l1.90625 0q0.609375 0 0.953125 -0.125q0.34375 -0.125 0.515625 -0.390625q0.171875 -0.28125 0.171875 -0.609375q0 -0.46875 -0.34375 -0.765625q-0.34375 -0.3125 -1.078125 -0.3125l-2.125 0l0 2.203125zm9.048981 2.171875l0.84375 0.109375q-0.1875 0.75 -0.734375 1.15625q-0.546875 0.40625 -1.390625 0.40625q-1.0625 0 -1.6875 -0.65625q-0.609375 -0.65625 -0.609375 -1.828125q0 -1.21875 0.625 -1.890625q0.625 -0.6875 1.625 -0.6875q0.984375 0 1.59375 0.671875q0.609375 0.65625 0.609375 1.859375q0 0.0625 0 0.21875l-3.609375 0q0.046875 0.796875 0.453125 1.21875q0.40625 0.421875 1.015625 0.421875q0.453125 0 0.765625 -0.234375q0.3125 -0.234375 0.5 -0.765625zm-2.6875 -1.328125l2.703125 0q-0.0625 -0.609375 -0.3125 -0.90625q-0.390625 -0.46875 -1.015625 -0.46875q-0.5625 0 -0.953125 0.375q-0.375 0.375 -0.421875 1.0zm4.234741 1.453125l0.8125 -0.140625q0.078125 0.5 0.390625 0.765625q0.3125 0.25 0.859375 0.25q0.578125 0 0.84375 -0.234375q0.28125 -0.234375 0.28125 -0.53125q0 -0.28125 -0.25 -0.4375q-0.171875 -0.109375 -0.84375 -0.28125q-0.890625 -0.234375 -1.25 -0.390625q-0.34375 -0.171875 -0.53125 -0.46875q-0.171875 -0.296875 -0.171875 -0.640625q0 -0.328125 0.140625 -0.59375q0.15625 -0.28125 0.40625 -0.46875q0.203125 -0.140625 0.53125 -0.234375q0.328125 -0.109375 0.703125 -0.109375q0.578125 0 1.0 0.171875q0.4375 0.15625 0.640625 0.4375q0.203125 0.28125 0.28125 0.75l-0.796875 0.109375q-0.0625 -0.375 -0.328125 -0.578125q-0.265625 -0.203125 -0.734375 -0.203125q-0.5625 0 -0.8125 0.1875q-0.234375 0.171875 -0.234375 0.4375q0 0.15625 0.09375 0.28125q0.109375 0.125 0.3125 0.21875q0.125 0.046875 0.734375 0.203125q0.859375 0.234375 1.203125 0.390625q0.34375 0.140625 0.53125 0.421875q0.203125 0.28125 0.203125 0.703125q0 0.40625 -0.234375 0.78125q-0.234375 0.359375 -0.6875 0.5625q-0.453125 0.1875 -1.015625 0.1875q-0.953125 0 -1.453125 -0.390625q-0.484375 -0.390625 -0.625 -1.15625zm5.0078125 -4.296875l0 -0.9375l0.8125 0l0 0.9375l-0.8125 0zm0 5.734375l0 -4.84375l0.8125 0l0 4.84375l-0.8125 0zm5.197418 0l0 -0.609375q-0.453125 0.71875 -1.34375 0.71875q-0.578125 0 -1.0625 -0.3125q-0.484375 -0.328125 -0.765625 -0.890625q-0.265625 -0.578125 -0.265625 -1.3125q0 -0.734375 0.234375 -1.3125q0.25 -0.59375 0.734375 -0.90625q0.484375 -0.328125 1.078125 -0.328125q0.4375 0 0.78125 0.1875q0.34375 0.1875 0.5625 0.484375l0 -2.390625l0.8125 0l0 6.671875l-0.765625 0zm-2.59375 -2.40625q0 0.921875 0.390625 1.390625q0.390625 0.453125 0.9375 0.453125q0.53125 0 0.90625 -0.4375q0.375 -0.4375 0.375 -1.34375q0 -1.0 -0.390625 -1.453125q-0.375 -0.46875 -0.9375 -0.46875q-0.546875 0 -0.921875 0.453125q-0.359375 0.4375 -0.359375 1.40625zm7.812866 2.40625l0 -0.703125q-0.5625 0.8125 -1.53125 0.8125q-0.421875 0 -0.796875 -0.15625q-0.375 -0.171875 -0.5625 -0.421875q-0.171875 -0.25 -0.25 -0.609375q-0.046875 -0.234375 -0.046875 -0.765625l0 -3.0l0.828125 0l0 2.6875q0 0.640625 0.046875 0.875q0.078125 0.3125 0.328125 0.5q0.25 0.1875 0.609375 0.1875q0.375 0 0.703125 -0.1875q0.328125 -0.1875 0.453125 -0.515625q0.140625 -0.328125 0.140625 -0.953125l0 -2.59375l0.8125 0l0 4.84375l-0.734375 0zm5.172241 -0.59375q-0.453125 0.390625 -0.875 0.546875q-0.421875 0.15625 -0.90625 0.15625q-0.796875 0 -1.21875 -0.390625q-0.421875 -0.390625 -0.421875 -1.0q0 -0.34375 0.15625 -0.640625q0.15625 -0.296875 0.421875 -0.46875q0.265625 -0.1875 0.59375 -0.28125q0.234375 -0.0625 0.71875 -0.109375q1.0 -0.125 1.46875 -0.28125q0 -0.171875 0 -0.21875q0 -0.5 -0.234375 -0.703125q-0.3125 -0.28125 -0.921875 -0.28125q-0.578125 0 -0.859375 0.203125q-0.28125 0.203125 -0.40625 0.71875l-0.796875 -0.109375q0.109375 -0.515625 0.359375 -0.828125q0.25 -0.328125 0.71875 -0.5q0.46875 -0.171875 1.09375 -0.171875q0.625 0 1.0 0.15625q0.390625 0.140625 0.578125 0.359375q0.1875 0.21875 0.25 0.5625q0.046875 0.203125 0.046875 0.75l0 1.09375q0 1.140625 0.046875 1.453125q0.0625 0.296875 0.21875 0.578125l-0.859375 0q-0.125 -0.25 -0.171875 -0.59375zm-0.0625 -1.828125q-0.453125 0.171875 -1.34375 0.296875q-0.5 0.078125 -0.71875 0.171875q-0.203125 0.09375 -0.3125 0.265625q-0.109375 0.171875 -0.109375 0.390625q0 0.328125 0.234375 0.546875q0.25 0.21875 0.734375 0.21875q0.46875 0 0.828125 -0.203125q0.375 -0.21875 0.5625 -0.578125q0.125 -0.265625 0.125 -0.8125l0 -0.296875zm2.0784912 2.421875l0 -6.671875l0.828125 0l0 6.671875l-0.828125 0zm4.7578278 0l0 -6.671875l2.5 0q0.765625 0 1.21875 0.203125q0.46875 0.203125 0.734375 0.625q0.265625 0.421875 0.265625 0.875q0 0.421875 -0.234375 0.8125q-0.234375 0.375 -0.703125 0.609375q0.609375 0.171875 0.921875 0.609375q0.328125 0.421875 0.328125 1.0q0 0.46875 -0.203125 0.875q-0.1875 0.40625 -0.484375 0.625q-0.28125 0.21875 -0.734375 0.328125q-0.4375 0.109375 -1.0625 0.109375l-2.546875 0zm0.875 -3.875l1.453125 0q0.578125 0 0.84375 -0.078125q0.328125 -0.09375 0.5 -0.328125q0.171875 -0.234375 0.171875 -0.578125q0 -0.34375 -0.15625 -0.59375q-0.15625 -0.25 -0.453125 -0.34375q-0.296875 -0.09375 -1.015625 -0.09375l-1.34375 0l0 2.015625zm0 3.09375l1.671875 0q0.421875 0 0.59375 -0.03125q0.3125 -0.0625 0.515625 -0.1875q0.203125 -0.125 0.328125 -0.359375q0.140625 -0.25 0.140625 -0.578125q0 -0.375 -0.203125 -0.640625q-0.1875 -0.28125 -0.53125 -0.390625q-0.328125 -0.109375 -0.96875 -0.109375l-1.546875 0l0 2.296875zm5.2530365 0.78125l0 -6.671875l0.828125 0l0 6.671875l-0.828125 0zm1.7911682 -2.421875q0 -1.34375 0.75 -1.984375q0.625 -0.546875 1.515625 -0.546875q1.0 0 1.625 0.65625q0.640625 0.65625 0.640625 1.8125q0 0.9375 -0.28125 1.46875q-0.28125 0.53125 -0.8125 0.828125q-0.53125 0.296875 -1.171875 0.296875q-1.015625 0 -1.640625 -0.640625q-0.625 -0.65625 -0.625 -1.890625zm0.84375 0q0 0.9375 0.40625 1.40625q0.40625 0.453125 1.015625 0.453125q0.609375 0 1.015625 -0.46875q0.40625 -0.46875 0.40625 -1.421875q0 -0.890625 -0.40625 -1.34375q-0.40625 -0.46875 -1.015625 -0.46875q-0.609375 0 -1.015625 0.46875q-0.40625 0.453125 -0.40625 1.375zm7.797241 0.65625l0.8124924 0.09375q-0.12499237 0.84375 -0.6718674 1.3125q-0.546875 0.46875 -1.34375 0.46875q-0.984375 0 -1.59375 -0.640625q-0.609375 -0.65625 -0.609375 -1.875q0 -0.78125 0.265625 -1.359375q0.265625 -0.59375 0.78125 -0.890625q0.53125 -0.296875 1.15625 -0.296875q0.796875 0 1.296875 0.40625q0.5 0.390625 0.640625 1.125l-0.796875 0.125q-0.109375 -0.484375 -0.40625 -0.71875q-0.28125 -0.25 -0.703125 -0.25q-0.609375 0 -1.0 0.4375q-0.390625 0.4375 -0.390625 1.40625q0 0.96875 0.375 1.421875q0.375 0.4375 0.984375 0.4375q0.46875 0 0.796875 -0.296875q0.328125 -0.296875 0.40625 -0.90625zm1.5234299 1.765625l0 -6.671875l0.8125 0l0 3.796875l1.9375 -1.96875l1.0625 0l-1.84375 1.796875l2.03125 3.046875l-1.015625 0l-1.59375 -2.46875l-0.578125 0.546875l0 1.921875l-0.8125 0z" fill-rule="nonzero"/><path fill="#003366" d="m229.48032 312.9106l101.165344 0l0 48.81891l-101.165344 0z" fill-rule="evenodd"/><path stroke="#000000" stroke-width="1.0" stroke-linejoin="round" stroke-linecap="butt" d="m229.48032 312.9106l101.165344 0l0 48.81891l-101.165344 0z" fill-rule="evenodd"/><path fill="#ffffff" d="m273.11865 324.82443l1.125 0.296875q-0.359375 1.390625 -1.28125 2.125q-0.921875 0.734375 -2.265625 0.734375q-1.390625 0 -2.265625 -0.5625q-0.875 -0.5625 -1.328125 -1.625q-0.453125 -1.078125 -0.453125 -2.3125q0 -1.34375 0.515625 -2.34375q0.515625 -1.0 1.453125 -1.515625q0.953125 -0.515625 2.09375 -0.515625q1.28125 0 2.15625 0.65625q0.890625 0.65625 1.234375 1.84375l-1.125 0.265625q-0.296875 -0.9375 -0.875 -1.359375q-0.5625 -0.4375 -1.421875 -0.4375q-0.984375 0 -1.65625 0.484375q-0.65625 0.46875 -0.9375 1.265625q-0.265625 0.796875 -0.265625 1.65625q0 1.09375 0.3125 1.90625q0.328125 0.8125 1.0 1.21875q0.671875 0.40625 1.46875 0.40625q0.953125 0 1.609375 -0.546875q0.671875 -0.546875 0.90625 -1.640625zm2.0097656 -0.09375q0 -1.734375 0.953125 -2.5625q0.796875 -0.6875 1.953125 -0.6875q1.28125 0 2.09375 0.84375q0.828125 0.828125 0.828125 2.3125q0 1.203125 -0.359375 1.890625q-0.359375 0.6875 -1.0625 1.078125q-0.6875 0.375 -1.5 0.375q-1.296875 0 -2.109375 -0.828125q-0.796875 -0.84375 -0.796875 -2.421875zm1.078125 0q0 1.1875 0.515625 1.78125q0.53125 0.59375 1.3125 0.59375q0.796875 0 1.3125 -0.59375q0.515625 -0.59375 0.515625 -1.8125q0 -1.15625 -0.53125 -1.75q-0.515625 -0.59375 -1.296875 -0.59375q-0.78125 0 -1.3125 0.59375q-0.515625 0.578125 -0.515625 1.78125zm5.986328 3.109375l0 -6.21875l0.9375 0l0 0.875q0.6875 -1.015625 1.984375 -1.015625q0.5625 0 1.03125 0.203125q0.484375 0.203125 0.71875 0.53125q0.234375 0.328125 0.328125 0.765625q0.046875 0.296875 0.046875 1.03125l0 3.828125l-1.046875 0l0 -3.78125q0 -0.65625 -0.125 -0.96875q-0.125 -0.3125 -0.4375 -0.5q-0.3125 -0.203125 -0.734375 -0.203125q-0.671875 0 -1.171875 0.4375q-0.484375 0.421875 -0.484375 1.609375l0 3.40625l-1.046875 0zm8.392578 0l-2.359375 -6.21875l1.109375 0l1.34375 3.71875q0.203125 0.609375 0.390625 1.25q0.140625 -0.484375 0.390625 -1.171875l1.390625 -3.796875l1.078125 0l-2.359375 6.21875l-0.984375 0z" fill-rule="nonzero"/><path fill="#ffffff" d="m245.70166 341.84006l-1.90625 -6.21875l1.09375 0l0.984375 3.59375l0.375 1.328125q0.03125 -0.09375 0.328125 -1.28125l0.984375 -3.640625l1.078125 0l0.9375 3.609375l0.3125 1.1875l0.359375 -1.203125l1.0625 -3.59375l1.03125 0l-1.953125 6.21875l-1.09375 0l-0.984375 -3.734375l-0.25 -1.046875l-1.25 4.78125l-1.109375 0zm7.5253906 -7.375l0 -1.21875l1.0625 0l0 1.21875l-1.0625 0zm0 7.375l0 -6.21875l1.0625 0l0 6.21875l-1.0625 0zm4.9628906 -0.9375l0.15625 0.921875q-0.453125 0.09375 -0.796875 0.09375q-0.578125 0 -0.890625 -0.171875q-0.3125 -0.1875 -0.453125 -0.484375q-0.125 -0.296875 -0.125 -1.25l0 -3.578125l-0.765625 0l0 -0.8125l0.765625 0l0 -1.546875l1.046875 -0.625l0 2.171875l1.0625 0l0 0.8125l-1.0625 0l0 3.640625q0 0.453125 0.046875 0.578125q0.0625 0.125 0.1875 0.203125q0.125 0.078125 0.359375 0.078125q0.1875 0 0.46875 -0.03125zm1.0371094 0.9375l0 -8.59375l1.046875 0l0 3.078125q0.734375 -0.84375 1.859375 -0.84375q0.703125 0 1.203125 0.28125q0.515625 0.265625 0.734375 0.75q0.21875 0.46875 0.21875 1.390625l0 3.9375l-1.046875 0l0 -3.9375q0 -0.796875 -0.34375 -1.15625q-0.34375 -0.359375 -0.96875 -0.359375q-0.46875 0 -0.890625 0.25q-0.40625 0.234375 -0.59375 0.65625q-0.171875 0.40625 -0.171875 1.140625l0 3.40625l-1.046875 0zm5.689453 2.390625l0 -0.765625l7.0 0l0 0.765625l-7.0 0zm8.626953 -2.390625l-0.984375 0l0 -8.59375l1.0625 0l0 3.0625q0.671875 -0.828125 1.703125 -0.828125q0.578125 0 1.078125 0.234375q0.515625 0.21875 0.84375 0.640625q0.34375 0.421875 0.53125 1.015625q0.1875 0.59375 0.1875 1.265625q0 1.59375 -0.796875 2.46875q-0.796875 0.875 -1.890625 0.875q-1.109375 0 -1.734375 -0.921875l0 0.78125zm-0.015625 -3.15625q0 1.109375 0.3125 1.609375q0.5 0.8125 1.34375 0.8125q0.6875 0 1.1875 -0.59375q0.515625 -0.59375 0.515625 -1.796875q0 -1.21875 -0.484375 -1.796875q-0.484375 -0.578125 -1.171875 -0.578125q-0.6875 0 -1.203125 0.609375q-0.5 0.59375 -0.5 1.734375zm5.720703 3.15625l0 -6.21875l0.9375 0l0 0.875q0.6875 -1.015625 1.984375 -1.015625q0.5625 0 1.03125 0.203125q0.484375 0.203125 0.71875 0.53125q0.234375 0.328125 0.328125 0.765625q0.046875 0.296875 0.046875 1.03125l0 3.828125l-1.046875 0l0 -3.78125q0 -0.65625 -0.125 -0.96875q-0.125 -0.3125 -0.4375 -0.5q-0.3125 -0.203125 -0.734375 -0.203125q-0.671875 0 -1.171875 0.4375q-0.484375 0.421875 -0.484375 1.609375l0 3.40625l-1.046875 0zm12.220703 -5.046875l-5.671875 0l0 -0.984375l5.671875 0l0 0.984375zm0 2.609375l-5.671875 0l0 -0.984375l5.671875 0l0 0.984375zm3.7734375 2.4375l0 -7.578125l-2.828125 0l0 -1.015625l6.8125 0l0 1.015625l-2.84375 0l0 7.578125l-1.140625 0zm4.5566406 0l0 -6.21875l0.953125 0l0 0.9375q0.359375 -0.65625 0.65625 -0.859375q0.3125 -0.21875 0.6875 -0.21875q0.53125 0 1.078125 0.328125l-0.359375 0.984375q-0.390625 -0.234375 -0.765625 -0.234375q-0.359375 0 -0.640625 0.21875q-0.265625 0.203125 -0.375 0.578125q-0.1875 0.5625 -0.1875 1.21875l0 3.265625l-1.046875 0zm8.089844 0l0 -0.921875q-0.734375 1.0625 -1.984375 1.0625q-0.546875 0 -1.03125 -0.203125q-0.46875 -0.21875 -0.703125 -0.53125q-0.234375 -0.328125 -0.328125 -0.796875q-0.0625 -0.296875 -0.0625 -0.984375l0 -3.84375l1.0625 0l0 3.453125q0 0.8125 0.0625 1.109375q0.09375 0.40625 0.40625 0.65625q0.328125 0.234375 0.8125 0.234375q0.46875 0 0.875 -0.234375q0.421875 -0.25 0.59375 -0.671875q0.1875 -0.421875 0.1875 -1.21875l0 -3.328125l1.046875 0l0 6.21875l-0.9375 0zm6.845703 -2.0l1.09375 0.125q-0.25 0.953125 -0.953125 1.484375q-0.703125 0.53125 -1.78125 0.53125q-1.359375 0 -2.171875 -0.84375q-0.796875 -0.84375 -0.796875 -2.359375q0 -1.5625 0.8125 -2.421875q0.8125 -0.875 2.09375 -0.875q1.25 0 2.03125 0.84375q0.796875 0.84375 0.796875 2.390625q0 0.09375 0 0.28125l-4.640625 0q0.0625 1.03125 0.578125 1.578125q0.515625 0.53125 1.296875 0.53125q0.578125 0 0.984375 -0.296875q0.421875 -0.3125 0.65625 -0.96875zm-3.453125 -1.703125l3.46875 0q-0.0625 -0.796875 -0.390625 -1.1875q-0.515625 -0.609375 -1.3125 -0.609375q-0.734375 0 -1.234375 0.484375q-0.484375 0.484375 -0.53125 1.3125z" fill-rule="nonzero"/><path fill="#ffffff" d="m244.37158 355.84006l-1.90625 -6.21875l1.09375 0l0.984375 3.59375l0.375 1.328125q0.03125 -0.09375 0.328125 -1.28125l0.984375 -3.640625l1.078125 0l0.9375 3.609375l0.3125 1.1875l0.359375 -1.203125l1.0625 -3.59375l1.03125 0l-1.953125 6.21875l-1.09375 0l-0.984375 -3.734375l-0.25 -1.046875l-1.25 4.78125l-1.109375 0zm7.5253906 -7.375l0 -1.21875l1.0625 0l0 1.21875l-1.0625 0zm0 7.375l0 -6.21875l1.0625 0l0 6.21875l-1.0625 0zm4.9628906 -0.9375l0.15625 0.921875q-0.453125 0.09375 -0.796875 0.09375q-0.578125 0 -0.890625 -0.171875q-0.3125 -0.1875 -0.453125 -0.484375q-0.125 -0.296875 -0.125 -1.25l0 -3.578125l-0.765625 0l0 -0.8125l0.765625 0l0 -1.546875l1.046875 -0.625l0 2.171875l1.0625 0l0 0.8125l-1.0625 0l0 3.640625q0 0.453125 0.046875 0.578125q0.0625 0.125 0.1875 0.203125q0.125 0.078125 0.359375 0.078125q0.1875 0 0.46875 -0.03125zm1.0371094 0.9375l0 -8.59375l1.046875 0l0 3.078125q0.734375 -0.84375 1.859375 -0.84375q0.703125 0 1.203125 0.28125q0.515625 0.265625 0.734375 0.75q0.21875 0.46875 0.21875 1.390625l0 3.9375l-1.046875 0l0 -3.9375q0 -0.796875 -0.34375 -1.15625q-0.34375 -0.359375 -0.96875 -0.359375q-0.46875 0 -0.890625 0.25q-0.40625 0.234375 -0.59375 0.65625q-0.171875 0.40625 -0.171875 1.140625l0 3.40625l-1.046875 0zm5.689453 2.390625l0 -0.765625l7.0 0l0 0.765625l-7.0 0zm11.720703 -3.15625q-0.59375 0.5 -1.140625 0.703125q-0.53125 0.203125 -1.15625 0.203125q-1.03125 0 -1.578125 -0.5q-0.546875 -0.5 -0.546875 -1.28125q0 -0.453125 0.203125 -0.828125q0.203125 -0.390625 0.546875 -0.609375q0.34375 -0.234375 0.765625 -0.34375q0.296875 -0.09375 0.9375 -0.171875q1.265625 -0.140625 1.875 -0.359375q0 -0.21875 0 -0.265625q0 -0.65625 -0.296875 -0.921875q-0.40625 -0.34375 -1.203125 -0.34375q-0.734375 0 -1.09375 0.265625q-0.359375 0.25 -0.53125 0.90625l-1.03125 -0.140625q0.140625 -0.65625 0.46875 -1.0625q0.328125 -0.40625 0.9375 -0.625q0.609375 -0.21875 1.40625 -0.21875q0.796875 0 1.296875 0.1875q0.5 0.1875 0.734375 0.46875q0.234375 0.28125 0.328125 0.71875q0.046875 0.265625 0.046875 0.96875l0 1.40625q0 1.46875 0.0625 1.859375q0.078125 0.390625 0.28125 0.75l-1.109375 0q-0.15625 -0.328125 -0.203125 -0.765625zm-0.09375 -2.359375q-0.578125 0.234375 -1.71875 0.40625q-0.65625 0.09375 -0.921875 0.21875q-0.265625 0.109375 -0.421875 0.328125q-0.140625 0.21875 -0.140625 0.5q0 0.421875 0.3125 0.703125q0.328125 0.28125 0.9375 0.28125q0.609375 0 1.078125 -0.265625q0.484375 -0.265625 0.703125 -0.734375q0.171875 -0.359375 0.171875 -1.046875l0 -0.390625zm6.767578 0.84375l1.03125 0.140625q-0.171875 1.0625 -0.875 1.671875q-0.703125 0.609375 -1.71875 0.609375q-1.28125 0 -2.0625 -0.828125q-0.765625 -0.84375 -0.765625 -2.40625q0 -1.0 0.328125 -1.75q0.34375 -0.765625 1.015625 -1.140625q0.6875 -0.375 1.5 -0.375q1.0 0 1.640625 0.515625q0.65625 0.5 0.84375 1.453125l-1.03125 0.15625q-0.140625 -0.625 -0.515625 -0.9375q-0.375 -0.328125 -0.90625 -0.328125q-0.796875 0 -1.296875 0.578125q-0.5 0.5625 -0.5 1.796875q0 1.265625 0.484375 1.828125q0.484375 0.5625 1.25 0.5625q0.625 0 1.03125 -0.375q0.421875 -0.375 0.546875 -1.171875zm4.234375 1.34375l0.15625 0.921875q-0.453125 0.09375 -0.796875 0.09375q-0.578125 0 -0.890625 -0.171875q-0.3125 -0.1875 -0.453125 -0.484375q-0.125 -0.296875 -0.125 -1.25l0 -3.578125l-0.765625 0l0 -0.8125l0.765625 0l0 -1.546875l1.046875 -0.625l0 2.171875l1.0625 0l0 0.8125l-1.0625 0l0 3.640625q0 0.453125 0.046875 0.578125q0.0625 0.125 0.1875 0.203125q0.125 0.078125 0.359375 0.078125q0.1875 0 0.46875 -0.03125zm6.5839844 -4.109375l-5.671875 0l0 -0.984375l5.671875 0l0 0.984375zm0 2.609375l-5.671875 0l0 -0.984375l5.671875 0l0 0.984375zm3.7734375 2.4375l0 -7.578125l-2.828125 0l0 -1.015625l6.8125 0l0 1.015625l-2.84375 0l0 7.578125l-1.140625 0zm4.5566406 0l0 -6.21875l0.953125 0l0 0.9375q0.359375 -0.65625 0.65625 -0.859375q0.3125 -0.21875 0.6875 -0.21875q0.53125 0 1.078125 0.328125l-0.359375 0.984375q-0.390625 -0.234375 -0.765625 -0.234375q-0.359375 0 -0.640625 0.21875q-0.265625 0.203125 -0.375 0.578125q-0.1875 0.5625 -0.1875 1.21875l0 3.265625l-1.046875 0zm8.089844 0l0 -0.921875q-0.734375 1.0625 -1.984375 1.0625q-0.546875 0 -1.03125 -0.203125q-0.46875 -0.21875 -0.703125 -0.53125q-0.234375 -0.328125 -0.328125 -0.796875q-0.0625 -0.296875 -0.0625 -0.984375l0 -3.84375l1.0625 0l0 3.453125q0 0.8125 0.0625 1.109375q0.09375 0.40625 0.40625 0.65625q0.328125 0.234375 0.8125 0.234375q0.46875 0 0.875 -0.234375q0.421875 -0.25 0.59375 -0.671875q0.1875 -0.421875 0.1875 -1.21875l0 -3.328125l1.046875 0l0 6.21875l-0.9375 0zm6.845703 -2.0l1.09375 0.125q-0.25 0.953125 -0.953125 1.484375q-0.703125 0.53125 -1.78125 0.53125q-1.359375 0 -2.171875 -0.84375q-0.796875 -0.84375 -0.796875 -2.359375q0 -1.5625 0.8125 -2.421875q0.8125 -0.875 2.09375 -0.875q1.25 0 2.03125 0.84375q0.796875 0.84375 0.796875 2.390625q0 0.09375 0 0.28125l-4.640625 0q0.0625 1.03125 0.578125 1.578125q0.515625 0.53125 1.296875 0.53125q0.578125 0 0.984375 -0.296875q0.421875 -0.3125 0.65625 -0.96875zm-3.453125 -1.703125l3.46875 0q-0.0625 -0.796875 -0.390625 -1.1875q-0.515625 -0.609375 -1.3125 -0.609375q-0.734375 0 -1.234375 0.484375q-0.484375 0.484375 -0.53125 1.3125z" fill-rule="nonzero"/><path fill="#003366" d="m229.48032 94.99489l101.165344 0l0 48.818893l-101.165344 0z" fill-rule="evenodd"/><path stroke="#000000" stroke-width="1.0" stroke-linejoin="round" stroke-linecap="butt" d="m229.48032 94.99489l101.165344 0l0 48.818893l-101.165344 0z" fill-rule="evenodd"/><path fill="#ffffff" d="m272.33405 112.86059l1.265625 0.3125q-0.390625 1.5625 -1.421875 2.375q-1.03125 0.8125 -2.53125 0.8125q-1.53125 0 -2.5 -0.625q-0.96875 -0.625 -1.484375 -1.8125q-0.5 -1.1875 -0.5 -2.5625q0 -1.484375 0.5625 -2.59375q0.578125 -1.109375 1.625 -1.6875q1.0625 -0.578125 2.328125 -0.578125q1.421875 0 2.390625 0.734375q0.984375 0.71875 1.375 2.046875l-1.25 0.296875q-0.328125 -1.046875 -0.96875 -1.515625q-0.625 -0.484375 -1.578125 -0.484375q-1.09375 0 -1.84375 0.53125q-0.734375 0.53125 -1.03125 1.421875q-0.296875 0.875 -0.296875 1.828125q0 1.21875 0.34375 2.125q0.359375 0.90625 1.109375 1.359375q0.75 0.4375 1.625 0.4375q1.0625 0 1.796875 -0.609375q0.734375 -0.609375 0.984375 -1.8125zm2.2345276 -0.109375q0 -1.921875 1.078125 -2.84375q0.890625 -0.765625 2.171875 -0.765625q1.421875 0 2.328125 0.9375q0.90625 0.921875 0.90625 2.578125q0 1.328125 -0.40625 2.09375q-0.390625 0.765625 -1.15625 1.1875q-0.765625 0.421875 -1.671875 0.421875q-1.453125 0 -2.359375 -0.921875q-0.890625 -0.9375 -0.890625 -2.6875zm1.203125 0q0 1.328125 0.578125 1.984375q0.59375 0.65625 1.46875 0.65625q0.875 0 1.453125 -0.65625q0.578125 -0.671875 0.578125 -2.03125q0 -1.28125 -0.59375 -1.9375q-0.578125 -0.65625 -1.4375 -0.65625q-0.875 0 -1.46875 0.65625q-0.578125 0.65625 -0.578125 1.984375zm6.6468506 3.453125l0 -6.90625l1.0625 0l0 0.984375q0.75 -1.140625 2.1875 -1.140625q0.625 0 1.15625 0.21875q0.53125 0.21875 0.78125 0.59375q0.265625 0.359375 0.375 0.859375q0.0625 0.328125 0.0625 1.140625l0 4.25l-1.171875 0l0 -4.203125q0 -0.71875 -0.140625 -1.0625q-0.140625 -0.359375 -0.484375 -0.5625q-0.34375 -0.21875 -0.8125 -0.21875q-0.75 0 -1.296875 0.46875q-0.546875 0.46875 -0.546875 1.796875l0 3.78125l-1.171875 0zm9.334351 0l-2.625 -6.90625l1.234375 0l1.484375 4.140625q0.234375 0.65625 0.4375 1.390625q0.15625 -0.546875 0.4375 -1.3125l1.5312195 -4.21875l1.21875 0l-2.6249695 6.90625l-1.09375 0z" fill-rule="nonzero"/><path fill="#ffffff" d="m241.90303 132.20435l-2.125 -6.9062576l1.21875 0l1.09375 3.9843826l0.421875 1.484375q0.015625 -0.109375 0.359375 -1.421875l1.09375 -4.0468826l1.203125 0l1.03125 4.0000076l0.34375 1.328125l0.40625 -1.34375l1.171875 -3.9843826l1.140625 0l-2.15625 6.9062576l-1.21875 0l-1.09375 -4.140625l-0.265625 -1.1718826l-1.40625 5.3125076l-1.21875 0zm8.359528 -8.187508l0 -1.359375l1.171875 0l0 1.359375l-1.171875 0zm0 8.187508l0 -6.9062576l1.171875 0l0 6.9062576l-1.171875 0zm5.507965 -1.046875l0.171875 1.03125q-0.5 0.109375 -0.890625 0.109375q-0.640625 0 -1.0 -0.203125q-0.34375 -0.203125 -0.484375 -0.53125q-0.140625 -0.328125 -0.140625 -1.390625l0 -3.9687576l-0.859375 0l0 -0.90625l0.859375 0l0 -1.71875l1.171875 -0.703125l0 2.421875l1.171875 0l0 0.90625l-1.171875 0l0 4.0468826q0 0.5 0.046875 0.640625q0.0625 0.140625 0.203125 0.234375q0.140625 0.078125 0.40625 0.078125q0.203125 0 0.515625 -0.046875zm1.1404877 1.046875l0 -9.546883l1.171875 0l0 3.421875q0.828125 -0.9375 2.078125 -0.9375q0.765625 0 1.328125 0.296875q0.5625 0.296875 0.8125 0.84375q0.25 0.53125 0.25 1.546875l0 4.3750076l-1.171875 0l0 -4.3750076q0 -0.890625 -0.390625 -1.28125q-0.375 -0.40625 -1.078125 -0.40625q-0.515625 0 -0.984375 0.28125q-0.453125 0.265625 -0.65625 0.734375q-0.1875 0.453125 -0.1875 1.2656326l0 3.78125l-1.171875 0zm6.3343506 2.65625l0 -0.859375l7.765625 0l0 0.859375l-7.765625 0zm9.568726 -2.65625l-1.078125 0l0 -9.546883l1.171875 0l0 3.40625q0.734375 -0.921875 1.890625 -0.921875q0.640625 0 1.203125 0.265625q0.578125 0.25 0.9375 0.71875q0.375 0.453125 0.578125 1.109375q0.203125 0.65625 0.203125 1.4062576q0 1.78125 -0.875 2.75q-0.875 0.96875 -2.109375 0.96875q-1.21875 0 -1.921875 -1.015625l0 0.859375zm0 -3.5q0 1.234375 0.328125 1.78125q0.5625 0.90625 1.5 0.90625q0.765625 0 1.328125 -0.65625q0.5625 -0.671875 0.5625 -2.0q0 -1.3437576 -0.546875 -1.9843826q-0.53125 -0.65625 -1.296875 -0.65625q-0.765625 0 -1.328125 0.671875q-0.546875 0.671875 -0.546875 1.9375076zm6.3343506 3.5l0 -6.9062576l1.0625 0l0 0.984375q0.75 -1.140625 2.1875 -1.140625q0.625 0 1.15625 0.21875q0.53125 0.21875 0.78125 0.59375q0.265625 0.359375 0.375 0.859375q0.0625 0.328125 0.0625 1.140625l0 4.2500076l-1.171875 0l0 -4.203125q0 -0.7187576 -0.140625 -1.0625076q-0.140625 -0.359375 -0.484375 -0.5625q-0.34375 -0.21875 -0.8125 -0.21875q-0.75 0 -1.296875 0.46875q-0.546875 0.46875 -0.546875 1.7968826l0 3.78125l-1.171875 0zm13.584351 -5.6093826l-6.3125 0l0 -1.09375l6.3125 0l0 1.09375zm0 2.8906326l-6.3125 0l0 -1.09375l6.3125 0l0 1.09375zm4.1896667 2.71875l0 -8.421883l-3.140625 0l0 -1.125l7.5625 0l0 1.125l-3.15625 0l0 8.421883l-1.265625 0zm5.0527954 0l0 -6.9062576l1.0625 0l0 1.046875q0.40625 -0.734375 0.734375 -0.96875q0.34375 -0.234375 0.765625 -0.234375q0.59375 0 1.203125 0.375l-0.40625 1.078125q-0.4375 -0.25 -0.859375 -0.25q-0.390625 0 -0.703125 0.234375q-0.296875 0.234375 -0.421875 0.640625q-0.203125 0.625 -0.203125 1.3593826l0 3.625l-1.171875 0zm8.98526 0l0 -1.015625q-0.8125 1.171875 -2.1875 1.171875q-0.609375 0 -1.140625 -0.234375q-0.53125 -0.234375 -0.796875 -0.578125q-0.25 -0.359375 -0.359375 -0.875q-0.0625 -0.34375 -0.0625 -1.09375l0 -4.2812576l1.171875 0l0 3.8281326q0 0.921875 0.0625 1.234375q0.109375 0.46875 0.46875 0.734375q0.359375 0.25 0.890625 0.25q0.515625 0 0.984375 -0.265625q0.46875 -0.265625 0.65625 -0.734375q0.1875 -0.46875 0.1875 -1.34375l0 -3.7031326l1.171875 0l0 6.9062576l-1.046875 0zm7.6156006 -2.21875l1.203125 0.140625q-0.28125 1.0625 -1.0625 1.65625q-0.765625 0.578125 -1.96875 0.578125q-1.515625 0 -2.40625 -0.9375q-0.890625 -0.9375 -0.890625 -2.609375q0 -1.7500076 0.890625 -2.7031326q0.90625 -0.96875 2.34375 -0.96875q1.390625 0 2.265625 0.9375q0.875 0.9375 0.875 2.6562576q0 0.109375 0 0.3125l-5.15625 0q0.0625 1.140625 0.640625 1.75q0.578125 0.59375 1.4375 0.59375q0.65625 0 1.109375 -0.328125q0.453125 -0.34375 0.71875 -1.078125zm-3.84375 -1.90625l3.859375 0q-0.078125 -0.8593826 -0.4375 -1.2968826q-0.5625 -0.6875 -1.453125 -0.6875q-0.8125 0 -1.359375 0.546875q-0.546875 0.53125 -0.609375 1.4375076z" fill-rule="nonzero"/><path fill="#003366" d="m87.11286 312.89517l101.16535 0l0 48.81888l-101.16535 0z" fill-rule="evenodd"/><path stroke="#000000" stroke-width="1.0" stroke-linejoin="round" stroke-linecap="butt" d="m87.11286 312.89517l101.16535 0l0 48.81888l-101.16535 0z" fill-rule="evenodd"/><path fill="#ffffff" d="m129.96658 330.76086l1.265625 0.3125q-0.390625 1.5625 -1.421875 2.375q-1.03125 0.8125 -2.5312576 0.8125q-1.53125 0 -2.5 -0.625q-0.96875 -0.625 -1.484375 -1.8125q-0.5 -1.1875 -0.5 -2.5625q0 -1.484375 0.5625 -2.59375q0.578125 -1.109375 1.625 -1.6875q1.0625 -0.578125 2.328125 -0.578125q1.4218826 0 2.3906326 0.734375q0.984375 0.71875 1.375 2.046875l-1.25 0.296875q-0.328125 -1.046875 -0.96875 -1.515625q-0.625 -0.484375 -1.5781326 -0.484375q-1.09375 0 -1.84375 0.53125q-0.734375 0.53125 -1.03125 1.421875q-0.296875 0.875 -0.296875 1.828125q0 1.21875 0.34375 2.125q0.359375 0.90625 1.109375 1.359375q0.75 0.4375 1.625 0.4375q1.0625076 0 1.7968826 -0.609375q0.734375 -0.609375 0.984375 -1.8125zm2.2345276 -0.109375q0 -1.921875 1.078125 -2.84375q0.890625 -0.765625 2.171875 -0.765625q1.421875 0 2.328125 0.9375q0.90625 0.921875 0.90625 2.578125q0 1.328125 -0.40625 2.09375q-0.390625 0.765625 -1.15625 1.1875q-0.765625 0.421875 -1.671875 0.421875q-1.453125 0 -2.359375 -0.921875q-0.890625 -0.9375 -0.890625 -2.6875zm1.203125 0q0 1.328125 0.578125 1.984375q0.59375 0.65625 1.46875 0.65625q0.875 0 1.453125 -0.65625q0.578125 -0.671875 0.578125 -2.03125q0 -1.28125 -0.59375 -1.9375q-0.578125 -0.65625 -1.4375 -0.65625q-0.875 0 -1.46875 0.65625q-0.578125 0.65625 -0.578125 1.984375zm6.6468506 3.453125l0 -6.90625l1.0625 0l0 0.984375q0.75 -1.140625 2.1875 -1.140625q0.625 0 1.15625 0.21875q0.53125 0.21875 0.78125 0.59375q0.265625 0.359375 0.375 0.859375q0.0625 0.328125 0.0625 1.140625l0 4.25l-1.171875 0l0 -4.203125q0 -0.71875 -0.140625 -1.0625q-0.140625 -0.359375 -0.484375 -0.5625q-0.34375 -0.21875 -0.8125 -0.21875q-0.75 0 -1.296875 0.46875q-0.546875 0.46875 -0.546875 1.796875l0 3.78125l-1.171875 0zm9.334351 0l-2.625 -6.90625l1.234375 0l1.484375 4.140625q0.234375 0.65625 0.4375 1.390625q0.15625 -0.546875 0.4375 -1.3125l1.5312347 -4.21875l1.21875 0l-2.6249847 6.90625l-1.09375 0z" fill-rule="nonzero"/><path fill="#ffffff" d="m99.53557 350.1046l-2.125 -6.90625l1.21875 0l1.09375 3.984375l0.421875 1.484375q0.015625 -0.109375 0.359375 -1.421875l1.09375 -4.046875l1.203125 0l1.03125 4.0l0.34375 1.328125l0.40625 -1.34375l1.171875 -3.984375l1.140625 0l-2.15625 6.90625l-1.21875 0l-1.09375 -4.140625l-0.265625 -1.171875l-1.40625 5.3125l-1.21875 0zm8.359528 -8.1875l0 -1.359375l1.171875 0l0 1.359375l-1.171875 0zm0 8.1875l0 -6.90625l1.171875 0l0 6.90625l-1.171875 0zm5.507965 -1.046875l0.171875 1.03125q-0.5 0.109375 -0.890625 0.109375q-0.640625 0 -1.0 -0.203125q-0.34375 -0.203125 -0.484375 -0.53125q-0.140625 -0.328125 -0.140625 -1.390625l0 -3.96875l-0.859375 0l0 -0.90625l0.859375 0l0 -1.71875l1.171875 -0.703125l0 2.421875l1.171875 0l0 0.90625l-1.171875 0l0 4.046875q0 0.5 0.046875 0.640625q0.0625 0.140625 0.203125 0.234375q0.140625 0.078125 0.40625 0.078125q0.203125 0 0.515625 -0.046875zm1.1404877 1.046875l0 -9.546875l1.171875 0l0 3.421875q0.828125 -0.9375 2.078125 -0.9375q0.765625 0 1.328125 0.296875q0.5625 0.296875 0.8125 0.84375q0.25 0.53125 0.25 1.546875l0 4.375l-1.171875 0l0 -4.375q0 -0.890625 -0.390625 -1.28125q-0.375 -0.40625 -1.078125 -0.40625q-0.515625 0 -0.984375 0.28125q-0.453125 0.265625 -0.65625 0.734375q-0.1875 0.453125 -0.1875 1.265625l0 3.78125l-1.171875 0zm6.3343506 2.65625l0 -0.859375l7.765625 0l0 0.859375l-7.765625 0zm9.568726 -2.65625l-1.078125 0l0 -9.546875l1.171875 0l0 3.40625q0.734375 -0.921875 1.890625 -0.921875q0.640625 0 1.203125 0.265625q0.578125 0.25 0.9375 0.71875q0.375 0.453125 0.578125 1.109375q0.203125 0.65625 0.203125 1.40625q0 1.78125 -0.875 2.75q-0.875 0.96875 -2.109375 0.96875q-1.21875 0 -1.921875 -1.015625l0 0.859375zm0 -3.5q0 1.234375 0.328125 1.78125q0.5625 0.90625 1.5 0.90625q0.765625 0 1.328125 -0.65625q0.5625 -0.671875 0.5625 -2.0q0 -1.34375 -0.546875 -1.984375q-0.53125 -0.65625 -1.296875 -0.65625q-0.765625 0 -1.328125 0.671875q-0.546875 0.671875 -0.546875 1.9375zm6.3343506 3.5l0 -6.90625l1.0625 0l0 0.984375q0.75 -1.140625 2.1875 -1.140625q0.625 0 1.15625 0.21875q0.53125 0.21875 0.78125 0.59375q0.265625 0.359375 0.375 0.859375q0.0625 0.328125 0.0625 1.140625l0 4.25l-1.171875 0l0 -4.203125q0 -0.71875 -0.140625 -1.0625q-0.140625 -0.359375 -0.484375 -0.5625q-0.34375 -0.21875 -0.8125 -0.21875q-0.75 0 -1.296875 0.46875q-0.546875 0.46875 -0.546875 1.796875l0 3.78125l-1.171875 0zm13.584351 -5.609375l-6.3125 0l0 -1.09375l6.3125 0l0 1.09375zm0 2.890625l-6.3125 0l0 -1.09375l6.3125 0l0 1.09375zm4.1896667 2.71875l0 -8.421875l-3.140625 0l0 -1.125l7.5625 0l0 1.125l-3.15625 0l0 8.421875l-1.265625 0zm5.0528107 0l0 -6.90625l1.0625 0l0 1.046875q0.40625 -0.734375 0.734375 -0.96875q0.34375 -0.234375 0.765625 -0.234375q0.59375 0 1.203125 0.375l-0.40625 1.078125q-0.4375 -0.25 -0.859375 -0.25q-0.390625 0 -0.703125 0.234375q-0.296875 0.234375 -0.421875 0.640625q-0.203125 0.625 -0.203125 1.359375l0 3.625l-1.171875 0zm8.985245 0l0 -1.015625q-0.8125 1.171875 -2.1875 1.171875q-0.609375 0 -1.140625 -0.234375q-0.53125 -0.234375 -0.796875 -0.578125q-0.25 -0.359375 -0.359375 -0.875q-0.0625 -0.34375 -0.0625 -1.09375l0 -4.28125l1.171875 0l0 3.828125q0 0.921875 0.0625 1.234375q0.109375 0.46875 0.46875 0.734375q0.359375 0.25 0.890625 0.25q0.515625 0 0.984375 -0.265625q0.46875 -0.265625 0.65625 -0.734375q0.1875 -0.46875 0.1875 -1.34375l0 -3.703125l1.171875 0l0 6.90625l-1.046875 0zm7.6156006 -2.21875l1.203125 0.140625q-0.28125 1.0625 -1.0625 1.65625q-0.765625 0.578125 -1.96875 0.578125q-1.515625 0 -2.40625 -0.9375q-0.890625 -0.9375 -0.890625 -2.609375q0 -1.75 0.890625 -2.703125q0.90625 -0.96875 2.34375 -0.96875q1.390625 0 2.265625 0.9375q0.875 0.9375 0.875 2.65625q0 0.109375 0 0.3125l-5.15625 0q0.0625 1.140625 0.640625 1.75q0.578125 0.59375 1.4375 0.59375q0.65625 0 1.109375 -0.328125q0.453125 -0.34375 0.71875 -1.078125zm-3.84375 -1.90625l3.859375 0q-0.078125 -0.859375 -0.4375 -1.296875q-0.5625 -0.6875 -1.453125 -0.6875q-0.8125 0 -1.359375 0.546875q-0.546875 0.53125 -0.609375 1.4375z" fill-rule="nonzero"/><path fill="#003366" d="m229.48032 199.17966l101.165344 0l0 48.818893l-101.165344 0z" fill-rule="evenodd"/><path stroke="#000000" stroke-width="1.0" stroke-linejoin="round" stroke-linecap="butt" d="m229.48032 199.17966l101.165344 0l0 48.818893l-101.165344 0z" fill-rule="evenodd"/><path fill="#ffffff" d="m273.11865 211.09348l1.125 0.296875q-0.359375 1.390625 -1.28125 2.125q-0.921875 0.734375 -2.265625 0.734375q-1.390625 0 -2.265625 -0.5625q-0.875 -0.5625 -1.328125 -1.625q-0.453125 -1.078125 -0.453125 -2.3125q0 -1.34375 0.515625 -2.34375q0.515625 -1.0 1.453125 -1.515625q0.953125 -0.515625 2.09375 -0.515625q1.28125 0 2.15625 0.65625q0.890625 0.65625 1.234375 1.84375l-1.125 0.265625q-0.296875 -0.9375 -0.875 -1.359375q-0.5625 -0.4375 -1.421875 -0.4375q-0.984375 0 -1.65625 0.484375q-0.65625 0.46875 -0.9375 1.265625q-0.265625 0.796875 -0.265625 1.65625q0 1.09375 0.3125 1.90625q0.328125 0.8125 1.0 1.21875q0.671875 0.40625 1.46875 0.40625q0.953125 0 1.609375 -0.546875q0.671875 -0.546875 0.90625 -1.640625zm2.0097656 -0.09375q0 -1.734375 0.953125 -2.5625q0.796875 -0.6875 1.953125 -0.6875q1.28125 0 2.09375 0.84375q0.828125 0.828125 0.828125 2.3125q0 1.203125 -0.359375 1.890625q-0.359375 0.6875 -1.0625 1.078125q-0.6875 0.375 -1.5 0.375q-1.296875 0 -2.109375 -0.828125q-0.796875 -0.84375 -0.796875 -2.421875zm1.078125 0q0 1.1875 0.515625 1.78125q0.53125 0.59375 1.3125 0.59375q0.796875 0 1.3125 -0.59375q0.515625 -0.59375 0.515625 -1.8125q0 -1.15625 -0.53125 -1.75q-0.515625 -0.59375 -1.296875 -0.59375q-0.78125 0 -1.3125 0.59375q-0.515625 0.578125 -0.515625 1.78125zm5.986328 3.109375l0 -6.21875l0.9375 0l0 0.875q0.6875 -1.015625 1.984375 -1.015625q0.5625 0 1.03125 0.203125q0.484375 0.203125 0.71875 0.53125q0.234375 0.328125 0.328125 0.765625q0.046875 0.296875 0.046875 1.03125l0 3.828125l-1.046875 0l0 -3.78125q0 -0.65625 -0.125 -0.96875q-0.125 -0.3125 -0.4375 -0.5q-0.3125 -0.203125 -0.734375 -0.203125q-0.671875 0 -1.171875 0.4375q-0.484375 0.421875 -0.484375 1.609375l0 3.40625l-1.046875 0zm8.392578 0l-2.359375 -6.21875l1.109375 0l1.34375 3.71875q0.203125 0.609375 0.390625 1.25q0.140625 -0.484375 0.390625 -1.171875l1.390625 -3.796875l1.078125 0l-2.359375 6.21875l-0.984375 0z" fill-rule="nonzero"/><path fill="#ffffff" d="m245.70166 228.1091l-1.90625 -6.21875l1.09375 0l0.984375 3.59375l0.375 1.328125q0.03125 -0.09375 0.328125 -1.28125l0.984375 -3.640625l1.078125 0l0.9375 3.609375l0.3125 1.1875l0.359375 -1.203125l1.0625 -3.59375l1.03125 0l-1.953125 6.21875l-1.09375 0l-0.984375 -3.734375l-0.25 -1.046875l-1.25 4.78125l-1.109375 0zm7.5253906 -7.375l0 -1.21875l1.0625 0l0 1.21875l-1.0625 0zm0 7.375l0 -6.21875l1.0625 0l0 6.21875l-1.0625 0zm4.9628906 -0.9375l0.15625 0.921875q-0.453125 0.09375 -0.796875 0.09375q-0.578125 0 -0.890625 -0.171875q-0.3125 -0.1875 -0.453125 -0.484375q-0.125 -0.296875 -0.125 -1.25l0 -3.578125l-0.765625 0l0 -0.8125l0.765625 0l0 -1.546875l1.046875 -0.625l0 2.171875l1.0625 0l0 0.8125l-1.0625 0l0 3.640625q0 0.453125 0.046875 0.578125q0.0625 0.125 0.1875 0.203125q0.125 0.078125 0.359375 0.078125q0.1875 0 0.46875 -0.03125zm1.0371094 0.9375l0 -8.59375l1.046875 0l0 3.078125q0.734375 -0.84375 1.859375 -0.84375q0.703125 0 1.203125 0.28125q0.515625 0.265625 0.734375 0.75q0.21875 0.46875 0.21875 1.390625l0 3.9375l-1.046875 0l0 -3.9375q0 -0.796875 -0.34375 -1.15625q-0.34375 -0.359375 -0.96875 -0.359375q-0.46875 0 -0.890625 0.25q-0.40625 0.234375 -0.59375 0.65625q-0.171875 0.40625 -0.171875 1.140625l0 3.40625l-1.046875 0zm5.689453 2.390625l0 -0.765625l7.0 0l0 0.765625l-7.0 0zm8.626953 -2.390625l-0.984375 0l0 -8.59375l1.0625 0l0 3.0625q0.671875 -0.828125 1.703125 -0.828125q0.578125 0 1.078125 0.234375q0.515625 0.21875 0.84375 0.640625q0.34375 0.421875 0.53125 1.015625q0.1875 0.59375 0.1875 1.265625q0 1.59375 -0.796875 2.46875q-0.796875 0.875 -1.890625 0.875q-1.109375 0 -1.734375 -0.921875l0 0.78125zm-0.015625 -3.15625q0 1.109375 0.3125 1.609375q0.5 0.8125 1.34375 0.8125q0.6875 0 1.1875 -0.59375q0.515625 -0.59375 0.515625 -1.796875q0 -1.21875 -0.484375 -1.796875q-0.484375 -0.578125 -1.171875 -0.578125q-0.6875 0 -1.203125 0.609375q-0.5 0.59375 -0.5 1.734375zm5.720703 3.15625l0 -6.21875l0.9375 0l0 0.875q0.6875 -1.015625 1.984375 -1.015625q0.5625 0 1.03125 0.203125q0.484375 0.203125 0.71875 0.53125q0.234375 0.328125 0.328125 0.765625q0.046875 0.296875 0.046875 1.03125l0 3.828125l-1.046875 0l0 -3.78125q0 -0.65625 -0.125 -0.96875q-0.125 -0.3125 -0.4375 -0.5q-0.3125 -0.203125 -0.734375 -0.203125q-0.671875 0 -1.171875 0.4375q-0.484375 0.421875 -0.484375 1.609375l0 3.40625l-1.046875 0zm12.220703 -5.046875l-5.671875 0l0 -0.984375l5.671875 0l0 0.984375zm0 2.609375l-5.671875 0l0 -0.984375l5.671875 0l0 0.984375zm3.7734375 2.4375l0 -7.578125l-2.828125 0l0 -1.015625l6.8125 0l0 1.015625l-2.84375 0l0 7.578125l-1.140625 0zm4.5566406 0l0 -6.21875l0.953125 0l0 0.9375q0.359375 -0.65625 0.65625 -0.859375q0.3125 -0.21875 0.6875 -0.21875q0.53125 0 1.078125 0.328125l-0.359375 0.984375q-0.390625 -0.234375 -0.765625 -0.234375q-0.359375 0 -0.640625 0.21875q-0.265625 0.203125 -0.375 0.578125q-0.1875 0.5625 -0.1875 1.21875l0 3.265625l-1.046875 0zm8.089844 0l0 -0.921875q-0.734375 1.0625 -1.984375 1.0625q-0.546875 0 -1.03125 -0.203125q-0.46875 -0.21875 -0.703125 -0.53125q-0.234375 -0.328125 -0.328125 -0.796875q-0.0625 -0.296875 -0.0625 -0.984375l0 -3.84375l1.0625 0l0 3.453125q0 0.8125 0.0625 1.109375q0.09375 0.40625 0.40625 0.65625q0.328125 0.234375 0.8125 0.234375q0.46875 0 0.875 -0.234375q0.421875 -0.25 0.59375 -0.671875q0.1875 -0.421875 0.1875 -1.21875l0 -3.328125l1.046875 0l0 6.21875l-0.9375 0zm6.845703 -2.0l1.09375 0.125q-0.25 0.953125 -0.953125 1.484375q-0.703125 0.53125 -1.78125 0.53125q-1.359375 0 -2.171875 -0.84375q-0.796875 -0.84375 -0.796875 -2.359375q0 -1.5625 0.8125 -2.421875q0.8125 -0.875 2.09375 -0.875q1.25 0 2.03125 0.84375q0.796875 0.84375 0.796875 2.390625q0 0.09375 0 0.28125l-4.640625 0q0.0625 1.03125 0.578125 1.578125q0.515625 0.53125 1.296875 0.53125q0.578125 0 0.984375 -0.296875q0.421875 -0.3125 0.65625 -0.96875zm-3.453125 -1.703125l3.46875 0q-0.0625 -0.796875 -0.390625 -1.1875q-0.515625 -0.609375 -1.3125 -0.609375q-0.734375 0 -1.234375 0.484375q-0.484375 0.484375 -0.53125 1.3125z" fill-rule="nonzero"/><path fill="#ffffff" d="m244.37158 242.1091l-1.90625 -6.21875l1.09375 0l0.984375 3.59375l0.375 1.328125q0.03125 -0.09375 0.328125 -1.28125l0.984375 -3.640625l1.078125 0l0.9375 3.609375l0.3125 1.1875l0.359375 -1.203125l1.0625 -3.59375l1.03125 0l-1.953125 6.21875l-1.09375 0l-0.984375 -3.734375l-0.25 -1.046875l-1.25 4.78125l-1.109375 0zm7.5253906 -7.375l0 -1.21875l1.0625 0l0 1.21875l-1.0625 0zm0 7.375l0 -6.21875l1.0625 0l0 6.21875l-1.0625 0zm4.9628906 -0.9375l0.15625 0.921875q-0.453125 0.09375 -0.796875 0.09375q-0.578125 0 -0.890625 -0.171875q-0.3125 -0.1875 -0.453125 -0.484375q-0.125 -0.296875 -0.125 -1.25l0 -3.578125l-0.765625 0l0 -0.8125l0.765625 0l0 -1.546875l1.046875 -0.625l0 2.171875l1.0625 0l0 0.8125l-1.0625 0l0 3.640625q0 0.453125 0.046875 0.578125q0.0625 0.125 0.1875 0.203125q0.125 0.078125 0.359375 0.078125q0.1875 0 0.46875 -0.03125zm1.0371094 0.9375l0 -8.59375l1.046875 0l0 3.078125q0.734375 -0.84375 1.859375 -0.84375q0.703125 0 1.203125 0.28125q0.515625 0.265625 0.734375 0.75q0.21875 0.46875 0.21875 1.390625l0 3.9375l-1.046875 0l0 -3.9375q0 -0.796875 -0.34375 -1.15625q-0.34375 -0.359375 -0.96875 -0.359375q-0.46875 0 -0.890625 0.25q-0.40625 0.234375 -0.59375 0.65625q-0.171875 0.40625 -0.171875 1.140625l0 3.40625l-1.046875 0zm5.689453 2.390625l0 -0.765625l7.0 0l0 0.765625l-7.0 0zm11.720703 -3.15625q-0.59375 0.5 -1.140625 0.703125q-0.53125 0.203125 -1.15625 0.203125q-1.03125 0 -1.578125 -0.5q-0.546875 -0.5 -0.546875 -1.28125q0 -0.453125 0.203125 -0.828125q0.203125 -0.390625 0.546875 -0.609375q0.34375 -0.234375 0.765625 -0.34375q0.296875 -0.09375 0.9375 -0.171875q1.265625 -0.140625 1.875 -0.359375q0 -0.21875 0 -0.265625q0 -0.65625 -0.296875 -0.921875q-0.40625 -0.34375 -1.203125 -0.34375q-0.734375 0 -1.09375 0.265625q-0.359375 0.25 -0.53125 0.90625l-1.03125 -0.140625q0.140625 -0.65625 0.46875 -1.0625q0.328125 -0.40625 0.9375 -0.625q0.609375 -0.21875 1.40625 -0.21875q0.796875 0 1.296875 0.1875q0.5 0.1875 0.734375 0.46875q0.234375 0.28125 0.328125 0.71875q0.046875 0.265625 0.046875 0.96875l0 1.40625q0 1.46875 0.0625 1.859375q0.078125 0.390625 0.28125 0.75l-1.109375 0q-0.15625 -0.328125 -0.203125 -0.765625zm-0.09375 -2.359375q-0.578125 0.234375 -1.71875 0.40625q-0.65625 0.09375 -0.921875 0.21875q-0.265625 0.109375 -0.421875 0.328125q-0.140625 0.21875 -0.140625 0.5q0 0.421875 0.3125 0.703125q0.328125 0.28125 0.9375 0.28125q0.609375 0 1.078125 -0.265625q0.484375 -0.265625 0.703125 -0.734375q0.171875 -0.359375 0.171875 -1.046875l0 -0.390625zm6.767578 0.84375l1.03125 0.140625q-0.171875 1.0625 -0.875 1.671875q-0.703125 0.609375 -1.71875 0.609375q-1.28125 0 -2.0625 -0.828125q-0.765625 -0.84375 -0.765625 -2.40625q0 -1.0 0.328125 -1.75q0.34375 -0.765625 1.015625 -1.140625q0.6875 -0.375 1.5 -0.375q1.0 0 1.640625 0.515625q0.65625 0.5 0.84375 1.453125l-1.03125 0.15625q-0.140625 -0.625 -0.515625 -0.9375q-0.375 -0.328125 -0.90625 -0.328125q-0.796875 0 -1.296875 0.578125q-0.5 0.5625 -0.5 1.796875q0 1.265625 0.484375 1.828125q0.484375 0.5625 1.25 0.5625q0.625 0 1.03125 -0.375q0.421875 -0.375 0.546875 -1.171875zm4.234375 1.34375l0.15625 0.921875q-0.453125 0.09375 -0.796875 0.09375q-0.578125 0 -0.890625 -0.171875q-0.3125 -0.1875 -0.453125 -0.484375q-0.125 -0.296875 -0.125 -1.25l0 -3.578125l-0.765625 0l0 -0.8125l0.765625 0l0 -1.546875l1.046875 -0.625l0 2.171875l1.0625 0l0 0.8125l-1.0625 0l0 3.640625q0 0.453125 0.046875 0.578125q0.0625 0.125 0.1875 0.203125q0.125 0.078125 0.359375 0.078125q0.1875 0 0.46875 -0.03125zm6.5839844 -4.109375l-5.671875 0l0 -0.984375l5.671875 0l0 0.984375zm0 2.609375l-5.671875 0l0 -0.984375l5.671875 0l0 0.984375zm3.7734375 2.4375l0 -7.578125l-2.828125 0l0 -1.015625l6.8125 0l0 1.015625l-2.84375 0l0 7.578125l-1.140625 0zm4.5566406 0l0 -6.21875l0.953125 0l0 0.9375q0.359375 -0.65625 0.65625 -0.859375q0.3125 -0.21875 0.6875 -0.21875q0.53125 0 1.078125 0.328125l-0.359375 0.984375q-0.390625 -0.234375 -0.765625 -0.234375q-0.359375 0 -0.640625 0.21875q-0.265625 0.203125 -0.375 0.578125q-0.1875 0.5625 -0.1875 1.21875l0 3.265625l-1.046875 0zm8.089844 0l0 -0.921875q-0.734375 1.0625 -1.984375 1.0625q-0.546875 0 -1.03125 -0.203125q-0.46875 -0.21875 -0.703125 -0.53125q-0.234375 -0.328125 -0.328125 -0.796875q-0.0625 -0.296875 -0.0625 -0.984375l0 -3.84375l1.0625 0l0 3.453125q0 0.8125 0.0625 1.109375q0.09375 0.40625 0.40625 0.65625q0.328125 0.234375 0.8125 0.234375q0.46875 0 0.875 -0.234375q0.421875 -0.25 0.59375 -0.671875q0.1875 -0.421875 0.1875 -1.21875l0 -3.328125l1.046875 0l0 6.21875l-0.9375 0zm6.845703 -2.0l1.09375 0.125q-0.25 0.953125 -0.953125 1.484375q-0.703125 0.53125 -1.78125 0.53125q-1.359375 0 -2.171875 -0.84375q-0.796875 -0.84375 -0.796875 -2.359375q0 -1.5625 0.8125 -2.421875q0.8125 -0.875 2.09375 -0.875q1.25 0 2.03125 0.84375q0.796875 0.84375 0.796875 2.390625q0 0.09375 0 0.28125l-4.640625 0q0.0625 1.03125 0.578125 1.578125q0.515625 0.53125 1.296875 0.53125q0.578125 0 0.984375 -0.296875q0.421875 -0.3125 0.65625 -0.96875zm-3.453125 -1.703125l3.46875 0q-0.0625 -0.796875 -0.390625 -1.1875q-0.515625 -0.609375 -1.3125 -0.609375q-0.734375 0 -1.234375 0.484375q-0.484375 0.484375 -0.53125 1.3125z" fill-rule="nonzero"/><path fill="#000000" fill-opacity="0.0" d="m219.59532 399.97507l60.472427 0l0 -38.236237" fill-rule="evenodd"/><path stroke="#000000" stroke-width="2.0" stroke-linejoin="round" stroke-linecap="butt" d="m219.5953 399.97507l60.472443 0l0 -26.236237" fill-rule="evenodd"/><path fill="#000000" stroke="#000000" stroke-width="2.0" stroke-linecap="butt" d="m283.37122 373.73883l-3.3034668 -9.076172l-3.3034668 9.076172z" fill-rule="evenodd"/><path fill="#000000" fill-opacity="0.0" d="m199.36531 399.97507l-61.66928 0l0 -38.26773" fill-rule="evenodd"/><path stroke="#000000" stroke-width="2.0" stroke-linejoin="round" stroke-linecap="butt" d="m199.36533 399.97507l-61.66931 0l0 -26.26773" fill-rule="evenodd"/><path fill="#000000" stroke="#000000" stroke-width="2.0" stroke-linecap="butt" d="m140.99948 373.70734l-3.3034668 -9.076172l-3.3034668 9.076172z" fill-rule="evenodd"/><path fill="#000000" fill-opacity="0.0" d="m280.063 312.9106l0 -64.913376" fill-rule="evenodd"/><path stroke="#000000" stroke-width="2.0" stroke-linejoin="round" stroke-linecap="butt" d="m280.063 312.9106l0 -52.91339" fill-rule="evenodd"/><path fill="#000000" stroke="#000000" stroke-width="2.0" stroke-linecap="butt" d="m283.36646 259.99722l-3.3034668 -9.076187l-3.3034668 9.076187z" fill-rule="evenodd"/><path fill="#000000" fill-opacity="0.0" d="m280.063 199.17966l0 -55.370087" fill-rule="evenodd"/><path stroke="#000000" stroke-width="2.0" stroke-linejoin="round" stroke-linecap="butt" d="m280.063 199.17964l0 -43.370056" fill-rule="evenodd"/><path fill="#000000" stroke="#000000" stroke-width="2.0" stroke-linecap="butt" d="m283.36646 155.80957l-3.3034668 -9.076187l-3.3034668 9.076187z" fill-rule="evenodd"/><path fill="#000000" fill-opacity="0.0" d="m209.48032 35.80757l0 -17.889765" fill-rule="evenodd"/><path stroke="#000000" stroke-width="2.0" stroke-linejoin="round" stroke-linecap="butt" d="m209.48032 35.80757l0 -5.889765" fill-rule="evenodd"/><path fill="#000000" stroke="#000000" stroke-width="2.0" stroke-linecap="butt" d="m212.78378 29.917807l-3.3034668 -9.076195l-3.3034668 9.076195z" fill-rule="evenodd"/><path fill="#000000" fill-opacity="0.0" d="m137.69554 312.89517l0 -266.96063l61.66928 0" fill-rule="evenodd"/><path stroke="#000000" stroke-width="2.0" stroke-linejoin="round" stroke-linecap="butt" d="m137.69554 312.89514l0 -266.9606l49.66928 0" fill-rule="evenodd"/><path fill="#000000" stroke="#000000" stroke-width="2.0" stroke-linecap="butt" d="m187.36482 49.238003l9.076202 -3.3034668l-9.076202 -3.303463z" fill-rule="evenodd"/><path fill="#000000" fill-opacity="0.0" d="m110.16798 251.22047l0 -122.77165l27.527565 0l0 122.77165z" fill-rule="evenodd"/><path fill="#000000" d="m129.40797 235.49231l-7.6249924 0l0 -3.375q0 -1.015625 0.203125 -1.546875q0.203125 -0.53125 0.734375 -0.84375q0.515625 -0.328125 1.140625 -0.328125q0.8125 0 1.375 0.53125q0.546875 0.515625 0.703125 1.625q0.1875 -0.40625 0.375 -0.609375q0.40625 -0.453125 1.015625 -0.84375l2.0781174 -1.328125l0 1.265625l-1.5937424 1.015625q-0.6875 0.4375 -1.046875 0.734375q-0.359375 0.28125 -0.5 0.515625q-0.15625 0.21875 -0.203125 0.453125q-0.046875 0.171875 -0.046875 0.5625l0 1.171875l3.3906174 0l0 1.0zm-4.2656174 -1.0l0 -2.171875q0 -0.6875 -0.140625 -1.078125q-0.140625 -0.390625 -0.453125 -0.59375q-0.3125 -0.203125 -0.6875 -0.203125q-0.546875 0 -0.890625 0.390625q-0.34375 0.390625 -0.34375 1.234375l0 2.421875l2.515625 0zm2.484375 -10.336227l0.125 -0.96875q0.8437424 0.234375 1.3124924 0.859375q0.46875 0.609375 0.46875 1.578125q0 1.203125 -0.75 1.921875q-0.75 0.703125 -2.0937424 0.703125q-1.390625 0 -2.15625 -0.71875q-0.78125 -0.71875 -0.78125 -1.859375q0 -1.109375 0.765625 -1.8125q0.75 -0.703125 2.125 -0.703125q0.078125 0 0.234375 0l0 4.125q0.921875 -0.046875 1.4062424 -0.515625q0.484375 -0.46875 0.484375 -1.15625q0 -0.515625 -0.265625 -0.875q-0.28125 -0.359375 -0.8749924 -0.578125zm-1.515625 3.078125l0 -3.09375q-0.6875 0.0625 -1.046875 0.359375q-0.53125 0.453125 -0.53125 1.15625q0 0.640625 0.4375 1.09375q0.421875 0.4375 1.140625 0.484375zm1.640625 -4.8483734l-0.140625 -0.921875q0.5624924 -0.078125 0.8593674 -0.4375q0.296875 -0.359375 0.296875 -1.0q0 -0.640625 -0.265625 -0.953125q-0.265625 -0.3125 -0.6249924 -0.3125q-0.3125 0 -0.5 0.28125q-0.125 0.1875 -0.3125 0.953125q-0.265625 1.03125 -0.453125 1.4375q-0.1875 0.390625 -0.515625 0.59375q-0.34375 0.203125 -0.75 0.203125q-0.359375 0 -0.671875 -0.171875q-0.328125 -0.171875 -0.53125 -0.453125q-0.15625 -0.21875 -0.265625 -0.59375q-0.125 -0.390625 -0.125 -0.8125q0 -0.65625 0.1875 -1.140625q0.1875 -0.5 0.515625 -0.734375q0.3125 -0.234375 0.859375 -0.3125l0.125 0.90625q-0.4375 0.0625 -0.671875 0.375q-0.234375 0.296875 -0.234375 0.828125q0 0.65625 0.21875 0.9375q0.203125 0.265625 0.484375 0.265625q0.1875 0 0.328125 -0.109375q0.15625 -0.125 0.25 -0.359375q0.0625 -0.140625 0.25 -0.828125q0.265625 -1.0 0.4375 -1.390625q0.15625 -0.390625 0.484375 -0.609375q0.3125 -0.234375 0.796875 -0.234375q0.46874237 0 0.8906174 0.28125q0.40625 0.265625 0.640625 0.78125q0.21875 0.515625 0.21875 1.171875q0 1.078125 -0.4375 1.640625q-0.453125 0.5625 -1.3437424 0.71875zm-4.890625 -5.703125l-1.078125 0l0 -0.9375l1.078125 0l0 0.9375zm6.5468674 0l-5.5312424 0l0 -0.9375l5.5312424 0l0 0.9375zm0 -5.9456024l-0.703125 0q0.828125 0.515625 0.828125 1.546875q0 0.65625 -0.359375 1.21875q-0.375 0.546875 -1.015625 0.859375q-0.6562424 0.296875 -1.4999924 0.296875q-0.828125 0 -1.5 -0.28125q-0.6875 -0.28125 -1.046875 -0.828125q-0.359375 -0.546875 -0.359375 -1.234375q0 -0.5 0.21875 -0.890625q0.203125 -0.390625 0.546875 -0.625l-2.734375 0l0 -0.9375l7.6249924 0l0 0.875zm-2.7499924 2.953125q1.046875 0 1.5781174 -0.4375q0.53125 -0.453125 0.53125 -1.0625q0 -0.609375 -0.5 -1.03125q-0.5156174 -0.4375 -1.5312424 -0.4375q-1.140625 0 -1.671875 0.4375q-0.53125 0.4375 -0.53125 1.078125q0 0.609375 0.515625 1.03125q0.5 0.421875 1.609375 0.421875zm2.7499924 -8.926498l-0.8125 0q0.9375 0.65625 0.9375 1.75q0 0.5 -0.1875 0.921875q-0.1875 0.421875 -0.46875 0.625q-0.28125 0.203125 -0.703125 0.296875q-0.26561737 0.046875 -0.8749924 0.046875l-3.421875 0l0 -0.9375l3.0625 0q0.734375 0 1.0 -0.046875q0.35936737 -0.09375 0.5781174 -0.375q0.203125 -0.296875 0.203125 -0.703125q0 -0.421875 -0.203125 -0.796875q-0.21875 -0.375 -0.5937424 -0.515625q-0.375 -0.15625 -1.078125 -0.15625l-2.96875 0l0 -0.9375l5.5312424 0l0 0.828125zm-0.6875 -5.9108734q0.453125 0.53125 0.640625 1.015625q0.171875 0.46875 0.171875 1.015625q0 0.921875 -0.4375 1.40625q-0.453125 0.484375 -1.1406174 0.484375q-0.40625 0 -0.734375 -0.171875q-0.34375 -0.1875 -0.546875 -0.484375q-0.203125 -0.3125 -0.3125 -0.6875q-0.0625 -0.265625 -0.140625 -0.828125q-0.125 -1.125 -0.3125 -1.671875q-0.203125 0 -0.25 0q-0.578125 0 -0.8125 0.265625q-0.3125 0.359375 -0.3125 1.0625q0 0.65625 0.234375 0.984375q0.234375 0.3125 0.8125 0.453125l-0.125 0.921875q-0.578125 -0.125 -0.9375 -0.40625q-0.375 -0.296875 -0.5625 -0.828125q-0.203125 -0.546875 -0.203125 -1.25q0 -0.71875 0.171875 -1.15625q0.171875 -0.4375 0.421875 -0.640625q0.25 -0.21875 0.640625 -0.296875q0.234375 -0.046875 0.859375 -0.046875l1.25 0q1.2968674 0 1.6562424 -0.0625q0.34375 -0.0625 0.65625 -0.234375l0 0.96875q-0.296875 0.15625 -0.6875 0.1875zm-2.0781174 0.078125q0.203125 0.515625 0.34375 1.53125q0.078125 0.578125 0.1875 0.828125q0.109375 0.234375 0.3125 0.359375q0.1875 0.125 0.4375 0.125q0.37499237 0 0.6249924 -0.28125q0.25 -0.28125 0.25 -0.828125q0 -0.53125 -0.234375 -0.953125q-0.234375 -0.421875 -0.6562424 -0.625q-0.3125 -0.15625 -0.9375 -0.15625l-0.328125 0zm2.7656174 -2.3796234l-7.6249924 0l0 -0.9375l7.6249924 0l0 0.9375zm-2.6718674 -10.90625l0.25 -1.015625q1.2499924 0.328125 1.9062424 1.15625q0.640625 0.8125 0.640625 2.015625q0 1.234375 -0.5 2.0q-0.5 0.765625 -1.4531174 1.171875q-0.953125 0.40625 -2.046875 0.40625q-1.1875 0 -2.078125 -0.453125q-0.890625 -0.453125 -1.34375 -1.296875q-0.46875 -0.84375 -0.46875 -1.84375q0 -1.15625 0.59375 -1.9375q0.578125 -0.78125 1.640625 -1.078125l0.234375 0.984375q-0.84375 0.265625 -1.21875 0.78125q-0.375 0.5 -0.375 1.265625q0 0.875 0.421875 1.46875q0.421875 0.59375 1.140625 0.828125q0.703125 0.234375 1.453125 0.234375q0.96875 0 1.703125 -0.28125q0.71875 -0.28125 1.0781174 -0.875q0.359375 -0.59375 0.359375 -1.296875q0 -0.84375 -0.484375 -1.4375q-0.49999237 -0.59375 -1.4531174 -0.796875zm-0.09375 -1.7893524q-1.53125 0 -2.265625 -0.84375q-0.625 -0.71875 -0.625 -1.734375q0 -1.140625 0.75 -1.859375q0.75 -0.734375 2.0625 -0.734375q1.0625 0 1.6874924 0.328125q0.609375 0.3125 0.953125 0.921875q0.328125 0.609375 0.328125 1.34375q0 1.15625 -0.734375 1.875q-0.75 0.703125 -2.1562424 0.703125zm0 -0.953125q1.0625 0 1.5937424 -0.46875q0.53125 -0.46875 0.53125 -1.15625q0 -0.703125 -0.53125 -1.15625q-0.5312424 -0.46875 -1.6249924 -0.46875q-1.015625 0 -1.546875 0.46875q-0.53125 0.453125 -0.53125 1.15625q0 0.6875 0.53125 1.15625q0.515625 0.46875 1.578125 0.46875zm2.7656174 -5.3171234l-5.5312424 0l0 -0.84375l0.796875 0q-0.921875 -0.609375 -0.921875 -1.75q0 -0.5 0.1875 -0.921875q0.171875 -0.421875 0.46875 -0.625q0.296875 -0.21875 0.6875 -0.296875q0.265625 -0.046875 0.921875 -0.046875l3.3906174 0l0 0.9375l-3.3593674 0q-0.578125 0 -0.859375 0.109375q-0.28125 0.109375 -0.453125 0.390625q-0.171875 0.265625 -0.171875 0.640625q0 0.59375 0.390625 1.03125q0.375 0.4375 1.4375 0.4375l3.0156174 0l0 0.9375zm0 -5.9264984l-5.5312424 0l0 -0.84375l0.796875 0q-0.921875 -0.609375 -0.921875 -1.75q0 -0.5 0.1875 -0.921875q0.171875 -0.421875 0.46875 -0.625q0.296875 -0.21875 0.6875 -0.296875q0.265625 -0.046875 0.921875 -0.046875l3.3906174 0l0 0.9375l-3.3593674 0q-0.578125 0 -0.859375 0.109375q-0.28125 0.109375 -0.453125 0.390625q-0.171875 0.265625 -0.171875 0.640625q0 0.59375 0.390625 1.03125q0.375 0.4375 1.4375 0.4375l3.0156174 0l0 0.9375zm-1.7812424 -9.707748l0.125 -0.96875q0.8437424 0.234375 1.3124924 0.859375q0.46875 0.609375 0.46875 1.578125q0 1.203125 -0.75 1.921875q-0.75 0.703125 -2.0937424 0.703125q-1.390625 0 -2.15625 -0.71875q-0.78125 -0.71875 -0.78125 -1.859375q0 -1.109375 0.765625 -1.8125q0.75 -0.703125 2.125 -0.703125q0.078125 0 0.234375 0l0 4.125q0.921875 -0.046875 1.4062424 -0.515625q0.484375 -0.46875 0.484375 -1.15625q0 -0.515625 -0.265625 -0.875q-0.28125 -0.359375 -0.8749924 -0.578125zm-1.515625 3.078125l0 -3.09375q-0.6875 0.0625 -1.046875 0.359375q-0.53125 0.453125 -0.53125 1.15625q0 0.640625 0.4375 1.09375q0.421875 0.4375 1.140625 0.484375zm1.265625 -8.832748l0.125 -0.921875q0.9531174 0.15625 1.4999924 0.78125q0.53125 0.625 0.53125 1.53125q0 1.125 -0.734375 1.8125q-0.75 0.6875 -2.1249924 0.6875q-0.90625 0 -1.578125 -0.296875q-0.671875 -0.296875 -1.0 -0.890625q-0.34375 -0.609375 -0.34375 -1.328125q0 -0.890625 0.46875 -1.46875q0.453125 -0.578125 1.28125 -0.734375l0.140625 0.90625q-0.546875 0.140625 -0.828125 0.46875q-0.28125 0.328125 -0.28125 0.796875q0 0.703125 0.515625 1.15625q0.5 0.4375 1.59375 0.4375q1.109375 0 1.6249924 -0.421875q0.5 -0.4375 0.5 -1.125q0 -0.546875 -0.34375 -0.90625q-0.34375 -0.375 -1.0468674 -0.484375zm1.1874924 -3.765625l0.828125 -0.125q0.09375 0.390625 0.09375 0.703125q0 0.5 -0.15625 0.78125q-0.171875 0.28125 -0.4375 0.40625q-0.265625 0.109375 -1.1093674 0.109375l-3.171875 0l0 0.6875l-0.734375 0l0 -0.6875l-1.359375 0l-0.5625 -0.9375l1.921875 0l0 -0.9375l0.734375 0l0 0.9375l3.234375 0q0.39061737 0 0.5156174 -0.046875q0.109375 -0.046875 0.1875 -0.15625q0.0625 -0.109375 0.0625 -0.328125q0 -0.15625 -0.046875 -0.40625zm0.84375 -7.140045l0 0.9375l-5.9687424 0q0.328125 0.34375 0.65625 0.890625q0.3125 0.546875 0.46875 0.984375l-0.90625 0q-0.359375 -0.796875 -0.890625 -1.375q-0.53125 -0.59375 -1.015625 -0.828125l0 -0.609375l7.6562424 0z" fill-rule="nonzero"/><path fill="#000000" fill-opacity="0.0" d="m65.95407 511.74014l294.83466 0l0 30.047272l-294.83466 0z" fill-rule="evenodd"/><path fill="#000000" d="m186.9046 533.6838l0 -13.359375l9.015625 0l0 1.578125l-7.25 0l0 4.140625l6.265625 0l0 1.578125l-6.265625 0l0 6.0625l-1.765625 0zm17.427246 0l0 -1.421875q-1.125 1.640625 -3.0625 1.640625q-0.859375 0 -1.609375 -0.328125q-0.734375 -0.328125 -1.09375 -0.828125q-0.359375 -0.5 -0.5 -1.21875q-0.109375 -0.46875 -0.109375 -1.53125l0 -5.984375l1.640625 0l0 5.359375q0 1.28125 0.109375 1.734375q0.15625 0.640625 0.65625 1.015625q0.5 0.375 1.234375 0.375q0.734375 0 1.375 -0.375q0.65625 -0.390625 0.921875 -1.03125q0.265625 -0.65625 0.265625 -1.890625l0 -5.1875l1.640625 0l0 9.671875l-1.46875 0zm3.391327 -2.890625l1.625 -0.25q0.125 0.96875 0.75 1.5q0.625 0.515625 1.75 0.515625q1.125 0 1.671875 -0.453125q0.546875 -0.46875 0.546875 -1.09375q0 -0.546875 -0.484375 -0.875q-0.328125 -0.21875 -1.671875 -0.546875q-1.8125 -0.46875 -2.515625 -0.796875q-0.6875 -0.328125 -1.046875 -0.90625q-0.359375 -0.59375 -0.359375 -1.3125q0 -0.640625 0.296875 -1.1875q0.296875 -0.5625 0.8125 -0.921875q0.375 -0.28125 1.03125 -0.46875q0.671875 -0.203125 1.421875 -0.203125q1.140625 0 2.0 0.328125q0.859375 0.328125 1.265625 0.890625q0.421875 0.5625 0.578125 1.5l-1.609375 0.21875q-0.109375 -0.75 -0.640625 -1.171875q-0.515625 -0.421875 -1.46875 -0.421875q-1.140625 0 -1.625 0.375q-0.46875 0.375 -0.46875 0.875q0 0.3125 0.1875 0.578125q0.203125 0.265625 0.640625 0.4375q0.234375 0.09375 1.4375 0.421875q1.75 0.453125 2.4375 0.75q0.6875 0.296875 1.078125 0.859375q0.390625 0.5625 0.390625 1.40625q0 0.828125 -0.484375 1.546875q-0.46875 0.71875 -1.375 1.125q-0.90625 0.390625 -2.046875 0.390625q-1.875 0 -2.875 -0.78125q-0.984375 -0.78125 -1.25 -2.328125zm9.984375 -8.578125l0 -1.890625l1.640625 0l0 1.890625l-1.640625 0zm0 11.46875l0 -9.671875l1.640625 0l0 9.671875l-1.640625 0zm3.5354614 -4.84375q0 -2.6875 1.484375 -3.96875q1.25 -1.078125 3.046875 -1.078125q2.0 0 3.265625 1.3125q1.265625 1.296875 1.265625 3.609375q0 1.859375 -0.5625 2.9375q-0.5625 1.0625 -1.640625 1.65625q-1.0625 0.59375 -2.328125 0.59375q-2.03125 0 -3.28125 -1.296875q-1.25 -1.3125 -1.25 -3.765625zm1.6875 0q0 1.859375 0.796875 2.796875q0.8125 0.921875 2.046875 0.921875q1.21875 0 2.03125 -0.921875q0.8125 -0.9375 0.8125 -2.84375q0 -1.796875 -0.8125 -2.71875q-0.8125 -0.921875 -2.03125 -0.921875q-1.234375 0 -2.046875 0.921875q-0.796875 0.90625 -0.796875 2.765625zm9.297577 4.84375l0 -9.671875l1.46875 0l0 1.375q1.0625 -1.59375 3.078125 -1.59375q0.875 0 1.609375 0.3125q0.734375 0.3125 1.09375 0.828125q0.375 0.5 0.515625 1.203125q0.09375 0.453125 0.09375 1.59375l0 5.953125l-1.640625 0l0 -5.890625q0 -1.0 -0.203125 -1.484375q-0.1875 -0.5 -0.671875 -0.796875q-0.484375 -0.296875 -1.140625 -0.296875q-1.046875 0 -1.8125 0.671875q-0.75 0.65625 -0.75 2.515625l0 5.28125l-1.640625 0z" fill-rule="nonzero"/><path fill="#000000" fill-opacity="0.0" d="m199.36531 399.97507l-163.31282 0l0 -354.04724l163.37581 0" fill-rule="evenodd"/><path stroke="#000000" stroke-width="2.0" stroke-linejoin="round" stroke-linecap="butt" stroke-dasharray="8.0,6.0" d="m199.36533 399.97507l-163.31284 0l0 -354.04724l151.37582 0" fill-rule="evenodd"/><path fill="#000000" stroke="#000000" stroke-width="2.0" stroke-linecap="butt" d="m187.42831 49.231285l9.076202 -3.303463l-9.076202 -3.3034668z" fill-rule="evenodd"/><path fill="#000000" fill-opacity="0.0" d="m280.063 94.99489l0 -51.77469l-60.472443 0" fill-rule="evenodd"/><path stroke="#000000" stroke-width="2.0" stroke-linejoin="round" stroke-linecap="butt" d="m280.063 94.99488l0 -51.77468l-48.472443 0" fill-rule="evenodd"/><path fill="#000000" stroke="#000000" stroke-width="2.0" stroke-linecap="butt" d="m231.59055 39.916737l-9.076187 3.303463l9.076187 3.3034668z" fill-rule="evenodd"/><path fill="#000000" fill-opacity="0.0" d="m244.2364 16.607576l112.66142 0l0 18.601171l-112.66142 0z" fill-rule="evenodd"/><path fill="#000000" d="m256.03326 34.448162l0 -2.40625l2.40625 0l0 2.40625l-2.40625 0zm8.015625 0l0 -2.40625l2.390625 0l0 2.40625l-2.390625 0zm7.984375 0l0 -2.40625l2.421875 0l0 2.40625l-2.421875 0zm7.390625 0l0 -2.40625l2.390625 0l0 2.40625l-2.390625 0zm6.6679688 0l0 -2.40625l2.390625 0l0 2.40625l-2.390625 0zm6.6679688 0l0 -2.40625l2.390625 0l0 2.40625l-2.390625 0z" fill-rule="nonzero"/></g></svg>