<?xml version="1.0" encoding="UTF-8" standalone="no"?>
<!DOCTYPE svg PUBLIC "-//W3C//DTD SVG 1.1//EN"
 "http://www.w3.org/Graphics/SVG/1.1/DTD/svg11.dtd">
<!-- Generated by graphviz version 2.38.0 (20140413.2041)
 -->
<!-- Title: Network Visualization Pages: 1 -->
<svg width="606pt" height="1758pt"
 viewBox="0.00 0.00 606.00 1758.00" xmlns="http://www.w3.org/2000/svg" xmlns:xlink="http://www.w3.org/1999/xlink">
<g id="graph0" class="graph" transform="scale(1 1) rotate(0) translate(4 1754)">
<title>Network Visualization</title>
<polygon fill="white" stroke="none" points="-4,4 -4,-1754 602,-1754 602,4 -4,4"/>
<!-- ptb_embed_2 -->
<g id="node1" class="node"><title>ptb_embed_2</title>
<path fill="#fb8072" stroke="#941305" stroke-width="2" d="M269,-810C269,-810 199,-810 199,-810 193,-810 187,-804 187,-798 187,-798 187,-764 187,-764 187,-758 193,-752 199,-752 199,-752 269,-752 269,-752 275,-752 281,-758 281,-764 281,-764 281,-798 281,-798 281,-804 275,-810 269,-810"/>
<text text-anchor="middle" x="234" y="-788" font-family="Times,serif" font-size="10.00">ptb_embed_2</text>
<text text-anchor="middle" x="234" y="-778" font-family="Times,serif" font-size="10.00">FullyConnected</text>
<text text-anchor="middle" x="234" y="-768" font-family="Times,serif" font-size="10.00">num&#45;hidden=256</text>
</g>
<!-- ptb_lstm_2_i2h -->
<g id="node2" class="node"><title>ptb_lstm_2_i2h</title>
<path fill="#fb8072" stroke="#941305" stroke-width="2" d="M269,-904C269,-904 199,-904 199,-904 193,-904 187,-898 187,-892 187,-892 187,-858 187,-858 187,-852 193,-846 199,-846 199,-846 269,-846 269,-846 275,-846 281,-852 281,-858 281,-858 281,-892 281,-892 281,-898 275,-904 269,-904"/>
<text text-anchor="middle" x="234" y="-882" font-family="Times,serif" font-size="10.00">ptb_lstm_2_i2h</text>
<text text-anchor="middle" x="234" y="-872" font-family="Times,serif" font-size="10.00">FullyConnected</text>
<text text-anchor="middle" x="234" y="-862" font-family="Times,serif" font-size="10.00">num&#45;hidden=1024</text>
</g>
<!-- ptb_lstm_2_i2h&#45;&gt;ptb_embed_2 -->
<g id="edge1" class="edge"><title>ptb_lstm_2_i2h&#45;&gt;ptb_embed_2</title>
<path fill="none" stroke="#737373" d="M234,-835.744C234,-827.204 234,-818.298 234,-810.248"/>
<polygon fill="#737373" stroke="#737373" points="234,-845.897 229.5,-835.897 234,-840.897 234,-835.897 234,-835.897 234,-835.897 234,-840.897 238.5,-835.897 234,-845.897 234,-845.897"/>
</g>
<!-- ptb_embed_1 -->
<g id="node3" class="node"><title>ptb_embed_1</title>
<path fill="#fb8072" stroke="#941305" stroke-width="2" d="M194,-58C194,-58 124,-58 124,-58 118,-58 112,-52 112,-46 112,-46 112,-12 112,-12 112,-6 118,-0 124,-0 124,-0 194,-0 194,-0 200,-0 206,-6 206,-12 206,-12 206,-46 206,-46 206,-52 200,-58 194,-58"/>
<text text-anchor="middle" x="159" y="-36" font-family="Times,serif" font-size="10.00">ptb_embed_1</text>
<text text-anchor="middle" x="159" y="-26" font-family="Times,serif" font-size="10.00">FullyConnected</text>
<text text-anchor="middle" x="159" y="-16" font-family="Times,serif" font-size="10.00">num&#45;hidden=256</text>
</g>
<!-- ptb_lstm_1_i2h -->
<g id="node4" class="node"><title>ptb_lstm_1_i2h</title>
<path fill="#fb8072" stroke="#941305" stroke-width="2" d="M194,-152C194,-152 124,-152 124,-152 118,-152 112,-146 112,-140 112,-140 112,-106 112,-106 112,-100 118,-94 124,-94 124,-94 194,-94 194,-94 200,-94 206,-100 206,-106 206,-106 206,-140 206,-140 206,-146 200,-152 194,-152"/>
<text text-anchor="middle" x="159" y="-130" font-family="Times,serif" font-size="10.00">ptb_lstm_1_i2h</text>
<text text-anchor="middle" x="159" y="-120" font-family="Times,serif" font-size="10.00">FullyConnected</text>
<text text-anchor="middle" x="159" y="-110" font-family="Times,serif" font-size="10.00">num&#45;hidden=1024</text>
</g>
<!-- ptb_lstm_1_i2h&#45;&gt;ptb_embed_1 -->
<g id="edge2" class="edge"><title>ptb_lstm_1_i2h&#45;&gt;ptb_embed_1</title>
<path fill="none" stroke="#737373" d="M159,-83.7443C159,-75.2043 159,-66.2977 159,-58.2479"/>
<polygon fill="#737373" stroke="#737373" points="159,-93.8971 154.5,-83.897 159,-88.8971 159,-83.8971 159,-83.8971 159,-83.8971 159,-88.8971 163.5,-83.8971 159,-93.8971 159,-93.8971"/>
</g>
<!-- ptb_lstm_1_h2h -->
<g id="node5" class="node"><title>ptb_lstm_1_h2h</title>
<path fill="#fb8072" stroke="#941305" stroke-width="2" d="M306,-152C306,-152 236,-152 236,-152 230,-152 224,-146 224,-140 224,-140 224,-106 224,-106 224,-100 230,-94 236,-94 236,-94 306,-94 306,-94 312,-94 318,-100 318,-106 318,-106 318,-140 318,-140 318,-146 312,-152 306,-152"/>
<text text-anchor="middle" x="271" y="-130" font-family="Times,serif" font-size="10.00">ptb_lstm_1_h2h</text>
<text text-anchor="middle" x="271" y="-120" font-family="Times,serif" font-size="10.00">FullyConnected</text>
<text text-anchor="middle" x="271" y="-110" font-family="Times,serif" font-size="10.00">num&#45;hidden=1024</text>
</g>
<!-- _plus0 -->
<g id="node6" class="node"><title>_plus0</title>
<path fill="#fccde5" stroke="#90094e" stroke-width="2" d="M250,-246C250,-246 180,-246 180,-246 174,-246 168,-240 168,-234 168,-234 168,-200 168,-200 168,-194 174,-188 180,-188 180,-188 250,-188 250,-188 256,-188 262,-194 262,-200 262,-200 262,-234 262,-234 262,-240 256,-246 250,-246"/>
<text text-anchor="middle" x="215" y="-219" font-family="Times,serif" font-size="10.00">_plus0</text>
<text text-anchor="middle" x="215" y="-209" font-family="Times,serif" font-size="10.00">_Plus</text>
</g>
<!-- _plus0&#45;&gt;ptb_lstm_1_i2h -->
<g id="edge3" class="edge"><title>_plus0&#45;&gt;ptb_lstm_1_i2h</title>
<path fill="none" stroke="#737373" d="M192.569,-179.148C187.113,-170.186 181.363,-160.74 176.194,-152.248"/>
<polygon fill="#737373" stroke="#737373" points="197.894,-187.897 188.85,-181.695 195.294,-183.626 192.694,-179.355 192.694,-179.355 192.694,-179.355 195.294,-183.626 196.538,-177.015 197.894,-187.897 197.894,-187.897"/>
</g>
<!-- _plus0&#45;&gt;ptb_lstm_1_h2h -->
<g id="edge4" class="edge"><title>_plus0&#45;&gt;ptb_lstm_1_h2h</title>
<path fill="none" stroke="#737373" d="M237.431,-179.148C242.887,-170.186 248.637,-160.74 253.806,-152.248"/>
<polygon fill="#737373" stroke="#737373" points="232.106,-187.897 233.462,-177.015 234.706,-183.626 237.306,-179.355 237.306,-179.355 237.306,-179.355 234.706,-183.626 241.15,-181.695 232.106,-187.897 232.106,-187.897"/>
</g>
<!-- ptb_lstm_1_gates -->
<g id="node7" class="node"><title>ptb_lstm_1_gates</title>
<path fill="#fccde5" stroke="#90094e" stroke-width="2" d="M250,-340C250,-340 180,-340 180,-340 174,-340 168,-334 168,-328 168,-328 168,-294 168,-294 168,-288 174,-282 180,-282 180,-282 250,-282 250,-282 256,-282 262,-288 262,-294 262,-294 262,-328 262,-328 262,-334 256,-340 250,-340"/>
<text text-anchor="middle" x="215" y="-313" font-family="Times,serif" font-size="10.00">ptb_lstm_1_gates</text>
<text text-anchor="middle" x="215" y="-303" font-family="Times,serif" font-size="10.00">SliceChannel</text>
</g>
<!-- ptb_lstm_1_gates&#45;&gt;_plus0 -->
<g id="edge5" class="edge"><title>ptb_lstm_1_gates&#45;&gt;_plus0</title>
<path fill="none" stroke="#737373" d="M215,-271.744C215,-263.204 215,-254.298 215,-246.248"/>
<polygon fill="#737373" stroke="#737373" points="215,-281.897 210.5,-271.897 215,-276.897 215,-271.897 215,-271.897 215,-271.897 215,-276.897 219.5,-271.897 215,-281.897 215,-281.897"/>
</g>
<!-- activation3 -->
<g id="node8" class="node"><title>activation3</title>
<path fill="#ffffb3" stroke="#999900" stroke-width="2" d="M381,-622C381,-622 311,-622 311,-622 305,-622 299,-616 299,-610 299,-610 299,-576 299,-576 299,-570 305,-564 311,-564 311,-564 381,-564 381,-564 387,-564 393,-570 393,-576 393,-576 393,-610 393,-610 393,-616 387,-622 381,-622"/>
<text text-anchor="middle" x="346" y="-600" font-family="Times,serif" font-size="10.00">activation3</text>
<text text-anchor="middle" x="346" y="-590" font-family="Times,serif" font-size="10.00">Activation</text>
<text text-anchor="middle" x="346" y="-580" font-family="Times,serif" font-size="10.00">act&#45;type=sigmoid</text>
</g>
<!-- activation3&#45;&gt;ptb_lstm_1_gates -->
<g id="edge6" class="edge"><title>activation3&#45;&gt;ptb_lstm_1_gates</title>
<path fill="none" stroke="#737373" d="M352.67,-553.687C358.562,-507.677 361.566,-429.965 327,-376 312.142,-352.804 285.707,-337.124 262.249,-327.092"/>
<polygon fill="#737373" stroke="#737373" points="351.256,-563.836 348.179,-553.311 351.946,-558.884 352.636,-553.932 352.636,-553.932 352.636,-553.932 351.946,-558.884 357.093,-554.552 351.256,-563.836 351.256,-563.836"/>
</g>
<!-- activation2 -->
<g id="node9" class="node"><title>activation2</title>
<path fill="#ffffb3" stroke="#999900" stroke-width="2" d="M82,-434C82,-434 12,-434 12,-434 6,-434 -7.10543e-15,-428 -7.10543e-15,-422 -7.10543e-15,-422 -7.10543e-15,-388 -7.10543e-15,-388 -7.10543e-15,-382 6,-376 12,-376 12,-376 82,-376 82,-376 88,-376 94,-382 94,-388 94,-388 94,-422 94,-422 94,-428 88,-434 82,-434"/>
<text text-anchor="middle" x="47" y="-412" font-family="Times,serif" font-size="10.00">activation2</text>
<text text-anchor="middle" x="47" y="-402" font-family="Times,serif" font-size="10.00">Activation</text>
<text text-anchor="middle" x="47" y="-392" font-family="Times,serif" font-size="10.00">act&#45;type=sigmoid</text>
</g>
<!-- activation2&#45;&gt;ptb_lstm_1_gates -->
<g id="edge7" class="edge"><title>activation2&#45;&gt;ptb_lstm_1_gates</title>
<path fill="none" stroke="#737373" d="M103.067,-373.297C124.069,-361.795 147.701,-348.854 167.819,-337.837"/>
<polygon fill="#737373" stroke="#737373" points="94.2444,-378.128 100.854,-369.378 98.6299,-375.726 103.015,-373.325 103.015,-373.325 103.015,-373.325 98.6299,-375.726 105.177,-377.272 94.2444,-378.128 94.2444,-378.128"/>
</g>
<!-- _mul0 -->
<g id="node10" class="node"><title>_mul0</title>
<path fill="#fccde5" stroke="#90094e" stroke-width="2" d="M82,-528C82,-528 12,-528 12,-528 6,-528 -7.10543e-15,-522 -7.10543e-15,-516 -7.10543e-15,-516 -7.10543e-15,-482 -7.10543e-15,-482 -7.10543e-15,-476 6,-470 12,-470 12,-470 82,-470 82,-470 88,-470 94,-476 94,-482 94,-482 94,-516 94,-516 94,-522 88,-528 82,-528"/>
<text text-anchor="middle" x="47" y="-501" font-family="Times,serif" font-size="10.00">_mul0</text>
<text text-anchor="middle" x="47" y="-491" font-family="Times,serif" font-size="10.00">_Mul</text>
</g>
<!-- _mul0&#45;&gt;activation2 -->
<g id="edge8" class="edge"><title>_mul0&#45;&gt;activation2</title>
<path fill="none" stroke="#737373" d="M47,-459.744C47,-451.204 47,-442.298 47,-434.248"/>
<polygon fill="#737373" stroke="#737373" points="47,-469.897 42.5001,-459.897 47,-464.897 47.0001,-459.897 47.0001,-459.897 47.0001,-459.897 47,-464.897 51.5001,-459.897 47,-469.897 47,-469.897"/>
</g>
<!-- activation0 -->
<g id="node11" class="node"><title>activation0</title>
<path fill="#ffffb3" stroke="#999900" stroke-width="2" d="M194,-434C194,-434 124,-434 124,-434 118,-434 112,-428 112,-422 112,-422 112,-388 112,-388 112,-382 118,-376 124,-376 124,-376 194,-376 194,-376 200,-376 206,-382 206,-388 206,-388 206,-422 206,-422 206,-428 200,-434 194,-434"/>
<text text-anchor="middle" x="159" y="-412" font-family="Times,serif" font-size="10.00">activation0</text>
<text text-anchor="middle" x="159" y="-402" font-family="Times,serif" font-size="10.00">Activation</text>
<text text-anchor="middle" x="159" y="-392" font-family="Times,serif" font-size="10.00">act&#45;type=sigmoid</text>
</g>
<!-- activation0&#45;&gt;ptb_lstm_1_gates -->
<g id="edge9" class="edge"><title>activation0&#45;&gt;ptb_lstm_1_gates</title>
<path fill="none" stroke="#737373" d="M181.431,-367.148C186.887,-358.186 192.637,-348.74 197.806,-340.248"/>
<polygon fill="#737373" stroke="#737373" points="176.106,-375.897 177.462,-365.015 178.706,-371.626 181.306,-367.355 181.306,-367.355 181.306,-367.355 178.706,-371.626 185.15,-369.695 176.106,-375.897 176.106,-375.897"/>
</g>
<!-- activation1 -->
<g id="node12" class="node"><title>activation1</title>
<path fill="#ffffb3" stroke="#999900" stroke-width="2" d="M306,-434C306,-434 236,-434 236,-434 230,-434 224,-428 224,-422 224,-422 224,-388 224,-388 224,-382 230,-376 236,-376 236,-376 306,-376 306,-376 312,-376 318,-382 318,-388 318,-388 318,-422 318,-422 318,-428 312,-434 306,-434"/>
<text text-anchor="middle" x="271" y="-412" font-family="Times,serif" font-size="10.00">activation1</text>
<text text-anchor="middle" x="271" y="-402" font-family="Times,serif" font-size="10.00">Activation</text>
<text text-anchor="middle" x="271" y="-392" font-family="Times,serif" font-size="10.00">act&#45;type=tanh</text>
</g>
<!-- activation1&#45;&gt;ptb_lstm_1_gates -->
<g id="edge10" class="edge"><title>activation1&#45;&gt;ptb_lstm_1_gates</title>
<path fill="none" stroke="#737373" d="M248.569,-367.148C243.113,-358.186 237.363,-348.74 232.194,-340.248"/>
<polygon fill="#737373" stroke="#737373" points="253.894,-375.897 244.85,-369.695 251.294,-371.626 248.694,-367.355 248.694,-367.355 248.694,-367.355 251.294,-371.626 252.538,-365.015 253.894,-375.897 253.894,-375.897"/>
</g>
<!-- _mul1 -->
<g id="node13" class="node"><title>_mul1</title>
<path fill="#fccde5" stroke="#90094e" stroke-width="2" d="M194,-528C194,-528 124,-528 124,-528 118,-528 112,-522 112,-516 112,-516 112,-482 112,-482 112,-476 118,-470 124,-470 124,-470 194,-470 194,-470 200,-470 206,-476 206,-482 206,-482 206,-516 206,-516 206,-522 200,-528 194,-528"/>
<text text-anchor="middle" x="159" y="-501" font-family="Times,serif" font-size="10.00">_mul1</text>
<text text-anchor="middle" x="159" y="-491" font-family="Times,serif" font-size="10.00">_Mul</text>
</g>
<!-- _mul1&#45;&gt;activation0 -->
<g id="edge11" class="edge"><title>_mul1&#45;&gt;activation0</title>
<path fill="none" stroke="#737373" d="M159,-459.744C159,-451.204 159,-442.298 159,-434.248"/>
<polygon fill="#737373" stroke="#737373" points="159,-469.897 154.5,-459.897 159,-464.897 159,-459.897 159,-459.897 159,-459.897 159,-464.897 163.5,-459.897 159,-469.897 159,-469.897"/>
</g>
<!-- _mul1&#45;&gt;activation1 -->
<g id="edge12" class="edge"><title>_mul1&#45;&gt;activation1</title>
<path fill="none" stroke="#737373" d="M201.148,-463.378C212.849,-453.767 225.411,-443.448 236.611,-434.248"/>
<polygon fill="#737373" stroke="#737373" points="193.212,-469.897 198.083,-460.072 197.076,-466.723 200.94,-463.55 200.94,-463.55 200.94,-463.55 197.076,-466.723 203.796,-467.027 193.212,-469.897 193.212,-469.897"/>
</g>
<!-- _plus1 -->
<g id="node14" class="node"><title>_plus1</title>
<path fill="#fccde5" stroke="#90094e" stroke-width="2" d="M194,-622C194,-622 124,-622 124,-622 118,-622 112,-616 112,-610 112,-610 112,-576 112,-576 112,-570 118,-564 124,-564 124,-564 194,-564 194,-564 200,-564 206,-570 206,-576 206,-576 206,-610 206,-610 206,-616 200,-622 194,-622"/>
<text text-anchor="middle" x="159" y="-595" font-family="Times,serif" font-size="10.00">_plus1</text>
<text text-anchor="middle" x="159" y="-585" font-family="Times,serif" font-size="10.00">_Plus</text>
</g>
<!-- _plus1&#45;&gt;_mul0 -->
<g id="edge13" class="edge"><title>_plus1&#45;&gt;_mul0</title>
<path fill="none" stroke="#737373" d="M116.852,-557.378C105.151,-547.767 92.5885,-537.448 81.3887,-528.248"/>
<polygon fill="#737373" stroke="#737373" points="124.788,-563.897 114.204,-561.027 120.924,-560.723 117.06,-557.55 117.06,-557.55 117.06,-557.55 120.924,-560.723 119.917,-554.072 124.788,-563.897 124.788,-563.897"/>
</g>
<!-- _plus1&#45;&gt;_mul1 -->
<g id="edge14" class="edge"><title>_plus1&#45;&gt;_mul1</title>
<path fill="none" stroke="#737373" d="M159,-553.744C159,-545.204 159,-536.298 159,-528.248"/>
<polygon fill="#737373" stroke="#737373" points="159,-563.897 154.5,-553.897 159,-558.897 159,-553.897 159,-553.897 159,-553.897 159,-558.897 163.5,-553.897 159,-563.897 159,-563.897"/>
</g>
<!-- activation4 -->
<g id="node15" class="node"><title>activation4</title>
<path fill="#ffffb3" stroke="#999900" stroke-width="2" d="M288,-716C288,-716 218,-716 218,-716 212,-716 206,-710 206,-704 206,-704 206,-670 206,-670 206,-664 212,-658 218,-658 218,-658 288,-658 288,-658 294,-658 300,-664 300,-670 300,-670 300,-704 300,-704 300,-710 294,-716 288,-716"/>
<text text-anchor="middle" x="253" y="-694" font-family="Times,serif" font-size="10.00">activation4</text>
<text text-anchor="middle" x="253" y="-684" font-family="Times,serif" font-size="10.00">Activation</text>
<text text-anchor="middle" x="253" y="-674" font-family="Times,serif" font-size="10.00">act&#45;type=tanh</text>
</g>
<!-- activation4&#45;&gt;_plus1 -->
<g id="edge15" class="edge"><title>activation4&#45;&gt;_plus1</title>
<path fill="none" stroke="#737373" d="M217.058,-650.823C207.4,-641.37 197.081,-631.271 187.862,-622.248"/>
<polygon fill="#737373" stroke="#737373" points="224.286,-657.897 213.992,-654.118 220.713,-654.4 217.139,-650.902 217.139,-650.902 217.139,-650.902 220.713,-654.4 220.287,-647.686 224.286,-657.897 224.286,-657.897"/>
</g>
<!-- _mul2 -->
<g id="node16" class="node"><title>_mul2</title>
<path fill="#fccde5" stroke="#90094e" stroke-width="2" d="M381,-810C381,-810 311,-810 311,-810 305,-810 299,-804 299,-798 299,-798 299,-764 299,-764 299,-758 305,-752 311,-752 311,-752 381,-752 381,-752 387,-752 393,-758 393,-764 393,-764 393,-798 393,-798 393,-804 387,-810 381,-810"/>
<text text-anchor="middle" x="346" y="-783" font-family="Times,serif" font-size="10.00">_mul2</text>
<text text-anchor="middle" x="346" y="-773" font-family="Times,serif" font-size="10.00">_Mul</text>
</g>
<!-- _mul2&#45;&gt;activation3 -->
<g id="edge16" class="edge"><title>_mul2&#45;&gt;activation3</title>
<path fill="none" stroke="#737373" d="M346,-741.746C346,-706.206 346,-654.104 346,-622.21"/>
<polygon fill="#737373" stroke="#737373" points="346,-751.751 341.5,-741.751 346,-746.751 346,-741.751 346,-741.751 346,-741.751 346,-746.751 350.5,-741.751 346,-751.751 346,-751.751"/>
</g>
<!-- _mul2&#45;&gt;activation4 -->
<g id="edge17" class="edge"><title>_mul2&#45;&gt;activation4</title>
<path fill="none" stroke="#737373" d="M310.441,-744.823C300.885,-735.37 290.676,-725.271 281.555,-716.248"/>
<polygon fill="#737373" stroke="#737373" points="317.592,-751.897 307.318,-748.063 314.037,-748.381 310.482,-744.864 310.482,-744.864 310.482,-744.864 314.037,-748.381 313.647,-741.665 317.592,-751.897 317.592,-751.897"/>
</g>
<!-- ptb_lstm_2_h2h -->
<g id="node17" class="node"><title>ptb_lstm_2_h2h</title>
<path fill="#fb8072" stroke="#941305" stroke-width="2" d="M381,-904C381,-904 311,-904 311,-904 305,-904 299,-898 299,-892 299,-892 299,-858 299,-858 299,-852 305,-846 311,-846 311,-846 381,-846 381,-846 387,-846 393,-852 393,-858 393,-858 393,-892 393,-892 393,-898 387,-904 381,-904"/>
<text text-anchor="middle" x="346" y="-882" font-family="Times,serif" font-size="10.00">ptb_lstm_2_h2h</text>
<text text-anchor="middle" x="346" y="-872" font-family="Times,serif" font-size="10.00">FullyConnected</text>
<text text-anchor="middle" x="346" y="-862" font-family="Times,serif" font-size="10.00">num&#45;hidden=1024</text>
</g>
<!-- ptb_lstm_2_h2h&#45;&gt;_mul2 -->
<g id="edge18" class="edge"><title>ptb_lstm_2_h2h&#45;&gt;_mul2</title>
<path fill="none" stroke="#737373" d="M346,-835.744C346,-827.204 346,-818.298 346,-810.248"/>
<polygon fill="#737373" stroke="#737373" points="346,-845.897 341.5,-835.897 346,-840.897 346,-835.897 346,-835.897 346,-835.897 346,-840.897 350.5,-835.897 346,-845.897 346,-845.897"/>
</g>
<!-- _plus2 -->
<g id="node18" class="node"><title>_plus2</title>
<path fill="#fccde5" stroke="#90094e" stroke-width="2" d="M381,-998C381,-998 311,-998 311,-998 305,-998 299,-992 299,-986 299,-986 299,-952 299,-952 299,-946 305,-940 311,-940 311,-940 381,-940 381,-940 387,-940 393,-946 393,-952 393,-952 393,-986 393,-986 393,-992 387,-998 381,-998"/>
<text text-anchor="middle" x="346" y="-971" font-family="Times,serif" font-size="10.00">_plus2</text>
<text text-anchor="middle" x="346" y="-961" font-family="Times,serif" font-size="10.00">_Plus</text>
</g>
<!-- _plus2&#45;&gt;ptb_lstm_2_i2h -->
<g id="edge19" class="edge"><title>_plus2&#45;&gt;ptb_lstm_2_i2h</title>
<path fill="none" stroke="#737373" d="M303.852,-933.378C292.151,-923.767 279.589,-913.448 268.389,-904.248"/>
<polygon fill="#737373" stroke="#737373" points="311.788,-939.897 301.204,-937.027 307.924,-936.723 304.06,-933.55 304.06,-933.55 304.06,-933.55 307.924,-936.723 306.917,-930.072 311.788,-939.897 311.788,-939.897"/>
</g>
<!-- _plus2&#45;&gt;ptb_lstm_2_h2h -->
<g id="edge20" class="edge"><title>_plus2&#45;&gt;ptb_lstm_2_h2h</title>
<path fill="none" stroke="#737373" d="M346,-929.744C346,-921.204 346,-912.298 346,-904.248"/>
<polygon fill="#737373" stroke="#737373" points="346,-939.897 341.5,-929.897 346,-934.897 346,-929.897 346,-929.897 346,-929.897 346,-934.897 350.5,-929.897 346,-939.897 346,-939.897"/>
</g>
<!-- ptb_lstm_2_gates -->
<g id="node19" class="node"><title>ptb_lstm_2_gates</title>
<path fill="#fccde5" stroke="#90094e" stroke-width="2" d="M381,-1092C381,-1092 311,-1092 311,-1092 305,-1092 299,-1086 299,-1080 299,-1080 299,-1046 299,-1046 299,-1040 305,-1034 311,-1034 311,-1034 381,-1034 381,-1034 387,-1034 393,-1040 393,-1046 393,-1046 393,-1080 393,-1080 393,-1086 387,-1092 381,-1092"/>
<text text-anchor="middle" x="346" y="-1065" font-family="Times,serif" font-size="10.00">ptb_lstm_2_gates</text>
<text text-anchor="middle" x="346" y="-1055" font-family="Times,serif" font-size="10.00">SliceChannel</text>
</g>
<!-- ptb_lstm_2_gates&#45;&gt;_plus2 -->
<g id="edge21" class="edge"><title>ptb_lstm_2_gates&#45;&gt;_plus2</title>
<path fill="none" stroke="#737373" d="M346,-1023.74C346,-1015.2 346,-1006.3 346,-998.248"/>
<polygon fill="#737373" stroke="#737373" points="346,-1033.9 341.5,-1023.9 346,-1028.9 346,-1023.9 346,-1023.9 346,-1023.9 346,-1028.9 350.5,-1023.9 346,-1033.9 346,-1033.9"/>
</g>
<!-- activation8 -->
<g id="node20" class="node"><title>activation8</title>
<path fill="#ffffb3" stroke="#999900" stroke-width="2" d="M568,-1374C568,-1374 498,-1374 498,-1374 492,-1374 486,-1368 486,-1362 486,-1362 486,-1328 486,-1328 486,-1322 492,-1316 498,-1316 498,-1316 568,-1316 568,-1316 574,-1316 580,-1322 580,-1328 580,-1328 580,-1362 580,-1362 580,-1368 574,-1374 568,-1374"/>
<text text-anchor="middle" x="533" y="-1352" font-family="Times,serif" font-size="10.00">activation8</text>
<text text-anchor="middle" x="533" y="-1342" font-family="Times,serif" font-size="10.00">Activation</text>
<text text-anchor="middle" x="533" y="-1332" font-family="Times,serif" font-size="10.00">act&#45;type=sigmoid</text>
</g>
<!-- activation8&#45;&gt;ptb_lstm_2_gates -->
<g id="edge22" class="edge"><title>activation8&#45;&gt;ptb_lstm_2_gates</title>
<path fill="none" stroke="#737373" d="M540.878,-1305.79C548.226,-1258.96 552.937,-1179.51 514,-1128 485.58,-1090.4 432.237,-1074.89 393.26,-1068.49"/>
<polygon fill="#737373" stroke="#737373" points="539.183,-1315.83 536.411,-1305.22 540.015,-1310.9 540.848,-1305.97 540.848,-1305.97 540.848,-1305.97 540.015,-1310.9 545.285,-1306.72 539.183,-1315.83 539.183,-1315.83"/>
</g>
<!-- activation7 -->
<g id="node21" class="node"><title>activation7</title>
<path fill="#ffffb3" stroke="#999900" stroke-width="2" d="M269,-1186C269,-1186 199,-1186 199,-1186 193,-1186 187,-1180 187,-1174 187,-1174 187,-1140 187,-1140 187,-1134 193,-1128 199,-1128 199,-1128 269,-1128 269,-1128 275,-1128 281,-1134 281,-1140 281,-1140 281,-1174 281,-1174 281,-1180 275,-1186 269,-1186"/>
<text text-anchor="middle" x="234" y="-1164" font-family="Times,serif" font-size="10.00">activation7</text>
<text text-anchor="middle" x="234" y="-1154" font-family="Times,serif" font-size="10.00">Activation</text>
<text text-anchor="middle" x="234" y="-1144" font-family="Times,serif" font-size="10.00">act&#45;type=sigmoid</text>
</g>
<!-- activation7&#45;&gt;ptb_lstm_2_gates -->
<g id="edge23" class="edge"><title>activation7&#45;&gt;ptb_lstm_2_gates</title>
<path fill="none" stroke="#737373" d="M276.148,-1121.38C287.849,-1111.77 300.411,-1101.45 311.611,-1092.25"/>
<polygon fill="#737373" stroke="#737373" points="268.212,-1127.9 273.083,-1118.07 272.076,-1124.72 275.94,-1121.55 275.94,-1121.55 275.94,-1121.55 272.076,-1124.72 278.796,-1125.03 268.212,-1127.9 268.212,-1127.9"/>
</g>
<!-- _mul3 -->
<g id="node22" class="node"><title>_mul3</title>
<path fill="#fccde5" stroke="#90094e" stroke-width="2" d="M269,-1280C269,-1280 199,-1280 199,-1280 193,-1280 187,-1274 187,-1268 187,-1268 187,-1234 187,-1234 187,-1228 193,-1222 199,-1222 199,-1222 269,-1222 269,-1222 275,-1222 281,-1228 281,-1234 281,-1234 281,-1268 281,-1268 281,-1274 275,-1280 269,-1280"/>
<text text-anchor="middle" x="234" y="-1253" font-family="Times,serif" font-size="10.00">_mul3</text>
<text text-anchor="middle" x="234" y="-1243" font-family="Times,serif" font-size="10.00">_Mul</text>
</g>
<!-- _mul3&#45;&gt;_plus1 -->
<g id="edge25" class="edge"><title>_mul3&#45;&gt;_plus1</title>
<path fill="none" stroke="#737373" d="M196.635,-1214.32C189.434,-1205.69 182.685,-1196.04 178,-1186 154.792,-1136.27 159,-1118.88 159,-1064 159,-1064 159,-1064 159,-780 159,-723.974 159,-658.455 159,-622.045"/>
<polygon fill="#737373" stroke="#737373" points="203.329,-1221.94 193.348,-1217.4 200.029,-1218.18 196.729,-1214.43 196.729,-1214.43 196.729,-1214.43 200.029,-1218.18 200.11,-1211.46 203.329,-1221.94 203.329,-1221.94"/>
</g>
<!-- _mul3&#45;&gt;activation7 -->
<g id="edge24" class="edge"><title>_mul3&#45;&gt;activation7</title>
<path fill="none" stroke="#737373" d="M234,-1211.74C234,-1203.2 234,-1194.3 234,-1186.25"/>
<polygon fill="#737373" stroke="#737373" points="234,-1221.9 229.5,-1211.9 234,-1216.9 234,-1211.9 234,-1211.9 234,-1211.9 234,-1216.9 238.5,-1211.9 234,-1221.9 234,-1221.9"/>
</g>
<!-- activation5 -->
<g id="node23" class="node"><title>activation5</title>
<path fill="#ffffb3" stroke="#999900" stroke-width="2" d="M381,-1186C381,-1186 311,-1186 311,-1186 305,-1186 299,-1180 299,-1174 299,-1174 299,-1140 299,-1140 299,-1134 305,-1128 311,-1128 311,-1128 381,-1128 381,-1128 387,-1128 393,-1134 393,-1140 393,-1140 393,-1174 393,-1174 393,-1180 387,-1186 381,-1186"/>
<text text-anchor="middle" x="346" y="-1164" font-family="Times,serif" font-size="10.00">activation5</text>
<text text-anchor="middle" x="346" y="-1154" font-family="Times,serif" font-size="10.00">Activation</text>
<text text-anchor="middle" x="346" y="-1144" font-family="Times,serif" font-size="10.00">act&#45;type=sigmoid</text>
</g>
<!-- activation5&#45;&gt;ptb_lstm_2_gates -->
<g id="edge26" class="edge"><title>activation5&#45;&gt;ptb_lstm_2_gates</title>
<path fill="none" stroke="#737373" d="M346,-1117.74C346,-1109.2 346,-1100.3 346,-1092.25"/>
<polygon fill="#737373" stroke="#737373" points="346,-1127.9 341.5,-1117.9 346,-1122.9 346,-1117.9 346,-1117.9 346,-1117.9 346,-1122.9 350.5,-1117.9 346,-1127.9 346,-1127.9"/>
</g>
<!-- activation6 -->
<g id="node24" class="node"><title>activation6</title>
<path fill="#ffffb3" stroke="#999900" stroke-width="2" d="M493,-1186C493,-1186 423,-1186 423,-1186 417,-1186 411,-1180 411,-1174 411,-1174 411,-1140 411,-1140 411,-1134 417,-1128 423,-1128 423,-1128 493,-1128 493,-1128 499,-1128 505,-1134 505,-1140 505,-1140 505,-1174 505,-1174 505,-1180 499,-1186 493,-1186"/>
<text text-anchor="middle" x="458" y="-1164" font-family="Times,serif" font-size="10.00">activation6</text>
<text text-anchor="middle" x="458" y="-1154" font-family="Times,serif" font-size="10.00">Activation</text>
<text text-anchor="middle" x="458" y="-1144" font-family="Times,serif" font-size="10.00">act&#45;type=tanh</text>
</g>
<!-- activation6&#45;&gt;ptb_lstm_2_gates -->
<g id="edge27" class="edge"><title>activation6&#45;&gt;ptb_lstm_2_gates</title>
<path fill="none" stroke="#737373" d="M415.852,-1121.38C404.151,-1111.77 391.589,-1101.45 380.389,-1092.25"/>
<polygon fill="#737373" stroke="#737373" points="423.788,-1127.9 413.204,-1125.03 419.924,-1124.72 416.06,-1121.55 416.06,-1121.55 416.06,-1121.55 419.924,-1124.72 418.917,-1118.07 423.788,-1127.9 423.788,-1127.9"/>
</g>
<!-- _mul4 -->
<g id="node25" class="node"><title>_mul4</title>
<path fill="#fccde5" stroke="#90094e" stroke-width="2" d="M381,-1280C381,-1280 311,-1280 311,-1280 305,-1280 299,-1274 299,-1268 299,-1268 299,-1234 299,-1234 299,-1228 305,-1222 311,-1222 311,-1222 381,-1222 381,-1222 387,-1222 393,-1228 393,-1234 393,-1234 393,-1268 393,-1268 393,-1274 387,-1280 381,-1280"/>
<text text-anchor="middle" x="346" y="-1253" font-family="Times,serif" font-size="10.00">_mul4</text>
<text text-anchor="middle" x="346" y="-1243" font-family="Times,serif" font-size="10.00">_Mul</text>
</g>
<!-- _mul4&#45;&gt;activation5 -->
<g id="edge28" class="edge"><title>_mul4&#45;&gt;activation5</title>
<path fill="none" stroke="#737373" d="M346,-1211.74C346,-1203.2 346,-1194.3 346,-1186.25"/>
<polygon fill="#737373" stroke="#737373" points="346,-1221.9 341.5,-1211.9 346,-1216.9 346,-1211.9 346,-1211.9 346,-1211.9 346,-1216.9 350.5,-1211.9 346,-1221.9 346,-1221.9"/>
</g>
<!-- _mul4&#45;&gt;activation6 -->
<g id="edge29" class="edge"><title>_mul4&#45;&gt;activation6</title>
<path fill="none" stroke="#737373" d="M388.148,-1215.38C399.849,-1205.77 412.411,-1195.45 423.611,-1186.25"/>
<polygon fill="#737373" stroke="#737373" points="380.212,-1221.9 385.083,-1212.07 384.076,-1218.72 387.94,-1215.55 387.94,-1215.55 387.94,-1215.55 384.076,-1218.72 390.796,-1219.03 380.212,-1221.9 380.212,-1221.9"/>
</g>
<!-- _plus3 -->
<g id="node26" class="node"><title>_plus3</title>
<path fill="#fccde5" stroke="#90094e" stroke-width="2" d="M381,-1374C381,-1374 311,-1374 311,-1374 305,-1374 299,-1368 299,-1362 299,-1362 299,-1328 299,-1328 299,-1322 305,-1316 311,-1316 311,-1316 381,-1316 381,-1316 387,-1316 393,-1322 393,-1328 393,-1328 393,-1362 393,-1362 393,-1368 387,-1374 381,-1374"/>
<text text-anchor="middle" x="346" y="-1347" font-family="Times,serif" font-size="10.00">_plus3</text>
<text text-anchor="middle" x="346" y="-1337" font-family="Times,serif" font-size="10.00">_Plus</text>
</g>
<!-- _plus3&#45;&gt;_mul3 -->
<g id="edge30" class="edge"><title>_plus3&#45;&gt;_mul3</title>
<path fill="none" stroke="#737373" d="M303.852,-1309.38C292.151,-1299.77 279.589,-1289.45 268.389,-1280.25"/>
<polygon fill="#737373" stroke="#737373" points="311.788,-1315.9 301.204,-1313.03 307.924,-1312.72 304.06,-1309.55 304.06,-1309.55 304.06,-1309.55 307.924,-1312.72 306.917,-1306.07 311.788,-1315.9 311.788,-1315.9"/>
</g>
<!-- _plus3&#45;&gt;_mul4 -->
<g id="edge31" class="edge"><title>_plus3&#45;&gt;_mul4</title>
<path fill="none" stroke="#737373" d="M346,-1305.74C346,-1297.2 346,-1288.3 346,-1280.25"/>
<polygon fill="#737373" stroke="#737373" points="346,-1315.9 341.5,-1305.9 346,-1310.9 346,-1305.9 346,-1305.9 346,-1305.9 346,-1310.9 350.5,-1305.9 346,-1315.9 346,-1315.9"/>
</g>
<!-- activation9 -->
<g id="node27" class="node"><title>activation9</title>
<path fill="#ffffb3" stroke="#999900" stroke-width="2" d="M493,-1468C493,-1468 423,-1468 423,-1468 417,-1468 411,-1462 411,-1456 411,-1456 411,-1422 411,-1422 411,-1416 417,-1410 423,-1410 423,-1410 493,-1410 493,-1410 499,-1410 505,-1416 505,-1422 505,-1422 505,-1456 505,-1456 505,-1462 499,-1468 493,-1468"/>
<text text-anchor="middle" x="458" y="-1446" font-family="Times,serif" font-size="10.00">activation9</text>
<text text-anchor="middle" x="458" y="-1436" font-family="Times,serif" font-size="10.00">Activation</text>
<text text-anchor="middle" x="458" y="-1426" font-family="Times,serif" font-size="10.00">act&#45;type=tanh</text>
</g>
<!-- activation9&#45;&gt;_plus3 -->
<g id="edge32" class="edge"><title>activation9&#45;&gt;_plus3</title>
<path fill="none" stroke="#737373" d="M415.852,-1403.38C404.151,-1393.77 391.589,-1383.45 380.389,-1374.25"/>
<polygon fill="#737373" stroke="#737373" points="423.788,-1409.9 413.204,-1407.03 419.924,-1406.72 416.06,-1403.55 416.06,-1403.55 416.06,-1403.55 419.924,-1406.72 418.917,-1400.07 423.788,-1409.9 423.788,-1409.9"/>
</g>
<!-- _mul5 -->
<g id="node28" class="node"><title>_mul5</title>
<path fill="#fccde5" stroke="#90094e" stroke-width="2" d="M530,-1562C530,-1562 460,-1562 460,-1562 454,-1562 448,-1556 448,-1550 448,-1550 448,-1516 448,-1516 448,-1510 454,-1504 460,-1504 460,-1504 530,-1504 530,-1504 536,-1504 542,-1510 542,-1516 542,-1516 542,-1550 542,-1550 542,-1556 536,-1562 530,-1562"/>
<text text-anchor="middle" x="495" y="-1535" font-family="Times,serif" font-size="10.00">_mul5</text>
<text text-anchor="middle" x="495" y="-1525" font-family="Times,serif" font-size="10.00">_Mul</text>
</g>
<!-- _mul5&#45;&gt;activation8 -->
<g id="edge33" class="edge"><title>_mul5&#45;&gt;activation8</title>
<path fill="none" stroke="#737373" d="M507.152,-1494.14C509.638,-1485.6 512.078,-1476.53 514,-1468 521.159,-1436.21 526.515,-1399.16 529.685,-1374.31"/>
<polygon fill="#737373" stroke="#737373" points="504.242,-1503.86 502.799,-1492.99 505.676,-1499.07 507.11,-1494.28 507.11,-1494.28 507.11,-1494.28 505.676,-1499.07 511.421,-1495.57 504.242,-1503.86 504.242,-1503.86"/>
</g>
<!-- _mul5&#45;&gt;activation9 -->
<g id="edge34" class="edge"><title>_mul5&#45;&gt;activation9</title>
<path fill="none" stroke="#737373" d="M479.954,-1494.59C476.417,-1485.79 472.705,-1476.56 469.361,-1468.25"/>
<polygon fill="#737373" stroke="#737373" points="483.698,-1503.9 475.791,-1496.3 481.832,-1499.26 479.966,-1494.62 479.966,-1494.62 479.966,-1494.62 481.832,-1499.26 484.141,-1492.94 483.698,-1503.9 483.698,-1503.9"/>
</g>
<!-- ptb_l1_last_h -->
<g id="node29" class="node"><title>ptb_l1_last_h</title>
<path fill="#b3de69" stroke="#597d1c" stroke-width="2" d="M474,-1656C474,-1656 404,-1656 404,-1656 398,-1656 392,-1650 392,-1644 392,-1644 392,-1610 392,-1610 392,-1604 398,-1598 404,-1598 404,-1598 474,-1598 474,-1598 480,-1598 486,-1604 486,-1610 486,-1610 486,-1644 486,-1644 486,-1650 480,-1656 474,-1656"/>
<text text-anchor="middle" x="439" y="-1629" font-family="Times,serif" font-size="10.00">ptb_l1_last_h</text>
<text text-anchor="middle" x="439" y="-1619" font-family="Times,serif" font-size="10.00">BlockGrad</text>
</g>
<!-- ptb_l1_last_h&#45;&gt;_mul5 -->
<g id="edge35" class="edge"><title>ptb_l1_last_h&#45;&gt;_mul5</title>
<path fill="none" stroke="#737373" d="M461.431,-1589.15C466.887,-1580.19 472.637,-1570.74 477.806,-1562.25"/>
<polygon fill="#737373" stroke="#737373" points="456.106,-1597.9 457.462,-1587.02 458.706,-1593.63 461.306,-1589.36 461.306,-1589.36 461.306,-1589.36 458.706,-1593.63 465.15,-1591.69 456.106,-1597.9 456.106,-1597.9"/>
</g>
<!-- ptb_l1_last_c -->
<g id="node30" class="node"><title>ptb_l1_last_c</title>
<path fill="#b3de69" stroke="#597d1c" stroke-width="2" d="M381,-1468C381,-1468 311,-1468 311,-1468 305,-1468 299,-1462 299,-1456 299,-1456 299,-1422 299,-1422 299,-1416 305,-1410 311,-1410 311,-1410 381,-1410 381,-1410 387,-1410 393,-1416 393,-1422 393,-1422 393,-1456 393,-1456 393,-1462 387,-1468 381,-1468"/>
<text text-anchor="middle" x="346" y="-1441" font-family="Times,serif" font-size="10.00">ptb_l1_last_c</text>
<text text-anchor="middle" x="346" y="-1431" font-family="Times,serif" font-size="10.00">BlockGrad</text>
</g>
<!-- ptb_l1_last_c&#45;&gt;_plus3 -->
<g id="edge36" class="edge"><title>ptb_l1_last_c&#45;&gt;_plus3</title>
<path fill="none" stroke="#737373" d="M346,-1399.74C346,-1391.2 346,-1382.3 346,-1374.25"/>
<polygon fill="#737373" stroke="#737373" points="346,-1409.9 341.5,-1399.9 346,-1404.9 346,-1399.9 346,-1399.9 346,-1399.9 346,-1404.9 350.5,-1399.9 346,-1409.9 346,-1409.9"/>
</g>
<!-- ptb_pred_2 -->
<g id="node31" class="node"><title>ptb_pred_2</title>
<path fill="#fb8072" stroke="#941305" stroke-width="2" d="M586,-1656C586,-1656 516,-1656 516,-1656 510,-1656 504,-1650 504,-1644 504,-1644 504,-1610 504,-1610 504,-1604 510,-1598 516,-1598 516,-1598 586,-1598 586,-1598 592,-1598 598,-1604 598,-1610 598,-1610 598,-1644 598,-1644 598,-1650 592,-1656 586,-1656"/>
<text text-anchor="middle" x="551" y="-1634" font-family="Times,serif" font-size="10.00">ptb_pred_2</text>
<text text-anchor="middle" x="551" y="-1624" font-family="Times,serif" font-size="10.00">FullyConnected</text>
<text text-anchor="middle" x="551" y="-1614" font-family="Times,serif" font-size="10.00">num&#45;hidden=128</text>
</g>
<!-- ptb_pred_2&#45;&gt;_mul5 -->
<g id="edge37" class="edge"><title>ptb_pred_2&#45;&gt;_mul5</title>
<path fill="none" stroke="#737373" d="M528.569,-1589.15C523.113,-1580.19 517.363,-1570.74 512.194,-1562.25"/>
<polygon fill="#737373" stroke="#737373" points="533.894,-1597.9 524.85,-1591.69 531.294,-1593.63 528.694,-1589.36 528.694,-1589.36 528.694,-1589.36 531.294,-1593.63 532.538,-1587.02 533.894,-1597.9 533.894,-1597.9"/>
</g>
<!-- ptb_softmax_2 -->
<g id="node32" class="node"><title>ptb_softmax_2</title>
<path fill="#b3de69" stroke="#597d1c" stroke-width="2" d="M586,-1750C586,-1750 516,-1750 516,-1750 510,-1750 504,-1744 504,-1738 504,-1738 504,-1704 504,-1704 504,-1698 510,-1692 516,-1692 516,-1692 586,-1692 586,-1692 592,-1692 598,-1698 598,-1704 598,-1704 598,-1738 598,-1738 598,-1744 592,-1750 586,-1750"/>
<text text-anchor="middle" x="551" y="-1723" font-family="Times,serif" font-size="10.00">ptb_softmax_2</text>
<text text-anchor="middle" x="551" y="-1713" font-family="Times,serif" font-size="10.00">SoftmaxOutput</text>
</g>
<!-- ptb_softmax_2&#45;&gt;ptb_pred_2 -->
<g id="edge38" class="edge"><title>ptb_softmax_2&#45;&gt;ptb_pred_2</title>
<path fill="none" stroke="#737373" d="M551,-1681.74C551,-1673.2 551,-1664.3 551,-1656.25"/>
<polygon fill="#737373" stroke="#737373" points="551,-1691.9 546.5,-1681.9 551,-1686.9 551,-1681.9 551,-1681.9 551,-1681.9 551,-1686.9 555.5,-1681.9 551,-1691.9 551,-1691.9"/>
</g>
<!-- ptb_pred_1 -->
<g id="node33" class="node"><title>ptb_pred_1</title>
<path fill="#fb8072" stroke="#941305" stroke-width="2" d="M493,-904C493,-904 423,-904 423,-904 417,-904 411,-898 411,-892 411,-892 411,-858 411,-858 411,-852 417,-846 423,-846 423,-846 493,-846 493,-846 499,-846 505,-852 505,-858 505,-858 505,-892 505,-892 505,-898 499,-904 493,-904"/>
<text text-anchor="middle" x="458" y="-882" font-family="Times,serif" font-size="10.00">ptb_pred_1</text>
<text text-anchor="middle" x="458" y="-872" font-family="Times,serif" font-size="10.00">FullyConnected</text>
<text text-anchor="middle" x="458" y="-862" font-family="Times,serif" font-size="10.00">num&#45;hidden=128</text>
</g>
<!-- ptb_pred_1&#45;&gt;_mul2 -->
<g id="edge39" class="edge"><title>ptb_pred_1&#45;&gt;_mul2</title>
<path fill="none" stroke="#737373" d="M415.852,-839.378C404.151,-829.767 391.589,-819.448 380.389,-810.248"/>
<polygon fill="#737373" stroke="#737373" points="423.788,-845.897 413.204,-843.027 419.924,-842.723 416.06,-839.55 416.06,-839.55 416.06,-839.55 419.924,-842.723 418.917,-836.072 423.788,-845.897 423.788,-845.897"/>
</g>
<!-- ptb_softmax_1 -->
<g id="node34" class="node"><title>ptb_softmax_1</title>
<path fill="#b3de69" stroke="#597d1c" stroke-width="2" d="M493,-998C493,-998 423,-998 423,-998 417,-998 411,-992 411,-986 411,-986 411,-952 411,-952 411,-946 417,-940 423,-940 423,-940 493,-940 493,-940 499,-940 505,-946 505,-952 505,-952 505,-986 505,-986 505,-992 499,-998 493,-998"/>
<text text-anchor="middle" x="458" y="-971" font-family="Times,serif" font-size="10.00">ptb_softmax_1</text>
<text text-anchor="middle" x="458" y="-961" font-family="Times,serif" font-size="10.00">SoftmaxOutput</text>
</g>
<!-- ptb_softmax_1&#45;&gt;ptb_pred_1 -->
<g id="edge40" class="edge"><title>ptb_softmax_1&#45;&gt;ptb_pred_1</title>
<path fill="none" stroke="#737373" d="M458,-929.744C458,-921.204 458,-912.298 458,-904.248"/>
<polygon fill="#737373" stroke="#737373" points="458,-939.897 453.5,-929.897 458,-934.897 458,-929.897 458,-929.897 458,-929.897 458,-934.897 462.5,-929.897 458,-939.897 458,-939.897"/>
</g>
</g>
</svg>
