<?xml version="1.0" encoding="UTF-8" standalone="no"?>
<!DOCTYPE svg PUBLIC "-//W3C//DTD SVG 1.1//EN"
 "http://www.w3.org/Graphics/SVG/1.1/DTD/svg11.dtd">
<!-- Generated by graphviz version 2.36.0 (20140111.2315)
 -->
<!-- Title: mlp Pages: 1 -->
<svg width="102pt" height="630pt"
 viewBox="0.00 0.00 102.00 630.00" xmlns="http://www.w3.org/2000/svg" xmlns:xlink="http://www.w3.org/1999/xlink">
<g id="graph0" class="graph" transform="scale(1 1) rotate(0) translate(4 626)">
<title>mlp</title>
<polygon fill="white" stroke="none" points="-4,4 -4,-626 98,-626 98,4 -4,4"/>
<!-- null_0 -->
<g id="node1" class="node"><title>null_0</title>
<polygon fill="#8dd3c7" stroke="black" points="94,-58 -7.10543e-15,-58 -7.10543e-15,-3.55271e-15 94,-3.55271e-15 94,-58"/>
<text text-anchor="middle" x="47" y="-25.3" font-family="Times,serif" font-size="14.00">data</text>
</g>
<!-- FullyConnected_3 -->
<g id="node2" class="node"><title>FullyConnected_3</title>
<polygon fill="#fb8072" stroke="black" points="94,-152 -7.10543e-15,-152 -7.10543e-15,-94 94,-94 94,-152"/>
<text text-anchor="middle" x="47" y="-126.8" font-family="Times,serif" font-size="14.00">FullyConnected</text>
<text text-anchor="middle" x="47" y="-111.8" font-family="Times,serif" font-size="14.00">128</text>
</g>
<!-- FullyConnected_3&#45;&gt;null_0 -->
<g id="edge1" class="edge"><title>FullyConnected_3&#45;&gt;null_0</title>
<path fill="none" stroke="black" d="M47,-83.7443C47,-75.2043 47,-66.2977 47,-58.2479"/>
<polygon fill="black" stroke="black" points="47,-93.8971 42.5001,-83.897 47,-88.8971 47.0001,-83.8971 47.0001,-83.8971 47.0001,-83.8971 47,-88.8971 51.5001,-83.8971 47,-93.8971 47,-93.8971"/>
</g>
<!-- Activation_4 -->
<g id="node3" class="node"><title>Activation_4</title>
<polygon fill="#bebada" stroke="black" points="94,-246 -7.10543e-15,-246 -7.10543e-15,-188 94,-188 94,-246"/>
<text text-anchor="middle" x="47" y="-220.8" font-family="Times,serif" font-size="14.00">Activation</text>
<text text-anchor="middle" x="47" y="-205.8" font-family="Times,serif" font-size="14.00">relu</text>
</g>
<!-- Activation_4&#45;&gt;FullyConnected_3 -->
<g id="edge2" class="edge"><title>Activation_4&#45;&gt;FullyConnected_3</title>
<path fill="none" stroke="black" d="M47,-177.744C47,-169.204 47,-160.298 47,-152.248"/>
<polygon fill="black" stroke="black" points="47,-187.897 42.5001,-177.897 47,-182.897 47.0001,-177.897 47.0001,-177.897 47.0001,-177.897 47,-182.897 51.5001,-177.897 47,-187.897 47,-187.897"/>
</g>
<!-- FullyConnected_7 -->
<g id="node4" class="node"><title>FullyConnected_7</title>
<polygon fill="#fb8072" stroke="black" points="94,-340 -7.10543e-15,-340 -7.10543e-15,-282 94,-282 94,-340"/>
<text text-anchor="middle" x="47" y="-314.8" font-family="Times,serif" font-size="14.00">FullyConnected</text>
<text text-anchor="middle" x="47" y="-299.8" font-family="Times,serif" font-size="14.00">64</text>
</g>
<!-- FullyConnected_7&#45;&gt;Activation_4 -->
<g id="edge3" class="edge"><title>FullyConnected_7&#45;&gt;Activation_4</title>
<path fill="none" stroke="black" d="M47,-271.744C47,-263.204 47,-254.298 47,-246.248"/>
<polygon fill="black" stroke="black" points="47,-281.897 42.5001,-271.897 47,-276.897 47.0001,-271.897 47.0001,-271.897 47.0001,-271.897 47,-276.897 51.5001,-271.897 47,-281.897 47,-281.897"/>
</g>
<!-- Activation_8 -->
<g id="node5" class="node"><title>Activation_8</title>
<polygon fill="#bebada" stroke="black" points="94,-434 -7.10543e-15,-434 -7.10543e-15,-376 94,-376 94,-434"/>
<text text-anchor="middle" x="47" y="-408.8" font-family="Times,serif" font-size="14.00">Activation</text>
<text text-anchor="middle" x="47" y="-393.8" font-family="Times,serif" font-size="14.00">relu</text>
</g>
<!-- Activation_8&#45;&gt;FullyConnected_7 -->
<g id="edge4" class="edge"><title>Activation_8&#45;&gt;FullyConnected_7</title>
<path fill="none" stroke="black" d="M47,-365.744C47,-357.204 47,-348.298 47,-340.248"/>
<polygon fill="black" stroke="black" points="47,-375.897 42.5001,-365.897 47,-370.897 47.0001,-365.897 47.0001,-365.897 47.0001,-365.897 47,-370.897 51.5001,-365.897 47,-375.897 47,-375.897"/>
</g>
<!-- FullyConnected_11 -->
<g id="node6" class="node"><title>FullyConnected_11</title>
<polygon fill="#fb8072" stroke="black" points="94,-528 -7.10543e-15,-528 -7.10543e-15,-470 94,-470 94,-528"/>
<text text-anchor="middle" x="47" y="-502.8" font-family="Times,serif" font-size="14.00">FullyConnected</text>
<text text-anchor="middle" x="47" y="-487.8" font-family="Times,serif" font-size="14.00">10</text>
</g>
<!-- FullyConnected_11&#45;&gt;Activation_8 -->
<g id="edge5" class="edge"><title>FullyConnected_11&#45;&gt;Activation_8</title>
<path fill="none" stroke="black" d="M47,-459.744C47,-451.204 47,-442.298 47,-434.248"/>
<polygon fill="black" stroke="black" points="47,-469.897 42.5001,-459.897 47,-464.897 47.0001,-459.897 47.0001,-459.897 47.0001,-459.897 47,-464.897 51.5001,-459.897 47,-469.897 47,-469.897"/>
</g>
<!-- Softmax_13 -->
<g id="node7" class="node"><title>Softmax_13</title>
<polygon fill="#b3de69" stroke="black" points="94,-622 -7.10543e-15,-622 -7.10543e-15,-564 94,-564 94,-622"/>
<text text-anchor="middle" x="47" y="-589.3" font-family="Times,serif" font-size="14.00">Softmax</text>
</g>
<!-- Softmax_13&#45;&gt;FullyConnected_11 -->
<g id="edge6" class="edge"><title>Softmax_13&#45;&gt;FullyConnected_11</title>
<path fill="none" stroke="black" d="M47,-553.744C47,-545.204 47,-536.298 47,-528.248"/>
<polygon fill="black" stroke="black" points="47,-563.897 42.5001,-553.897 47,-558.897 47.0001,-553.897 47.0001,-553.897 47.0001,-553.897 47,-558.897 51.5001,-553.897 47,-563.897 47,-563.897"/>
</g>
</g>
</svg>
