
<svg width="400px" height="400px" viewBox="0 0 400 400" version="1.1" xmlns="http://www.w3.org/2000/svg" xmlns:xlink="http://www.w3.org/1999/xlink">
    <!-- Generator: Sketch 51.2 (57519) - http://www.bohemiancoding.com/sketch -->
    <desc>Created with Sketch.</desc>
    <defs></defs>
    <g id="Page-1" stroke="none" stroke-width="1" fill="none" fill-rule="evenodd">
        <g id="medium" transform="translate(1.000000, 1.000000)">
            <rect id="Rectangle-path" fill="#12100E" fill-rule="nonzero" x="110" y="110" width="195" height="195"></rect>
            <path d="M35.487503,0 L362.83087,0 C382.430077,-3.84155008e-14 398.318373,15.8882963 398.318373,35.487503 L398.318373,362.79987 C398.318373,382.399077 382.430077,398.287373 362.83087,398.287373 L35.487503,398.287373 C15.8882963,398.287373 -2.60214989e-14,382.399077 -2.84217094e-14,362.79987 L-2.84217094e-14,35.487503 C-3.082192e-14,15.8882963 15.8882963,3.60031587e-15 35.487503,0 Z" id="rectblack" stroke="#000000" stroke-width="0.5" fill="#000000" stroke-linecap="square" stroke-dasharray="0.5,1" transform="translate(199.159186, 199.143686) scale(-1, 1) translate(-199.159186, -199.143686) "></path>
            <path d="M87.6255836,130.327454 C87.9883713,126.740158 86.6214595,123.194515 83.9449113,120.780129 L56.6806723,87.9100529 L56.6806723,83 L141.336134,83 L206.770308,226.619047 L264.297854,83 L345,83 L345,87.9100529 L321.689076,110.278072 C319.679418,111.81116 318.682526,114.3309 319.098974,116.824809 L319.098974,281.175192 C318.682526,283.6691 319.679418,286.188839 321.689076,287.721929 L344.454716,310.089948 L344.454716,315 L229.944912,315 L229.944912,310.089948 L253.528479,287.176367 C255.845938,284.85773 255.845938,284.17578 255.845938,280.629631 L255.845938,147.78542 L190.275443,314.454439 L181.414566,314.454439 L105.074696,147.78542 L105.074696,259.489124 C104.438202,264.185462 105.996707,268.913646 109.300654,272.309818 L139.972922,309.544386 L139.972922,314.454439 L53,314.454439 L53,309.544386 L83.6722689,272.309818 C86.9521598,268.908016 88.4197868,264.148467 87.6255836,259.489124 L87.6255836,130.327454 Z" id="Shape" fill="#FFFFFF" fill-rule="nonzero"></path>
        </g>
    </g>
</svg>
