
<svg width="400px" height="400px" viewBox="0 0 400 400" version="1.1" xmlns="http://www.w3.org/2000/svg" xmlns:xlink="http://www.w3.org/1999/xlink">
    <!-- Generator: Sketch 51.2 (57519) - http://www.bohemiancoding.com/sketch -->
    <desc>Created with Sketch.</desc>
    <defs></defs>
    <g id="Page-1" stroke="none" stroke-width="1" fill="none" fill-rule="evenodd">
        <g id="reddit">
            <path d="M36.3282318,0.856288136 L363.671599,0.856288136 C383.270805,0.856288136 399.159102,16.7445844 399.159102,36.3437911 L399.159102,363.656158 C399.159102,383.255365 383.270805,399.143661 363.671599,399.143661 L36.3282318,399.143661 C16.7290251,399.143661 0.840728814,383.255365 0.840728814,363.656158 L0.840728814,36.3437911 C0.840728814,16.7445844 16.7290251,0.856288136 36.3282318,0.856288136 Z" id="rect1942" stroke="#000000" stroke-width="0.5" fill="#6BC1FF" stroke-linecap="square" stroke-dasharray="0.5,1" transform="translate(199.999915, 199.999975) scale(-1, 1) translate(-199.999915, -199.999975) "></path>
            <path d="M98.9182625,195.795842 C98.9182625,216.073497 83.1994409,232.511781 63.8093058,232.511781 C44.4191561,232.511781 28.7003491,216.073497 28.7003491,195.795842 C28.7003491,175.518187 44.4191561,159.079903 63.8093058,159.079903 C83.1994409,159.079903 98.9182625,175.518187 98.9182625,195.795842 Z" id="path9382" stroke="#000000" stroke-width="8.00000177" fill="#FFFFFF" fill-rule="nonzero"></path>
            <path d="M362.840788,196.610147 C362.840788,216.887802 347.121966,233.326086 327.731831,233.326086 C308.341682,233.326086 292.622875,216.887802 292.622875,196.610147 C292.622875,176.332492 308.341682,159.894208 327.731831,159.894208 C347.121966,159.894208 362.840788,176.332492 362.840788,196.610147 Z" id="path9382-2" stroke="#000000" stroke-width="8.00000177" fill="#FFFFFF" fill-rule="nonzero"></path>
            <path d="M291.41222,97.3365593 C264.880288,86.4469492 237.845051,73.5440847 217.562339,87.651322 C194.075695,98.4665424 195.196,133.888712 196.98122,169.97578" id="path9944" stroke="#000000" stroke-width="10"></path>
            <path d="M341.463207,249.273588 C341.463207,305.772447 276.598119,351.573836 196.582985,351.573836 C116.567852,351.573836 51.7027636,305.772447 51.7027636,249.273588 C51.7027636,192.774729 116.567852,146.973343 196.582985,146.973343 C276.598119,146.973343 341.463207,192.774729 341.463207,249.273588 Z" id="path9940" stroke="#000000" stroke-width="8.00000094" fill="#FFFFFF" fill-rule="nonzero" stroke-linecap="round"></path>
            <path d="M338.627741,102.784492 C338.627741,121.171695 324.806012,136.077468 307.756063,136.077468 C290.706114,136.077468 276.884385,121.171695 276.884385,102.784492 C276.884385,84.3972864 290.706114,69.4915136 307.756063,69.4915136 C324.806012,69.4915136 338.627741,84.3972864 338.627741,102.784492 Z" id="path9942" stroke="#000000" stroke-width="8" fill="#FFFFFF" fill-rule="nonzero" stroke-linecap="round"></path>
            <path d="M157.23144,228.692482 C157.23144,240.393429 147.971793,249.878923 136.549435,249.878923 C125.127076,249.878923 115.867429,240.393429 115.867429,228.692482 C115.867429,216.991536 125.127076,207.506042 136.549435,207.506042 C147.971793,207.506042 157.23144,216.991536 157.23144,228.692482 Z" id="path9946" fill="#FF0000" fill-rule="nonzero"></path>
            <path d="M264.878728,226.876516 C264.878728,238.577462 255.619081,248.062957 244.196723,248.062957 C232.774364,248.062957 223.514717,238.577462 223.514717,226.876516 C223.514717,215.17557 232.774364,205.690076 244.196723,205.690076 C255.619081,205.690076 264.878728,215.17557 264.878728,226.876516 Z" id="path9946-2" fill="#FF0000" fill-rule="nonzero"></path>
            <path d="M135.237881,284.987881 C181.185237,317.445559 215.81861,304.647322 249.039339,286.198542" id="path9970" stroke="#000000" stroke-width="10" stroke-linecap="round"></path>
        </g>
    </g>
</svg>
