<svg width="400px" height="400px" viewBox="0 0 400 400" version="1.1" xmlns="http://www.w3.org/2000/svg" xmlns:xlink="http://www.w3.org/1999/xlink">
    <!-- Generator: Sketch 51.2 (57519) - http://www.bohemiancoding.com/sketch -->
    <desc>Created with Sketch.</desc>
    <defs></defs>
    <g id="Page-1" stroke="none" stroke-width="1" fill="none" fill-rule="evenodd">
        <g id="Artboard">
            <g id="twitter">
                <rect id="Rectangle-path" x="0" y="0" width="400" height="400"></rect>
                <path d="M126.850096,359 C275.461133,359 356.7451,235.876843 356.7451,129.104996 C356.7451,125.607895 356.7451,122.126546 356.50881,118.660951 C372.321871,107.223081 385.971971,93.0609024 396.819986,76.8375141 C382.073548,83.3717649 366.430326,87.6569245 350.412512,89.5499486 C367.279628,79.4521808 379.903525,63.5701431 385.934866,44.8595191 C370.074371,54.2710576 352.722585,60.9038405 334.6283,64.4716392 C309.5828,37.8400228 269.785737,31.3218411 237.55302,48.5721159 C205.320302,65.8223908 188.668049,102.551063 196.933889,138.162802 C131.968083,134.905923 71.4395677,104.220811 30.4120241,53.7440458 C8.96664743,90.6627943 19.9205305,137.892792 55.4273227,161.60283 C42.5690371,161.221733 29.9911019,157.753076 18.755021,151.489592 C18.755021,151.820399 18.755021,152.166958 18.755021,152.513518 C18.7655459,190.975216 45.8772675,224.102248 83.5774099,231.718128 C71.682062,234.962242 59.2013654,235.436465 47.0941407,233.104367 C57.6791395,266.018432 88.0129714,288.566243 122.581112,289.215508 C93.9700226,311.701425 58.6260596,323.908132 22.2363692,323.871464 C15.8077458,323.859122 9.38537499,323.469888 3.00231412,322.705763 C39.9524297,346.417944 82.9459374,358.995541 126.850096,358.936989" id="Shape" fill="#1DA1F2" fill-rule="nonzero"></path>
            </g>
        </g>
    </g>
</svg>
