
<svg width="400px" height="400px" viewBox="0 0 400 400" version="1.1" xmlns="http://www.w3.org/2000/svg" xmlns:xlink="http://www.w3.org/1999/xlink">
    <!-- Generator: Sketch 51.2 (57519) - http://www.bohemiancoding.com/sketch -->
    <desc>Created with Sketch.</desc>
    <defs>
        <linearGradient x1="10.2318718%" y1="-19.7530118%" x2="25.6424654%" y2="31.7500597%" id="linearGradient-1">
            <stop stop-color="#FFFFFF" offset="0%"></stop>
            <stop stop-color="#FFFFFF" stop-opacity="0" offset="100%"></stop>
        </linearGradient>
        <polygon id="path-2" points="0.114753626 0.0764837278 336.610637 0.0764837278 336.610637 237.099556 0.114753626 237.099556"></polygon>
    </defs>
    <g id="Page-1" stroke="none" stroke-width="1" fill="none" fill-rule="evenodd">
        <g id="Artboard">
            <g id="youtube">
                <path d="M36.487503,1 L363.83087,1 C383.430077,1 399.318373,16.8882963 399.318373,36.487503 L399.318373,363.79987 C399.318373,383.399077 383.430077,399.287373 363.83087,399.287373 L36.487503,399.287373 C16.8882963,399.287373 1,383.399077 1,363.79987 L1,36.487503 C1,16.8882963 16.8882963,1 36.487503,1 Z" id="rect1942" stroke="#000000" stroke-width="0.5" fill="#6BC1FF" stroke-linecap="square" stroke-dasharray="0.5,1" transform="translate(200.159186, 200.143686) scale(-1, 1) translate(-200.159186, -200.143686) "></path>
                <path d="M289.222022,11 L98.2479863,11 C47.6965952,11 7,52.0273853 7,102.989658 L7,289.307646 C8.63628856,329.088016 14.9303648,303.939712 26.910854,259.885624 C40.834746,208.685869 86.1806166,163.936547 141.403856,130.399473 C183.554019,104.801878 230.733029,88.4562242 316.6114,86.9012331 C365.315488,86.0194018 361.015716,23.691644 289.222022,11 Z" id="path1950" fill="url(#linearGradient-1)"></path>
                <rect id="Rectangle-path" x="0" y="0" width="400" height="400"></rect>
                <g id="Group-3" transform="translate(32.000000, 81.000000)">
                    <g id="Fill-1-Clipped">
                        <mask id="mask-3" fill="white">
                            <use xlink:href="#path-2"></use>
                        </mask>
                        <g id="path-1"></g>
                        <path d="M329.576239,37.0238605 C325.705217,22.4498862 314.300619,10.9735028 299.816799,7.07856901 C273.566907,0 168.305318,0 168.305318,0 C168.305318,0 63.0437296,0 36.7938377,7.07856901 C22.31193,10.9735028 10.9054196,22.4498862 7.03439728,37.0238605 C0,63.4375159 0,118.549778 0,118.549778 C0,118.549778 0,173.660128 7.03439728,200.077608 C10.9054196,214.64967 22.31193,226.126053 36.7938377,230.022899 C63.0437296,237.099556 168.305318,237.099556 168.305318,237.099556 C168.305318,237.099556 273.566907,237.099556 299.816799,230.022899 C314.300619,226.126053 325.705217,214.64967 329.576239,200.077608 C336.610637,173.660128 336.610637,118.549778 336.610637,118.549778 C336.610637,118.549778 336.610637,63.4375159 329.576239,37.0238605" id="Fill-1" fill="#D9252A" fill-rule="nonzero" mask="url(#mask-3)"></path>
                    </g>
                    <polyline id="Fill-4" fill="#FFFFFE" fill-rule="nonzero" points="133.452163 157 202.452163 118.501471 133.452163 80 133.452163 157"></polyline>
                </g>
            </g>
        </g>
    </g>
</svg>
