
<svg width="400px" height="400px" viewBox="0 0 400 400" version="1.1" xmlns="http://www.w3.org/2000/svg" xmlns:xlink="http://www.w3.org/1999/xlink">
    <!-- Generator: Sketch 51.2 (57519) - http://www.bohemiancoding.com/sketch -->
    <desc>Created with Sketch.</desc>
    <defs>
        <polygon id="path-1" points="0.121741102 0.0811409069 357.107232 0.0811409069 357.107232 251.536811 0.121741102 251.536811"></polygon>
    </defs>
    <g id="Page-1" stroke="none" stroke-width="1" fill="none" fill-rule="evenodd">
        <g id="Artboard">
            <g id="youtube">
                <path d="M36.487503,1 L363.83087,1 C383.430077,1 399.318373,16.8882963 399.318373,36.487503 L399.318373,363.79987 C399.318373,383.399077 383.430077,399.287373 363.83087,399.287373 L36.487503,399.287373 C16.8882963,399.287373 1,383.399077 1,363.79987 L1,36.487503 C1,16.8882963 16.8882963,1 36.487503,1 Z" id="rect1942" stroke="#000000" stroke-width="0.5" fill="#6BC1FF" stroke-linecap="square" stroke-dasharray="0.5,1" transform="translate(200.159186, 200.143686) scale(-1, 1) translate(-200.159186, -200.143686) "></path>
                <g id="Group-3" transform="translate(20.000000, 76.536160)">
                    <g id="Fill-1-Clipped">
                        <mask id="mask-2" fill="white">
                            <use xlink:href="#path-1"></use>
                        </mask>
                        <g id="path-1"></g>
                        <path d="M349.644502,39.2782845 C345.537769,23.8168847 333.438733,11.6416916 318.072977,7.50959093 C290.2247,0 178.553616,0 178.553616,0 C178.553616,0 66.8825323,0 39.0342553,7.50959093 C23.6705282,11.6416916 11.5694627,23.8168847 7.46272954,39.2782845 C0,67.3002967 0,125.768406 0,125.768406 C0,125.768406 0,184.234486 7.46272954,212.260555 C11.5694627,227.719927 23.6705282,239.89512 39.0342553,244.029249 C66.8825323,251.536811 178.553616,251.536811 178.553616,251.536811 C178.553616,251.536811 290.2247,251.536811 318.072977,244.029249 C333.438733,239.89512 345.537769,227.719927 349.644502,212.260555 C357.107232,184.234486 357.107232,125.768406 357.107232,125.768406 C357.107232,125.768406 357.107232,67.3002967 349.644502,39.2782845" id="Fill-1" fill="#D9252A" fill-rule="nonzero" mask="url(#mask-2)"></path>
                    </g>
                </g>
                <polyline id="Fill-4" fill="#FFFFFE" fill-rule="nonzero" points="168 248 243 206.001605 168 164 168 248"></polyline>
                <rect id="Rectangle-path" x="0" y="0" width="400" height="400"></rect>
            </g>
        </g>
    </g>
</svg>
