<svg xmlns="http://www.w3.org/2000/svg" enable-background="new 0 0 64 64" height="64" width="64" style=""><rect id="backgroundrect" width="100%" height="100%" x="0" y="0" fill="none" stroke="none"/><g class="currentLayer" style=""><title>Layer 1</title><g fill="#ffeaa7" id="svg_1"><path d="m20 56v6h-18v-12h18z" id="svg_2"/><path d="m62 2v12h-18v-6-6z" id="svg_3"/><path d="m11 3 8 6-8 6-8-6z" id="svg_4"/><path d="m62 26v12h-10v-6-6z" id="svg_5"/><circle cx="8" cy="32" r="6" id="svg_6"/><circle cx="56" cy="56" r="6" id="svg_7"/></g><path d="m41.41 35.59c.37.36.59.86.59 1.41 0 1.1-.9 2-2 2h-16c-.55 0-1.05-.22-1.41-.59-.37-.36-.59-.86-.59-1.41 0-1.1.9-2 2-2h16c.55 0 1.05.22 1.41.59z" fill="#5cd6b3" id="svg_8"/><path d="m41.41 25.59c.37.36.59.86.59 1.41 0 1.1-.9 2-2 2h-16c-.55 0-1.05-.22-1.41-.59-.37-.36-.59-.86-.59-1.41 0-1.1.9-2 2-2h16c.55 0 1.05.22 1.41.59z" fill="#5cd6b3" id="svg_9"/><path d="m45 41v2c0 1.1-.9 2-2 2h-8-6-8c-1.1 0-2-.9-2-2v-2c0-1.1.9-2 2-2h3 16 3c1.1 0 2 .9 2 2z" fill="#fcd770" id="svg_10"/><path d="m45 32v1c0 1.1-.9 2-2 2h-3-16-3c-1.1 0-2-.9-2-2v-1-1c0-1.1.9-2 2-2h3 16 3c1.1 0 2 .9 2 2z" fill="#fcd770" id="svg_11"/><path d="m45 21v2c0 1.1-.9 2-2 2h-3-16-3c-1.1 0-2-.9-2-2v-2c0-1.1.9-2 2-2h8 6 8c1.1 0 2 .9 2 2z" fill="#fcd770" id="svg_12"/><path d="m54 57h4v2h-4z" id="svg_13" class="" fill="#b6b6b6" fill-opacity="1" transform="translate(-0.37593984603881836,0) "/><path d="m54 53h4v2h-4z" id="svg_14" class="" fill="#b6b6b6" fill-opacity="1" transform="translate(-0.37593984603881836,0) "/><path d="m5.624060153961182,30.879699230194092 h4 v2 h-4 z" id="svg_16" class="" fill="#b6b6b6" fill-opacity="1"/><path d="m62.62406015396118,15 v-14 h-20 v6 h-4 c-2.757,0 -5,2.243 -5,5 v6 h-4 v-5 c0,-2.757 -2.243,-5 -5,-5 h-5.666 l-8.334,-6.25 l-9.667,7.25 l9.667,7.25 l8.334,-6.25 h5.666 c1.6540000000000001,0 3,1.346 3,3 v5 h-7 c-1.6540000000000001,0 -3,1.346 -3,3 v2 c0,1.6540000000000001 1.346,3 3,3 h0.18400000000000002 c-0.11200000000000002,0.31400000000000006 -0.18400000000000002,0.6480000000000001 -0.18400000000000002,1 s0.07200000000000001,0.6860000000000002 0.18400000000000002,1 h-0.18400000000000002 c-1.6540000000000001,0 -3,1.346 -3,3 h-3.08 c-0.48800000000000004,-3.387 -3.401,-6 -6.92,-6 c-3.859,0 -7,3.14 -7,7 s3.141,7 7,7 c3.519,0 6.432,-2.613 6.92,-6 h3.08 c0,1.6540000000000001 1.346,3 3,3 h0.18400000000000002 c-0.11200000000000002,0.31400000000000006 -0.18400000000000002,0.6480000000000001 -0.18400000000000002,1 s0.07200000000000001,0.6860000000000002 0.18400000000000002,1 h-0.18400000000000002 c-1.6540000000000001,0 -3,1.346 -3,3 v2 c0,1.6540000000000001 1.346,3 3,3 h7 v6 c0,1.6540000000000001 -1.346,3 -3,3 h-4 v-6 h-20 v14 h20 v-6 h4 c2.757,0 5,-2.243 5,-5 v-6 h4 v6 c0,2.757 2.243,5 5,5 h10.08 c0.48800000000000004,3.387 3.401,6 6.92,6 c3.859,0 7,-3.14 7,-7 s-3.141,-7 -7,-7 c-3.519,0 -6.432,2.613 -6.92,6 h-10.08 c-1.6540000000000001,0 -3,-1.346 -3,-3 v-6 h7 c1.6540000000000001,0 3,-1.346 3,-3 v-2 c0,-1.6540000000000001 -1.346,-3 -3,-3 h-0.18400000000000002 c0.11200000000000002,-0.31400000000000006 0.18400000000000002,-0.6480000000000001 0.18400000000000002,-1 s-0.07200000000000001,-0.6860000000000002 -0.18400000000000002,-1 h0.18400000000000002 c1.6540000000000001,0 3,-1.346 3,-3 h5 v6 h12 v-14 h-12 v6 h-5 c0,-1.6540000000000001 -1.346,-3 -3,-3 h-0.18400000000000002 c0.11200000000000002,-0.31400000000000006 0.18400000000000002,-0.6480000000000001 0.18400000000000002,-1 s-0.07200000000000001,-0.6860000000000002 -0.18400000000000002,-1 h0.18400000000000002 c1.6540000000000001,0 3,-1.346 3,-3 v-2 c0,-1.6540000000000001 -1.346,-3 -3,-3 h-7 v-6 c0,-1.6540000000000001 1.346,-3 3,-3 h4 v6 zm-52,-1.25 l-6.333,-4.75 l6.333,-4.75 l6.333,4.75 zm-3,23.25 c-2.757,0 -5,-2.243 -5,-5 s2.243,-5 5,-5 s5,2.243 5,5 s-2.243,5 -5,5 zm11,24 h-16 v-10 h16 zm37,-10 c2.757,0 5,2.243 5,5 s-2.243,5 -5,5 s-5,-2.243 -5,-5 s2.243,-5 5,-5 zm-3,-24 h8 v10 h-8 zm-9,14 v2 c0,0.551 -0.44800000000000006,1 -1,1 h-22 c-0.552,0 -1,-0.44900000000000007 -1,-1 v-2 c0,-0.551 0.44800000000000006,-1 1,-1 h3 h16 h3 c0.552,0 1,0.44900000000000007 1,1 zm-3,-4 c0,0.551 -0.44800000000000006,1 -1,1 h-16 c-0.552,0 -1,-0.44900000000000007 -1,-1 s0.44800000000000006,-1 1,-1 h16 c0.552,0 1,0.44900000000000007 1,1 zm3,-6 v2 c0,0.551 -0.44800000000000006,1 -1,1 h-3 h-16 h-3 c-0.552,0 -1,-0.44900000000000007 -1,-1 v-2 c0,-0.551 0.44800000000000006,-1 1,-1 h3 h16 h3 c0.552,0 1,0.44900000000000007 1,1 zm-3,-4 c0,0.551 -0.44800000000000006,1 -1,1 h-16 c-0.552,0 -1,-0.44900000000000007 -1,-1 s0.44800000000000006,-1 1,-1 h16 c0.552,0 1,0.44900000000000007 1,1 zm3,-6 v2 c0,0.551 -0.44800000000000006,1 -1,1 h-3 h-16 h-3 c-0.552,0 -1,-0.44900000000000007 -1,-1 v-2 c0,-0.551 0.44800000000000006,-1 1,-1 h22 c0.552,0 1,0.44900000000000007 1,1 zm1,-18 h16 v10 h-16 z" id="svg_17" class="" stroke="#ffffff" stroke-opacity="1" fill="#6d6d6d" fill-opacity="1" stroke-width="0" opacity="1"/><path d="m5 53h2v2h-2z" id="svg_18" class="selected" fill="#b6b6b6" fill-opacity="1"/><path d="m9 53h2v2h-2z" id="svg_19" class="" fill="#b6b6b6" fill-opacity="1"/><path d="m13 53h4v2h-4z" id="svg_20" class="" fill="#b6b6b6" fill-opacity="1"/><path d="m5 57h12v2h-12z" id="svg_21" class="" fill="#b6b6b6" fill-opacity="1"/><path d="m47.37593984603882,5 h12 v2 h-12 z" id="svg_22" class="" fill="#b6b6b6" fill-opacity="1" transform="translate(-0.7518796920776367,0.37593984603881836) "/><path d="m47 9h12v2h-12z" id="svg_23" class="" fill="#b6b6b6" fill-opacity="1" transform="translate(-0.37593984603881836,0) "/><path d="m8 8h6v2h-6z" id="svg_24" class="" fill="#b6b6b6" fill-opacity="1"/><path d="m55 29h4v2h-4z" id="svg_25" class="" fill="#b6b6b6" fill-opacity="1" transform="translate(-0.37593984603881836,0.37593984603881836) "/><path d="m55 33h4v2h-4z" id="svg_26" class="" fill="#b6b6b6" fill-opacity="1" transform="translate(-0.37593984603881836,0) "/></g></svg>