<svg id="Layer_35" enable-background="new 0 0 64 64" height="512" viewBox="0 0 64 64" width="512" xmlns="http://www.w3.org/2000/svg"><g fill="#ffeaa7"><path d="m20 56v6h-18v-12h18z"/><path d="m62 2v12h-18v-6-6z"/><path d="m11 3 8 6-8 6-8-6z"/><path d="m62 26v12h-10v-6-6z"/><circle cx="8" cy="32" r="6"/><circle cx="56" cy="56" r="6"/></g><path d="m41.41 35.59c.37.36.59.86.59 1.41 0 1.1-.9 2-2 2h-16c-.55 0-1.05-.22-1.41-.59-.37-.36-.59-.86-.59-1.41 0-1.1.9-2 2-2h16c.55 0 1.05.22 1.41.59z" fill="#5cd6b3"/><path d="m41.41 25.59c.37.36.59.86.59 1.41 0 1.1-.9 2-2 2h-16c-.55 0-1.05-.22-1.41-.59-.37-.36-.59-.86-.59-1.41 0-1.1.9-2 2-2h16c.55 0 1.05.22 1.41.59z" fill="#5cd6b3"/><path d="m45 41v2c0 1.1-.9 2-2 2h-8-6-8c-1.1 0-2-.9-2-2v-2c0-1.1.9-2 2-2h3 16 3c1.1 0 2 .9 2 2z" fill="#fcd770"/><path d="m45 32v1c0 1.1-.9 2-2 2h-3-16-3c-1.1 0-2-.9-2-2v-1-1c0-1.1.9-2 2-2h3 16 3c1.1 0 2 .9 2 2z" fill="#fcd770"/><path d="m45 21v2c0 1.1-.9 2-2 2h-3-16-3c-1.1 0-2-.9-2-2v-2c0-1.1.9-2 2-2h8 6 8c1.1 0 2 .9 2 2z" fill="#fcd770"/><path d="m54 57h4v2h-4z"/><path d="m54 53h4v2h-4z"/><path d="m6 33h4v2h-4z"/><path d="m6 29h4v2h-4z"/><path d="m63 15v-14h-20v6h-4c-2.757 0-5 2.243-5 5v6h-4v-5c0-2.757-2.243-5-5-5h-5.666l-8.334-6.25-9.667 7.25 9.667 7.25 8.334-6.25h5.666c1.654 0 3 1.346 3 3v5h-7c-1.654 0-3 1.346-3 3v2c0 1.654 1.346 3 3 3h.184c-.112.314-.184.648-.184 1s.072.686.184 1h-.184c-1.654 0-3 1.346-3 3h-3.08c-.488-3.387-3.401-6-6.92-6-3.859 0-7 3.14-7 7s3.141 7 7 7c3.519 0 6.432-2.613 6.92-6h3.08c0 1.654 1.346 3 3 3h.184c-.112.314-.184.648-.184 1s.072.686.184 1h-.184c-1.654 0-3 1.346-3 3v2c0 1.654 1.346 3 3 3h7v6c0 1.654-1.346 3-3 3h-4v-6h-20v14h20v-6h4c2.757 0 5-2.243 5-5v-6h4v6c0 2.757 2.243 5 5 5h10.08c.488 3.387 3.401 6 6.92 6 3.859 0 7-3.14 7-7s-3.141-7-7-7c-3.519 0-6.432 2.613-6.92 6h-10.08c-1.654 0-3-1.346-3-3v-6h7c1.654 0 3-1.346 3-3v-2c0-1.654-1.346-3-3-3h-.184c.112-.314.184-.648.184-1s-.072-.686-.184-1h.184c1.654 0 3-1.346 3-3h5v6h12v-14h-12v6h-5c0-1.654-1.346-3-3-3h-.184c.112-.314.184-.648.184-1s-.072-.686-.184-1h.184c1.654 0 3-1.346 3-3v-2c0-1.654-1.346-3-3-3h-7v-6c0-1.654 1.346-3 3-3h4v6zm-52-1.25-6.333-4.75 6.333-4.75 6.333 4.75zm-3 23.25c-2.757 0-5-2.243-5-5s2.243-5 5-5 5 2.243 5 5-2.243 5-5 5zm11 24h-16v-10h16zm37-10c2.757 0 5 2.243 5 5s-2.243 5-5 5-5-2.243-5-5 2.243-5 5-5zm-3-24h8v10h-8zm-9 14v2c0 .551-.448 1-1 1h-22c-.552 0-1-.449-1-1v-2c0-.551.448-1 1-1h3 16 3c.552 0 1 .449 1 1zm-3-4c0 .551-.448 1-1 1h-16c-.552 0-1-.449-1-1s.448-1 1-1h16c.552 0 1 .449 1 1zm3-6v2c0 .551-.448 1-1 1h-3-16-3c-.552 0-1-.449-1-1v-2c0-.551.448-1 1-1h3 16 3c.552 0 1 .449 1 1zm-3-4c0 .551-.448 1-1 1h-16c-.552 0-1-.449-1-1s.448-1 1-1h16c.552 0 1 .449 1 1zm3-6v2c0 .551-.448 1-1 1h-3-16-3c-.552 0-1-.449-1-1v-2c0-.551.448-1 1-1h22c.552 0 1 .449 1 1zm1-18h16v10h-16z"/><path d="m5 53h2v2h-2z"/><path d="m9 53h2v2h-2z"/><path d="m13 53h4v2h-4z"/><path d="m5 57h12v2h-12z"/><path d="m47 5h12v2h-12z"/><path d="m47 9h12v2h-12z"/><path d="m8 8h6v2h-6z"/><path d="m55 29h4v2h-4z"/><path d="m55 33h4v2h-4z"/></svg>