<svg id="Layers_1_" enable-background="new 0 0 64 64" height="512" viewBox="0 0 64 64" width="512" xmlns="http://www.w3.org/2000/svg"><path d="m46 25v14c0 .552.447 1 1 1s1-.448 1-1v-14c0-.552-.447-1-1-1s-1 .448-1 1z"/><path d="m55 36c-.553 0-1 .448-1 1v11h-18c-.334 0-.647.167-.832.445l-3.168 4.752-3.168-4.752c-.186-.278-.498-.445-.832-.445h-18v-11c0-.552-.447-1-1-1s-1 .448-1 1v11c0 1.103.897 2 2 2h17.465l3.703 5.555c.185.278.498.445.832.445s.646-.167.832-.445l3.703-5.555h17.465c1.102 0 2-.897 2-2v-11c0-.552-.447-1-1-1z"/><path d="m54 14h-17.465l-3.703-5.555c-.371-.557-1.293-.557-1.664 0l-3.703 5.555h-17.465c-1.103 0-2 .897-2 2v11c0 .552.447 1 1 1s1-.448 1-1v-11h18c.334 0 .646-.167.832-.445l3.168-4.752 3.168 4.752c.185.278.498.445.832.445h18v11c0 .552.447 1 1 1s1-.448 1-1v-11c0-1.103-.898-2-2-2z"/><path d="m25 40c.553 0 1-.448 1-1v-13c0-1.103-.898-2-2-2h-8c-1.103 0-2 .897-2 2v13c0 .552.447 1 1 1s1-.448 1-1v-5h8v5c0 .552.447 1 1 1zm-9-8v-6h8v6z"/><path d="m32 24c-1.103 0-2 .897-2 2v13c0 .552.447 1 1 1s1-.448 1-1v-5h8c1.102 0 2-.897 2-2v-6c0-1.103-.898-2-2-2zm8 8h-8v-6h8z"/><path d="m52 19c0-.552-.447-1-1-1h-38c-.553 0-1 .448-1 1s.447 1 1 1h38c.553 0 1-.448 1-1z"/><path d="m13 46h38c.553 0 1-.448 1-1s-.447-1-1-1h-38c-.553 0-1 .448-1 1s.447 1 1 1z"/><circle cx="55" cy="32" r="1"/><circle cx="9" cy="32" r="1"/></svg>