<?xml version="1.0" encoding="iso-8859-1"?>
<!-- Generator: Adobe Illustrator 22.1.0, SVG Export Plug-In . SVG Version: 6.00 Build 0)  -->
<svg xmlns="http://www.w3.org/2000/svg" xmlns:xlink="http://www.w3.org/1999/xlink" version="1.1" id="Layer_1_1_" x="0px" y="0px" viewBox="0 0 64 64" style="enable-background:new 0 0 64 64;" xml:space="preserve" width="512" height="512">
<g>
	<g>
		<path style="fill:#F0BC5E;" d="M43,17.279l-2.456-0.818l1.158-2.315l-3.848-3.848l-2.315,1.158L34.721,9h-5.441l-0.818,2.456    l-2.315-1.158l-3.848,3.848l1.158,2.315L21,17.279v5.441l2.456,0.818l-1.158,2.315l3.848,3.848l2.315-1.158L29.279,31h5.441    l0.818-2.456l2.315,1.158l3.848-3.848l-1.158-2.315L43,22.721V17.279z M32,24c-2.209,0-4-1.791-4-4c0-2.209,1.791-4,4-4    s4,1.791,4,4C36,22.209,34.209,24,32,24z"/>
	</g>
	<g>
		<path d="M32,15c-2.757,0-5,2.243-5,5s2.243,5,5,5s5-2.243,5-5S34.757,15,32,15z M32,23c-1.654,0-3-1.346-3-3s1.346-3,3-3    s3,1.346,3,3S33.654,23,32,23z"/>
		<path d="M17,35h5v4h2v-4h4v4h2v-4h4v4h2v-4h4v4h2v-4h5v-5h4v-2h-4v-4h4v-2h-4v-4h4v-2h-4v-4h4v-2h-4V5h-5V1h-2v4h-4V1h-2v4h-4V1    h-2v4h-4V1h-2v4h-0.414L17,9.586V10h-4v2h4v4h-4v2h4v4h-4v2h4v4h-4v2h4V35z M19,10.414L22.414,7H45v26H19V10.414z"/>
		<path d="M59,18v-6h-6v2h4v39H33V41h-2v12H7V14h4v-2H5v6H1v41h26.101c0.464,2.279,2.485,4,4.899,4s4.435-1.721,4.899-4H63V18H59z     M61,57H35v1c0,1.654-1.346,3-3,3s-3-1.346-3-3v-1H3V20h2v35h54V20h2V57z"/>
		<rect x="9" y="41" width="20" height="2"/>
		<rect x="9" y="45" width="20" height="2"/>
		<rect x="9" y="49" width="20" height="2"/>
		<rect x="35" y="41" width="20" height="2"/>
		<rect x="35" y="45" width="20" height="2"/>
		<rect x="35" y="49" width="20" height="2"/>
	</g>
</g>
</svg>
