<svg height="504pt" viewBox="-4 0 504 504" width="504pt" xmlns="http://www.w3.org/2000/svg"><path d="m488 232v224h-200c0 22.078125-17.921875 40-40 40s-40-17.921875-40-40h-200v-224h32v176h116.800781c33.121094 0 65.277344 11.28125 91.199219 32 12.960938-10.398438 27.519531-18.398438 42.878906-23.761719 15.441406-5.4375 31.761719-8.238281 48.320313-8.238281h116.800781v-176zm0 0" fill="#fcd770"/><path d="m456 232v176h-116.800781c-16.558594 0-32.878907 2.800781-48.320313 8.238281-15.359375 5.363281-29.917968 13.363281-42.878906 23.761719v-184c25.601562-25.601562 60.320312-40 96.558594-40h31.441406v56h-72v64h86.398438l9.601562 16 24-40v-96h32zm0 0" fill="#e6e9ed"/><path d="m176 218.238281c13.601562 2.480469 26.640625 6.960938 38.71875 13.363281 12.160156 6.320313 23.359375 14.476563 33.28125 24.398438v184c-25.921875-20.71875-58.078125-32-91.199219-32h-116.800781v-192h32.160156c-.082031 1.28125-.160156 2.640625-.160156 3.921875v60.078125h104v-60.078125c0-.5625 0-1.121094-.078125-1.683594zm0 0" fill="#e6e9ed"/><g fill="#ef7385"><path d="m318.640625 62.480469c-2.480469 5.597656-8.160156 9.519531-14.640625 9.519531-2.398438 0-4.640625-.558594-6.71875-1.519531-5.441406-2.480469-9.28125-8.082031-9.28125-14.480469 0-8.800781 7.199219-16 16-16s16 7.199219 16 16c0 1.921875-.320312 3.839844-1.039062 5.519531-.082032.320313-.160157.640625-.320313.960938zm0 0"/><path d="m262.71875 145.519531c5.441406 2.480469 9.28125 8.082031 9.28125 14.480469 0 8.800781-7.199219 16-16 16s-16-7.199219-16-16c0-4.398438 1.761719-8.398438 4.71875-11.28125 2.882812-2.957031 6.882812-4.71875 11.28125-4.71875 2.398438 0 4.640625.558594 6.71875 1.519531zm0 0"/><path d="m203.28125 107.28125c-2.882812 2.957031-6.882812 4.71875-11.28125 4.71875-8.800781 0-16-7.199219-16-16 0-2.71875.71875-5.359375 1.921875-7.601562 2.71875-4.957032 8-8.398438 14.078125-8.398438 8.800781 0 16 7.199219 16 16 0 4.398438-1.761719 8.398438-4.71875 11.28125zm0 0"/><path d="m176 56v20.078125c0 4.082031-.480469 8.082031-1.601562 11.921875h-100.796876c-1.121093-3.839844-1.601562-7.839844-1.601562-11.921875v-28.078125h104zm0 0"/><path d="m175.839844 216c.082031.800781.082031 1.519531.082031 2.238281.078125.5625.078125 1.121094.078125 1.683594v4.078125h-104v-4.078125c0-1.28125.078125-2.640625.160156-3.921875.878906-11.359375 5.839844-22 13.917969-30.078125l37.921875-37.921875 37.921875 37.921875c8.078125 8.078125 13.039063 18.71875 13.917969 30.078125zm0 0"/><path d="m72 248h104v32h-104zm0 0"/><path d="m376 312 14.398438 24h-86.398438v-64h72zm0 0"/></g><path d="m376 312h48l-24 40-9.601562-16zm0 0" fill="#969faa"/><path d="m424 216v96h-48v-131.359375c7.601562 2.238281 15.679688 3.359375 24 3.359375s16.398438-1.121094 24-3.359375zm0 0" fill="#fcd770"/><path d="m424 180.640625c-7.601562 2.238281-15.679688 3.359375-24 3.359375s-16.398438-1.121094-24-3.359375c-36.960938-10.402344-64-44.320313-64-84.640625 0-11.921875 2.320312-23.199219 6.640625-33.519531.160156-.320313.238281-.640625.320313-.960938 13.4375-31.519531 44.640624-53.519531 81.039062-53.519531 48.640625 0 88 39.359375 88 88 0 40.320312-27.039062 74.238281-64 84.640625zm0 0" fill="#e6e9ed"/><path d="m456 96c0 12.558594-4.160156 24.160156-11.199219 33.519531l-11.28125 11.28125c-9.359375 7.039063-20.960937 11.199219-33.519531 11.199219-30.960938 0-56-25.039062-56-56 0-12.558594 4.160156-24.160156 11.199219-33.519531l11.28125-11.28125c9.359375-7.039063 20.960937-11.199219 33.519531-11.199219 30.960938 0 56 25.039062 56 56zm0 0" fill="#69d6f4"/><path d="m464 208h-32v-21.566406c37.960938-13.394532 64-49.699219 64-90.433594 0-52.9375-43.0625-96-96-96-31.472656 0-60.351562 15.257812-78.136719 40.128906-4.398437-4.945312-10.734375-8.128906-17.863281-8.128906-13.230469 0-24 10.769531-24 24 0 6.566406 2.742188 12.695312 7.296875 17.128906l-29.082031 63.054688c-4.351563-.398438-8.679688.390625-12.511719 2.207031l-32.101563-32.101563c1.519532-3.167968 2.398438-6.640624 2.398438-10.289062 0-13.230469-10.769531-24-24-24-2.792969 0-5.449219.640625-8 1.558594v-73.558594h-16v16h-88v-16h-16v76.078125c0 5.050781.648438 9.816406 1.824219 13.792969 2.335937 9.703125 7.382812 18.648437 14.601562 25.863281l32.261719 32.265625-32.261719 32.265625c-7.632812 7.628906-12.722656 17.285156-14.992187 27.734375h-33.433594v16h-32v240h200.664062c3.824219 22.671875 23.59375 40 47.335938 40s43.511719-17.328125 47.335938-40h200.664062v-240h-32zm-16 16v176h-108.800781c-17.472657 0-34.613281 2.929688-50.953125 8.6875-11.390625 3.976562-22.167969 9.289062-32.246094 15.777344v-164.9375c24.007812-22.871094 55.289062-35.527344 88.558594-35.527344h23.441406v40h-72v80h89.871094l14.128906 23.542969 32-53.328125v-90.214844zm-280.03125 48h-87.96875v-16h87.953125zm15.222656-60.359375c-1.742187-11.785156-7.070312-22.839844-15.605468-31.375l-32.273438-32.265625 32.261719-32.265625c1.808593-1.804687 3.480469-3.726563 5.011719-5.734375 4.367187 6.03125 11.414062 10 19.414062 10 3.664062 0 7.144531-.886719 10.296875-2.390625l32.101563 32.101563c-1.519532 3.167968-2.398438 6.640624-2.398438 10.289062 0 13.230469 10.769531 24 24 24s24-10.769531 24-24c0-6.566406-2.742188-12.695312-7.296875-17.128906l29.105469-63.109375c.734375.0625 1.457031.238281 2.191406.238281.480469 0 .953125-.078125 1.433594-.105469-.890625 5.273438-1.433594 10.632813-1.433594 16.105469 0 40.761719 26.078125 77.089844 64 90.441406v21.558594h-23.441406c-36.007813 0-70 13.070312-96.558594 36.984375-8.976562-8.046875-18.886719-14.921875-29.527344-20.449219-11.046875-5.855468-22.914062-10.109375-35.28125-12.894531zm193.082032 116.359375h-64.273438v-48h56v34.214844zm13.855468-8h19.742188l-9.871094 16.457031zm25.871094-16h-32v-113.375c5.199219.878906 10.542969 1.375 16 1.375 5.464844 0 10.808594-.496094 16-1.375zm-16-288c44.113281 0 80 35.886719 80 80 0 35.664062-23.921875 67.304688-58.257812 76.96875-13.671876 4.03125-29.71875 4.054688-43.574219-.023438-34.246094-9.640624-58.167969-41.28125-58.167969-76.945312 0-10.648438 2.023438-20.886719 6.023438-30.433594l-.03125-.015625c.152343-.359375.28125-.695312.382812-1.015625 12.632812-29.488281 41.511719-48.535156 73.625-48.535156zm-96 32c4.414062 0 8 3.59375 8 8 0 1.246094-.246094 2.007812-.382812 2.359375 0 .007813-.007813.015625-.007813.023437l-.28125.847657c-1.726563 3.882812-6.433594 5.96875-10.6875 3.984375l-.039063-.015625c-2.753906-1.253907-4.601562-4.152344-4.601562-7.199219 0-4.40625 3.585938-8 8-8zm-48 104c1.128906 0 2.222656.257812 3.359375.785156l.039063.015625c2.753906 1.253907 4.601562 4.152344 4.601562 7.199219 0 4.40625-3.585938 8-8 8s-8-3.59375-8-8c0-2.136719.824219-4.105469 2.449219-5.695312 1.445312-1.488282 3.414062-2.304688 5.550781-2.304688zm-64-64c4.414062 0 8 3.59375 8 8 0 2.136719-.824219 4.105469-2.449219 5.695312-1.445312 1.488282-3.414062 2.304688-5.550781 2.304688-4.414062 0-8-3.59375-8-8 0-1.28125.335938-2.625.953125-3.785156 1.4375-2.597656 4.144531-4.214844 7.046875-4.214844zm-24-56v16h-32v16h32v12.078125c0 1.355469-.128906 2.632813-.257812 3.921875h-87.496094c-.125-1.28125-.246094-2.558594-.246094-3.921875v-12.078125h40v-16h-40v-16zm-76.265625 72.425781c-2.527344-2.53125-4.671875-5.355469-6.40625-8.425781h77.367187c-1.734374 3.039062-3.886718 5.878906-6.429687 8.425781l-32.265625 32.261719zm32.265625 54.886719 32.265625 32.261719c4.613281 4.617187 7.886719 10.28125 9.804687 16.425781h-30.070312v16h31.929688l.015624 16h-87.945312v-16h40v-16h-38.089844c1.914063-6.113281 5.195313-11.792969 9.824219-16.425781zm-76 64.6875h16v88h16v-24h87.976562l.023438 24h16v-83.800781c9.433594 2.464843 18.488281 5.96875 27.03125 10.496093 10.59375 5.511719 20.296875 12.535157 28.96875 20.785157v165.039062c-24.734375-15.847656-53.71875-24.519531-83.199219-24.519531h-108.800781zm432 16v208h-200v8c0 17.648438-14.351562 32-32 32s-32-14.351562-32-32v-8h-200v-208h16v176h124.800781c31.183594 0 61.808594 10.742188 86.207031 30.246094l5 4 5-4.007813c12.160157-9.757812 25.792969-17.308593 40.535157-22.453125 14.648437-5.167968 30.007812-7.785156 45.65625-7.785156h124.800781v-176zm0 0"/><path d="m64 328h48v16h-48zm0 0"/><path d="m128 328h56v16h-56zm0 0"/><path d="m64 360h120v16h-120zm0 0"/><path d="m296 360h80v16h-80zm0 0"/><path d="m400 160c13.929688 0 27.175781-4.425781 38.328125-12.808594l-9.609375-12.792968c-8.351562 6.28125-18.277344 9.601562-28.71875 9.601562-26.472656 0-48-21.527344-48-48 0-10.449219 3.320312-20.367188 9.59375-28.703125l-12.785156-9.625c-8.375 11.128906-12.808594 24.382813-12.808594 38.328125 0 35.289062 28.710938 64 64 64zm0 0"/><path d="m400 48c26.472656 0 48 21.527344 48 48 0 10.449219-3.320312 20.367188-9.59375 28.703125l12.785156 9.625c8.375-11.128906 12.808594-24.382813 12.808594-38.328125 0-35.289062-28.710938-64-64-64-13.929688 0-27.175781 4.425781-38.328125 12.808594l9.609375 12.792968c8.351562-6.28125 18.277344-9.601562 28.71875-9.601562zm0 0"/></svg>