<svg height="512.00001pt" viewBox="0 0 512.00001 512.00001" width="512.00001pt" xmlns="http://www.w3.org/2000/svg"><g fill="#b3e4e8"><path d="m119.464844 51.199219c0 9.425781-7.640625 17.066406-17.066406 17.066406-9.425782 0-17.066407-7.640625-17.066407-17.066406s7.640625-17.066407 17.066407-17.066407c9.425781 0 17.066406 7.640626 17.066406 17.066407zm0 0"/><path d="m273.066406 25.601562c0 9.425782-7.640625 17.066407-17.066406 17.066407s-17.066406-7.640625-17.066406-17.066407c0-9.425781 7.640625-17.066406 17.066406-17.066406s17.066406 7.640625 17.066406 17.066406zm0 0"/><path d="m426.667969 51.199219c0 9.425781-7.644531 17.066406-17.066407 17.066406-9.425781 0-17.070312-7.640625-17.070312-17.066406s7.644531-17.066407 17.070312-17.066407c9.421876 0 17.066407 7.640626 17.066407 17.066407zm0 0"/><path d="m42.667969 256c0 9.425781-7.640625 17.066406-17.066407 17.066406-9.425781 0-17.066406-7.640625-17.066406-17.066406s7.640625-17.066406 17.066406-17.066406c9.425782 0 17.066407 7.640625 17.066407 17.066406zm0 0"/><path d="m59.734375 375.464844c0 9.425781-7.640625 17.066406-17.066406 17.066406s-17.066407-7.640625-17.066407-17.066406c0-9.425782 7.640626-17.066406 17.066407-17.066406s17.066406 7.640624 17.066406 17.066406zm0 0"/><path d="m59.734375 136.535156c0 9.421875-7.640625 17.066406-17.066406 17.066406s-17.066407-7.644531-17.066407-17.066406c0-9.425781 7.640626-17.070312 17.066407-17.070312s17.066406 7.644531 17.066406 17.070312zm0 0"/><path d="m486.398438 375.464844c0 9.425781-7.640626 17.066406-17.066407 17.066406s-17.066406-7.640625-17.066406-17.066406c0-9.425782 7.640625-17.066406 17.066406-17.066406s17.066407 7.640624 17.066407 17.066406zm0 0"/><path d="m503.464844 256c0 9.425781-7.640625 17.066406-17.066406 17.066406-9.425782 0-17.066407-7.640625-17.066407-17.066406s7.640625-17.066406 17.066407-17.066406c9.425781 0 17.066406 7.640625 17.066406 17.066406zm0 0"/><path d="m486.398438 136.535156c0 9.421875-7.640626 17.066406-17.066407 17.066406s-17.066406-7.644531-17.066406-17.066406c0-9.425781 7.640625-17.070312 17.066406-17.070312s17.066407 7.644531 17.066407 17.070312zm0 0"/><path d="m119.464844 460.800781c0 9.425781-7.640625 17.066407-17.066406 17.066407-9.425782 0-17.066407-7.640626-17.066407-17.066407s7.640625-17.066406 17.066407-17.066406c9.425781 0 17.066406 7.640625 17.066406 17.066406zm0 0"/><path d="m273.066406 486.398438c0 9.425781-7.640625 17.066406-17.066406 17.066406s-17.066406-7.640625-17.066406-17.066406c0-9.425782 7.640625-17.066407 17.066406-17.066407s17.066406 7.640625 17.066406 17.066407zm0 0"/><path d="m426.667969 460.800781c0 9.425781-7.644531 17.066407-17.066407 17.066407-9.425781 0-17.070312-7.640626-17.070312-17.066407s7.644531-17.066406 17.070312-17.066406c9.421876 0 17.066407 7.640625 17.066407 17.066406zm0 0"/></g><path d="m162.132812 110.933594h-17.066406v-51.199219h-25.601562v-17.066406h42.667968zm0 0" fill="#8aced8"/><path d="m366.933594 110.933594h-17.066406v-68.265625h42.664062v17.066406h-25.597656zm0 0" fill="#8aced8"/><path d="m247.464844 42.667969h17.070312v68.265625h-17.070312zm0 0" fill="#f7e4ba"/><path d="m42.667969 247.464844h68.265625v17.070312h-68.265625zm0 0" fill="#8aced8"/><path d="m62.171875 366.933594h48.761719v17.066406h-48.761719zm0 0" fill="#f7e4ba"/><path d="m62.171875 128h48.761719v17.066406h-48.761719zm0 0" fill="#f7e4ba"/><path d="m392.53125 366.933594h59.734375v17.066406h-59.734375zm0 0" fill="#f7e4ba"/><path d="m392.53125 128h59.734375v17.066406h-59.734375zm0 0" fill="#f7e4ba"/><path d="m392.53125 247.464844h76.800781v17.070312h-76.800781zm0 0" fill="#8aced8"/><path d="m162.132812 469.332031h-42.667968v-17.066406h25.601562v-51.199219h17.066406zm0 0" fill="#8aced8"/><path d="m392.53125 469.332031h-42.664062v-68.265625h17.066406v51.199219h25.597656zm0 0" fill="#8aced8"/><path d="m247.464844 401.066406h17.070312v68.265625h-17.070312zm0 0" fill="#f7e4ba"/><path d="m102.398438 102.398438h307.203124v307.203124h-307.203124zm0 0" fill="#f4ca62"/><path d="m170.667969 170.667969h170.664062v170.664062h-170.664062zm0 0" fill="#a8a8a8"/><path d="m102.398438 76.800781c-14.136719 0-25.597657-11.460937-25.597657-25.601562 0-14.136719 11.460938-25.597657 25.597657-25.597657 14.140624 0 25.601562 11.460938 25.601562 25.597657 0 14.140625-11.460938 25.601562-25.601562 25.601562zm0-34.132812c-4.710938 0-8.53125 3.820312-8.53125 8.53125 0 4.714843 3.820312 8.535156 8.53125 8.535156 4.714843 0 8.535156-3.820313 8.535156-8.535156 0-4.710938-3.820313-8.53125-8.535156-8.53125zm0 0" fill="#69b0bb"/><path d="m256 51.199219c-14.140625 0-25.601562-11.460938-25.601562-25.597657 0-14.140624 11.464843-25.601562 25.601562-25.601562s25.601562 11.460938 25.601562 25.601562c0 14.136719-11.464843 25.597657-25.601562 25.597657zm0-34.132813c-4.714844 0-8.535156 3.820313-8.535156 8.535156 0 4.710938 3.820312 8.53125 8.535156 8.53125 4.710938 0 8.53125-3.820312 8.53125-8.53125 0-4.714843-3.820312-8.535156-8.53125-8.535156zm0 0" fill="#69b0bb"/><path d="m409.601562 76.800781c-14.140624 0-25.601562-11.460937-25.601562-25.601562 0-14.136719 11.460938-25.597657 25.601562-25.597657 14.136719 0 25.597657 11.460938 25.597657 25.597657 0 14.140625-11.460938 25.601562-25.597657 25.601562zm0-34.132812c-4.714843 0-8.535156 3.820312-8.535156 8.53125 0 4.714843 3.820313 8.535156 8.535156 8.535156 4.710938 0 8.53125-3.820313 8.53125-8.535156 0-4.710938-3.820312-8.53125-8.53125-8.53125zm0 0" fill="#69b0bb"/><path d="m25.601562 281.601562c-14.140624 0-25.601562-11.464843-25.601562-25.601562 0-14.140625 11.460938-25.601562 25.601562-25.601562 14.136719 0 25.597657 11.460937 25.597657 25.601562 0 14.136719-11.460938 25.601562-25.597657 25.601562zm0-34.136718c-4.714843 0-8.535156 3.820312-8.535156 8.535156 0 4.710938 3.820313 8.53125 8.535156 8.53125 4.710938 0 8.53125-3.820312 8.53125-8.53125 0-4.714844-3.820312-8.535156-8.53125-8.535156zm0 0" fill="#69b0bb"/><path d="m42.667969 401.066406c-14.140625 0-25.601563-11.460937-25.601563-25.601562 0-14.136719 11.460938-25.597656 25.601563-25.597656 14.136719 0 25.597656 11.460937 25.597656 25.597656 0 14.140625-11.460937 25.601562-25.597656 25.601562zm0-34.132812c-4.714844 0-8.535157 3.820312-8.535157 8.53125 0 4.714844 3.820313 8.535156 8.535157 8.535156 4.710937 0 8.53125-3.820312 8.53125-8.535156 0-4.710938-3.820313-8.53125-8.53125-8.53125zm0 0" fill="#69b0bb"/><path d="m42.667969 162.132812c-14.140625 0-25.601563-11.460937-25.601563-25.597656 0-14.140625 11.460938-25.601562 25.601563-25.601562 14.136719 0 25.597656 11.460937 25.597656 25.601562 0 14.136719-11.460937 25.597656-25.597656 25.597656zm0-34.132812c-4.714844 0-8.535157 3.820312-8.535157 8.535156 0 4.710938 3.820313 8.53125 8.535157 8.53125 4.710937 0 8.53125-3.820312 8.53125-8.53125 0-4.714844-3.820313-8.535156-8.53125-8.535156zm0 0" fill="#69b0bb"/><path d="m469.332031 401.066406c-14.136719 0-25.597656-11.460937-25.597656-25.601562 0-14.136719 11.460937-25.597656 25.597656-25.597656 14.140625 0 25.601563 11.460937 25.601563 25.597656 0 14.140625-11.460938 25.601562-25.601563 25.601562zm0-34.132812c-4.710937 0-8.53125 3.820312-8.53125 8.53125 0 4.714844 3.820313 8.535156 8.53125 8.535156 4.714844 0 8.535157-3.820312 8.535157-8.535156 0-4.710938-3.820313-8.53125-8.535157-8.53125zm0 0" fill="#69b0bb"/><path d="m486.398438 281.601562c-14.136719 0-25.597657-11.464843-25.597657-25.601562 0-14.140625 11.460938-25.601562 25.597657-25.601562 14.140624 0 25.601562 11.460937 25.601562 25.601562 0 14.136719-11.460938 25.601562-25.601562 25.601562zm0-34.136718c-4.710938 0-8.53125 3.820312-8.53125 8.535156 0 4.710938 3.820312 8.53125 8.53125 8.53125 4.714843 0 8.535156-3.820312 8.535156-8.53125 0-4.714844-3.820313-8.535156-8.535156-8.535156zm0 0" fill="#69b0bb"/><path d="m102.398438 486.398438c-14.136719 0-25.597657-11.460938-25.597657-25.597657 0-14.140625 11.460938-25.601562 25.597657-25.601562 14.140624 0 25.601562 11.460937 25.601562 25.601562 0 14.136719-11.460938 25.597657-25.601562 25.597657zm0-34.132813c-4.710938 0-8.53125 3.820313-8.53125 8.535156 0 4.710938 3.820312 8.53125 8.53125 8.53125 4.714843 0 8.535156-3.820312 8.535156-8.53125 0-4.714843-3.820313-8.535156-8.535156-8.535156zm0 0" fill="#69b0bb"/><path d="m256 512c-14.140625 0-25.601562-11.460938-25.601562-25.601562 0-14.136719 11.460937-25.597657 25.601562-25.597657 14.136719 0 25.601562 11.460938 25.601562 25.597657 0 14.140624-11.464843 25.601562-25.601562 25.601562zm0-34.132812c-4.714844 0-8.535156 3.820312-8.535156 8.53125 0 4.714843 3.820312 8.535156 8.535156 8.535156 4.710938 0 8.53125-3.820313 8.53125-8.535156.003906-4.710938-3.820312-8.53125-8.53125-8.53125zm0 0" fill="#69b0bb"/><path d="m409.601562 486.398438c-14.140624 0-25.601562-11.460938-25.601562-25.597657 0-14.140625 11.460938-25.601562 25.601562-25.601562 14.136719 0 25.597657 11.460937 25.597657 25.601562 0 14.136719-11.460938 25.597657-25.597657 25.597657zm0-34.132813c-4.714843 0-8.535156 3.820313-8.535156 8.535156 0 4.710938 3.820313 8.53125 8.535156 8.53125 4.710938 0 8.53125-3.820312 8.53125-8.53125 0-4.714843-3.820312-8.535156-8.53125-8.535156zm0 0" fill="#69b0bb"/><path d="m213.332031 230.398438 42.667969 25.601562 42.667969-25.601562-42.667969-17.066407zm0 0" fill="#b94137"/><path d="m256 298.667969-42.667969-17.066407v-51.203124l42.667969 17.066406 42.667969-17.066406v51.203124zm0 0" fill="#fbb540"/><path d="m256 298.667969v-51.203125l42.667969-17.066406v51.203124zm0 0" fill="#6b9777"/><path d="m162.132812 128h17.066407v17.066406h-17.066407zm0 0" fill="#deb859"/><path d="m196.265625 128h17.066406v17.066406h-17.066406zm0 0" fill="#deb859"/><path d="m230.398438 128h17.066406v17.066406h-17.066406zm0 0" fill="#deb859"/><path d="m264.535156 366.933594h17.066406v17.066406h-17.066406zm0 0" fill="#deb859"/><path d="m298.667969 366.933594h17.066406v17.066406h-17.066406zm0 0" fill="#deb859"/><path d="m332.800781 366.933594h17.066407v17.066406h-17.066407zm0 0" fill="#deb859"/><path d="m469.332031 162.132812c-14.136719 0-25.597656-11.460937-25.597656-25.597656 0-14.140625 11.460937-25.601562 25.597656-25.601562 14.140625 0 25.601563 11.460937 25.601563 25.601562 0 14.136719-11.460938 25.597656-25.601563 25.597656zm0-34.132812c-4.710937 0-8.53125 3.820312-8.53125 8.535156 0 4.710938 3.820313 8.53125 8.53125 8.53125 4.714844 0 8.535157-3.820312 8.535157-8.53125 0-4.714844-3.820313-8.535156-8.535157-8.535156zm0 0" fill="#69b0bb"/></svg>