<?xml version="1.0" encoding="iso-8859-1"?>
<!-- Generator: Adobe Illustrator 19.0.0, SVG Export Plug-In . SVG Version: 6.00 Build 0)  -->
<svg version="1.1" id="Capa_1" xmlns="http://www.w3.org/2000/svg" xmlns:xlink="http://www.w3.org/1999/xlink" x="0px" y="0px"
	 viewBox="0 0 472 472" style="enable-background:new 0 0 472 472;" xml:space="preserve">
<path style="fill:#689CB0;" d="M462.232,435.304l-37.336-96C421.309,330.078,412.427,324,402.528,324H61.472
	c-9.91-0.013-18.809,6.067-22.4,15.304l-37.336,96c-4.803,12.354,1.319,26.263,13.673,31.065c2.782,1.082,5.742,1.635,8.727,1.631
	h415.728c13.255-0.001,23.999-10.746,23.999-24.001C463.863,441.025,463.31,438.076,462.232,435.304L462.232,435.304z M64,428l24-72
	h288l24,72H64z"/>
<path style="fill:#F7EAD0;" d="M376,356H88l-24,72h336L376,356z"/>
<path style="fill:#EDDFC2;" d="M64,428h336l-19.144-57.432L67.24,418.288L64,428z"/>
<path style="fill:#5C8EA1;" d="M1.6,452c3.359,9.587,12.41,16.004,22.568,16h415.696c10.146-0.01,19.181-6.424,22.536-16H1.6z"/>
<g>
	<path style="fill:#84CDD9;" d="M224,224.688l-24-24V140h-16v67.312l40,40V396h16V36h-16V224.688z"/>
	<path style="fill:#84CDD9;" d="M336,60h-16v68.688l-48,48V396h16V183.312l48-48V60z"/>
	<path style="fill:#84CDD9;" d="M432,159.312V36h-16v116.688l-8,8l-24-24V100h-16v43.312L396.688,172L352,216.688l-16-16V172h-16
		v35.312L340.688,228L320,248.688V396h16v-92.688L387.312,252H432v-16h-51.312L336,280.688v-25.376L432,159.312z"/>
	<path style="fill:#84CDD9;" d="M32,36H16v147.312L60.688,228h-8l-26.344,26.344l11.312,11.312L59.312,244h17.376L128,295.312V396
		h16V288.688l-112-112V36z"/>
	<path style="fill:#84CDD9;" d="M160,151.312V68h-16v76.688l-40,40l-16-16V116H72v59.312l104,104V396h16V272.688L115.312,196
		L160,151.312z"/>
	<path style="fill:#84CDD9;" d="M184,92h16v32h-16V92z"/>
	<path style="fill:#84CDD9;" d="M368,68h16v16h-16V68z"/>
</g>
<g>
	<circle style="fill:#F2CF77;" cx="232" cy="28" r="24"/>
	<circle style="fill:#F2CF77;" cx="328" cy="52" r="24"/>
	<circle style="fill:#F2CF77;" cx="424" cy="28" r="24"/>
	<circle style="fill:#F2CF77;" cx="448" cy="244" r="24"/>
	<circle style="fill:#F2CF77;" cx="24" cy="28" r="24"/>
	<circle style="fill:#F2CF77;" cx="152" cy="60" r="24"/>
	<circle style="fill:#F2CF77;" cx="80" cy="108" r="24"/>
	<path style="fill:#F2CF77;" d="M0,268c-0.003,13.255,10.74,24.002,23.995,24.005S47.997,281.265,48,268.01
		c0.001-6.368-2.528-12.476-7.032-16.978L40,252l0.968-0.968c-9.374-9.371-24.57-9.369-33.941,0.005
		C2.529,255.537,0.001,261.638,0,268z"/>
</g>
<g>
</g>
<g>
</g>
<g>
</g>
<g>
</g>
<g>
</g>
<g>
</g>
<g>
</g>
<g>
</g>
<g>
</g>
<g>
</g>
<g>
</g>
<g>
</g>
<g>
</g>
<g>
</g>
<g>
</g>
</svg>
