<?xml version="1.0" encoding="UTF-8" standalone="no"?>
<svg
   xmlns:dc="http://purl.org/dc/elements/1.1/"
   xmlns:cc="http://creativecommons.org/ns#"
   xmlns:rdf="http://www.w3.org/1999/02/22-rdf-syntax-ns#"
   xmlns:svg="http://www.w3.org/2000/svg"
   xmlns="http://www.w3.org/2000/svg"
   version="1.1"
   width="256"
   height="256"
   id="svg2">
  <metadata
     id="metadata4">
    <rdf:RDF>
      <cc:Work
         rdf:about="">
        <dc:format>image/svg+xml</dc:format>
        <dc:type
           rdf:resource="http://purl.org/dc/dcmitype/StillImage" />
        <dc:title></dc:title>
      </cc:Work>
    </rdf:RDF>
  </metadata>
  <defs
     id="defs6" />
  <path
     d="M 127.999,0 C 57.423,0 0,57.423 0,128.001 0,198.585 57.423,256.005 127.999,256.005 198.577,256.005 256,198.585 256,128.001 256,57.423 198.577,0 127.999,0"
     id="path8"
     style="fill:#ffffff" />
  <path
     d="m 123.318,130.303 c -1.15,2.492 -2.419,5.292 -3.733,8.272 -4.645,10.524 -9.789,23.33 -11.668,31.534 -0.675,2.922 -1.093,6.543 -1.085,10.558 0,1.588 0.085,3.257 0.22,4.957 6.567,2.413 13.66,3.74 21.067,3.753 6.743,-0.013 13.221,-1.127 19.284,-3.143 -1.425,-1.303 -2.785,-2.692 -4.023,-4.257 -8.22,-10.482 -12.806,-25.844 -20.062,-51.674"
     id="path10"
     style="fill:#91dc47" />
  <path
     d="m 92.97,78.225 c -15.699,11.064 -25.972,29.312 -26.011,49.992 0.039,20.371 10.003,38.383 25.307,49.493 3.754,-15.637 13.164,-29.955 27.275,-58.655 -0.838,-2.302 -1.793,-4.822 -2.862,-7.469 -3.909,-9.806 -9.551,-21.194 -14.586,-26.351 -2.567,-2.694 -5.682,-5.022 -9.123,-7.01"
     id="path12"
     style="fill:#91dc47" />
  <path
     d="m 181.394,198.367 c -8.1,-1.015 -14.785,-2.24 -20.633,-4.303 -9.836,4.884 -20.913,7.643 -32.642,7.643 -40.584,0 -73.483,-32.894 -73.488,-73.49 0,-22.027 9.704,-41.773 25.056,-55.24 -4.106,-0.992 -8.388,-1.571 -12.762,-1.563 -21.562,0.203 -44.323,12.136 -53.799,44.363 -0.886,4.691 -0.675,8.238 -0.675,12.442 0,63.885 51.791,115.676 115.671,115.676 39.122,0 73.682,-19.439 94.611,-49.169 -11.32,2.821 -22.206,4.17 -31.528,4.199 -3.494,0 -6.774,-0.187 -9.811,-0.558"
     id="path14"
     style="fill:#63b132" />
  <path
     d="m 159.658,175.953 c 0.714,0.354 2.333,0.932 4.586,1.571 15.157,-11.127 25.007,-29.05 25.046,-49.307 l -0.006,0 c -0.057,-33.771 -27.386,-61.096 -61.165,-61.163 -6.714,0.013 -13.164,1.121 -19.203,3.122 12.419,14.156 18.391,34.386 24.168,56.515 0.003,0.01 0.008,0.018 0.01,0.026 0.011,0.018 1.848,6.145 5.002,14.274 3.132,8.118 7.594,18.168 12.46,25.492 3.195,4.908 6.709,8.435 9.102,9.47"
     id="path16"
     style="fill:#90b4fe" />
  <path
     d="m 128.122,12.541 c -38.744,0 -73.016,19.073 -94.008,48.318 10.925,-6.842 22.08,-9.31 31.815,-9.222 13.446,0.039 24.017,4.208 29.089,7.06 1.225,0.706 2.388,1.466 3.527,2.247 9.05,-3.986 19.05,-6.215 29.574,-6.215 40.589,0.005 73.493,32.899 73.499,73.488 l -0.006,0 c 0,20.464 -8.37,38.967 -21.863,52.291 3.312,0.371 6.844,0.602 10.451,0.584 12.811,0.006 26.658,-2.821 37.039,-11.552 6.769,-5.702 12.44,-14.051 15.585,-26.569 0.615,-4.835 0.969,-9.75 0.969,-14.752 0,-63.882 -51.786,-115.678 -115.671,-115.678"
     id="path18"
     style="fill:#5881d8" />
</svg>
