<?xml version="1.0" encoding="iso-8859-1"?>
<!-- Generator: Adobe Illustrator 19.0.0, SVG Export Plug-In . SVG Version: 6.00 Build 0)  -->
<svg version="1.1" id="Capa_1" xmlns="http://www.w3.org/2000/svg" xmlns:xlink="http://www.w3.org/1999/xlink" x="0px" y="0px"
	 viewBox="0 0 59 59" style="enable-background:new 0 0 59 59;" xml:space="preserve">
<g>
	<path d="M30.5,9.025V7.858c1.721-0.447,3-1.999,3-3.858c0-2.206-1.794-4-4-4s-4,1.794-4,4c0,1.859,1.279,3.411,3,3.858v1.167
		C15.177,9.553,4.5,20.55,4.5,34c0,13.785,11.215,25,25,25s25-11.215,25-25C54.5,20.55,43.823,9.553,30.5,9.025z M27.5,4
		c0-1.103,0.897-2,2-2s2,0.897,2,2s-0.897,2-2,2S27.5,5.103,27.5,4z M29.5,57c-12.683,0-23-10.317-23-23s10.317-23,23-23
		s23,10.317,23,23S42.183,57,29.5,57z"/>
	<path d="M41.78,20.378l-16.97,8.485c-0.026,0.013-0.041,0.04-0.066,0.056c-0.068,0.041-0.12,0.093-0.177,0.149
		c-0.056,0.056-0.108,0.109-0.149,0.177c-0.015,0.025-0.042,0.04-0.056,0.066l-8.485,16.97c-0.192,0.385-0.117,0.85,0.188,1.154
		c0.192,0.192,0.448,0.293,0.707,0.293c0.152,0,0.305-0.034,0.447-0.105l16.97-8.485c0.026-0.013,0.041-0.04,0.066-0.056
		c0.068-0.041,0.12-0.093,0.177-0.149c0.056-0.056,0.108-0.109,0.149-0.177c0.015-0.025,0.042-0.04,0.056-0.066l8.485-16.97
		c0.192-0.385,0.117-0.85-0.188-1.154S42.166,20.186,41.78,20.378z M19.009,44.491l6.523-13.045l6.521,6.521L19.009,44.491z
		 M33.468,36.554l-6.521-6.521l13.045-6.523L33.468,36.554z"/>
</g>
<g>
</g>
<g>
</g>
<g>
</g>
<g>
</g>
<g>
</g>
<g>
</g>
<g>
</g>
<g>
</g>
<g>
</g>
<g>
</g>
<g>
</g>
<g>
</g>
<g>
</g>
<g>
</g>
<g>
</g>
</svg>
