<?xml version="1.0" encoding="UTF-8"?><!DOCTYPE svg PUBLIC "-//W3C//DTD SVG 1.1//EN" "http://www.w3.org/Graphics/SVG/1.1/DTD/svg11.dtd"><svg xmlns="http://www.w3.org/2000/svg" xmlns:xlink="http://www.w3.org/1999/xlink" version="1.1" id="Layer_1" x="0px" y="0px" width="24px" height="24px" viewBox="0 0 24 24" xml:space="preserve"><path d="M15.5 22.7h-.1l-.1-.1V22v-2.5c0-.7-.1-1.3-.4-1.8 2.3-.4 4.8-1.6 4.8-6.1 0-1.2-.4-2.3-1.1-3.2.2-.6.3-1.7-.2-3.1l-.3-.3s-.2-.1-.4-.1c-.6 0-1.5.2-3 1.2-.8-.1-1.7-.3-2.7-.3-1 0-1.9.1-2.8.3C7.8 5.2 6.8 5 6.2 5c-.2 0-.3.1-.4.1-.1 0-.3.2-.3.3-.5 1.4-.4 2.5-.2 3.1-.7.9-1.1 2-1.1 3.2 0 4.4 2.6 5.6 4.8 6.1-.1.2-.2.5-.3.8-.2.1-.5.2-.9.2s-.8-.1-1.1-.4l-.1-.1c-.1-.1-.1-.2-.2-.2l-.1-.1-.1-.1c0-.1-.8-1.3-2.2-1.4-.5 0-.9.2-1 .5-.2.5.4.9.7 1.1 0 0 .6.3 1 1.4.2.7 1.1 2 3.2 2h.7v1.4l-.1.1s-.1 0 0 0C4 21.2 1 17 1 12.3c0-6.1 4.9-11 11-11s11 4.9 11 11c0 4.7-3 8.9-7.5 10.4z"/><metadata><rdf:RDF xmlns:rdf="http://www.w3.org/1999/02/22-rdf-syntax-ns#" xmlns:rdfs="http://www.w3.org/2000/01/rdf-schema#" xmlns:dc="http://purl.org/dc/elements/1.1/"><rdf:Description about="https://iconscout.com/legal#licenses" dc:title="github" dc:description="github" dc:publisher="Iconscout" dc:date="2018-01-30" dc:format="image/svg+xml" dc:language="en"><dc:creator><rdf:Bag><rdf:li>Roundicons.com</rdf:li></rdf:Bag></dc:creator></rdf:Description></rdf:RDF></metadata></svg>