<?xml version="1.0" encoding="iso-8859-1"?>
<!-- Generator: Adobe Illustrator 19.0.0, SVG Export Plug-In . SVG Version: 6.00 Build 0)  -->
<svg version="1.1" id="Layer_1" xmlns="http://www.w3.org/2000/svg" xmlns:xlink="http://www.w3.org/1999/xlink" x="0px" y="0px"
	 viewBox="0 0 512 512" style="enable-background:new 0 0 512 512;" xml:space="preserve">
<g>
	<rect x="123.586" y="282.483" style="fill:#EFF2FA;" width="17.655" height="203.034"/>
	<rect x="70.621" y="379.586" style="fill:#EFF2FA;" width="17.655" height="105.931"/>
	<rect x="176.552" y="211.862" style="fill:#EFF2FA;" width="17.655" height="273.655"/>
	<rect x="229.517" y="406.069" style="fill:#EFF2FA;" width="17.655" height="79.448"/>
	<rect x="282.483" y="370.759" style="fill:#EFF2FA;" width="17.655" height="114.759"/>
	<rect x="335.448" y="317.793" style="fill:#EFF2FA;" width="17.655" height="167.724"/>
	<rect x="388.414" y="35.31" style="fill:#EFF2FA;" width="17.655" height="450.207"/>
	<rect x="441.379" y="423.724" style="fill:#EFF2FA;" width="17.655" height="61.793"/>
</g>
<path style="fill:#AFB9D2;" d="M450.207,432.556c-0.922,0-1.866-0.147-2.793-0.457l-158.897-52.966
	c-1.863-0.621-3.462-1.845-4.552-3.478l-99.009-148.513l-45.483,60.638c-2.69,3.582-7.647,4.586-11.509,2.327L22.034,228.314
	c-4.211-2.457-5.633-7.862-3.177-12.073c2.461-4.207,7.858-5.633,12.073-3.177l99.138,57.832l48.25-64.332
	c1.716-2.293,4.396-3.729,7.306-3.526c2.862,0.077,5.508,1.543,7.1,3.927l104.25,156.375L453,415.35
	c4.625,1.543,7.125,6.543,5.582,11.168C457.35,430.216,453.905,432.556,450.207,432.556z"/>
<path style="fill:#8F96AC;" d="M26.474,494.345c-1.323,0-2.673-0.298-3.939-0.931c-4.362-2.181-6.13-7.482-3.948-11.844
	l52.966-105.931c1.732-3.47,5.543-5.388,9.35-4.759l155.168,25.863l100.142-75.107l52.345-287.901
	c0.871-4.793,5.465-7.957,10.263-7.107c4.798,0.871,7.978,5.47,7.107,10.263L352.962,328.2c-0.396,2.189-1.608,4.151-3.388,5.483
	l-105.931,79.448c-1.931,1.452-4.366,2.056-6.75,1.646L84.427,389.366L34.38,489.465C32.832,492.561,29.716,494.345,26.474,494.345z
	"/>
<g>
	<path style="fill:#D7DEED;" d="M26.483,441.379H8.828c-4.875,0-8.828-3.953-8.828-8.828l0,0c0-4.875,3.953-8.828,8.828-8.828
		h17.655V441.379z"/>
	<path style="fill:#D7DEED;" d="M26.483,388.414H8.828c-4.875,0-8.828-3.953-8.828-8.828l0,0c0-4.875,3.953-8.828,8.828-8.828
		h17.655V388.414z"/>
	<path style="fill:#D7DEED;" d="M26.483,335.448H8.828c-4.875,0-8.828-3.953-8.828-8.828l0,0c0-4.875,3.953-8.828,8.828-8.828
		h17.655V335.448z"/>
	<path style="fill:#D7DEED;" d="M26.483,282.483H8.828c-4.875,0-8.828-3.953-8.828-8.828l0,0c0-4.875,3.953-8.828,8.828-8.828
		h17.655V282.483z"/>
	<path style="fill:#D7DEED;" d="M26.483,229.517H8.828c-4.875,0-8.828-3.953-8.828-8.828l0,0c0-4.875,3.953-8.828,8.828-8.828
		h17.655V229.517z"/>
	<path style="fill:#D7DEED;" d="M26.483,176.552H8.828c-4.875,0-8.828-3.953-8.828-8.828l0,0c0-4.875,3.953-8.828,8.828-8.828
		h17.655V176.552z"/>
	<path style="fill:#D7DEED;" d="M26.483,123.586H8.828c-4.875,0-8.828-3.953-8.828-8.828l0,0c0-4.875,3.953-8.828,8.828-8.828
		h17.655V123.586z"/>
	<path style="fill:#D7DEED;" d="M26.483,70.621H8.828C3.953,70.621,0,66.668,0,61.793l0,0c0-4.875,3.953-8.828,8.828-8.828h17.655
		V70.621z"/>
	<path style="fill:#D7DEED;" d="M459.034,485.517v17.655c0,4.875-3.953,8.828-8.828,8.828l0,0c-4.875,0-8.828-3.953-8.828-8.828
		v-17.655H459.034z"/>
	<path style="fill:#D7DEED;" d="M406.069,485.517v17.655c0,4.875-3.953,8.828-8.828,8.828l0,0c-4.875,0-8.828-3.953-8.828-8.828
		v-17.655H406.069z"/>
	<path style="fill:#D7DEED;" d="M353.103,485.517v17.655c0,4.875-3.953,8.828-8.828,8.828l0,0c-4.875,0-8.828-3.953-8.828-8.828
		v-17.655H353.103z"/>
	<path style="fill:#D7DEED;" d="M300.138,485.517v17.655c0,4.875-3.953,8.828-8.828,8.828l0,0c-4.875,0-8.828-3.953-8.828-8.828
		v-17.655H300.138z"/>
	<path style="fill:#D7DEED;" d="M247.172,485.517v17.655c0,4.875-3.953,8.828-8.828,8.828l0,0c-4.875,0-8.828-3.953-8.828-8.828
		v-17.655H247.172z"/>
	<path style="fill:#D7DEED;" d="M194.207,485.517v17.655c0,4.875-3.953,8.828-8.828,8.828l0,0c-4.875,0-8.828-3.953-8.828-8.828
		v-17.655H194.207z"/>
	<path style="fill:#D7DEED;" d="M141.241,485.517v17.655c0,4.875-3.953,8.828-8.828,8.828l0,0c-4.875,0-8.828-3.953-8.828-8.828
		v-17.655H141.241z"/>
	<path style="fill:#D7DEED;" d="M88.276,485.517v17.655c0,4.875-3.953,8.828-8.828,8.828l0,0c-4.875,0-8.828-3.953-8.828-8.828
		v-17.655H88.276z"/>
</g>
<g>
	<path style="fill:#C7CFE2;" d="M26.483,512L26.483,512c-4.875,0-8.828-3.953-8.828-8.828V8.828C17.655,3.953,21.608,0,26.483,0l0,0
		c4.875,0,8.828,3.953,8.828,8.828v494.345C35.31,508.047,31.358,512,26.483,512z"/>
	<path style="fill:#C7CFE2;" d="M0,485.517L0,485.517c0-4.875,3.953-8.828,8.828-8.828h494.345c4.875,0,8.828,3.953,8.828,8.828l0,0
		c0,4.875-3.953,8.828-8.828,8.828H8.828C3.953,494.345,0,490.392,0,485.517z"/>
</g>
<circle style="fill:#FF6464;" cx="79.448" cy="379.586" r="17.655"/>
<g>
	<circle style="fill:#C3E678;" cx="132.414" cy="282.483" r="17.655"/>
	<circle style="fill:#C3E678;" cx="185.379" cy="211.862" r="17.655"/>
	<circle style="fill:#C3E678;" cx="291.31" cy="370.759" r="17.655"/>
	<circle style="fill:#C3E678;" cx="450.207" cy="423.724" r="17.655"/>
</g>
<g>
	<circle style="fill:#FF6464;" cx="238.345" cy="406.069" r="17.655"/>
	<circle style="fill:#FF6464;" cx="344.276" cy="326.621" r="17.655"/>
	<circle style="fill:#FF6464;" cx="397.241" cy="35.31" r="17.655"/>
</g>
<g>
</g>
<g>
</g>
<g>
</g>
<g>
</g>
<g>
</g>
<g>
</g>
<g>
</g>
<g>
</g>
<g>
</g>
<g>
</g>
<g>
</g>
<g>
</g>
<g>
</g>
<g>
</g>
<g>
</g>
</svg>
