<svg width="2500" height="2500" viewBox="0 0 256 256" xmlns="http://www.w3.org/2000/svg" preserveAspectRatio="xMidYMid"><path d="M255.76 127.76c0 70.559-57.2 127.759-127.76 127.759S.24 198.319.24 127.759 57.44 0 128 0s127.76 57.2 127.76 127.76" fill="#3A3C5B"/><path d="M217 137.209c-4.304-27.163-32.802-44.758-54.023-58.028-9.27-5.797-24.3-13.348-26.244-25.54-.802-5.038-.773-10.243-.941-15.33-.067-1.998-.098-4.007-.276-6-.231-2.57-2.847.598-4.281-1.645-3.553-5.554-2.185 1.683-1.836 4.603.822 6.87 1.787 13.718 1.732 20.652-.107 13.251-2.242 25.936-5.546 38.704-7.738 29.899-13.842 60.533-6.187 91.129 1.586 6.34 3.65 12.594 6.363 18.544.82 1.8 2.39 6.821 4.646 7.423 8.126 2.168 14.27 2.796 20.76 8.84 4.03 3.753 7.051 1.703 11.817-.204 14.436-5.777 26.947-13.048 37.176-24.945 14.38-16.724 20.312-36.301 16.84-58.203m-15.268 27.35c-1.28 11.172-8.288 21.18-15.444 29.476-5.188 6.015-12.206 13.82-19.897 16.56-2.769.985.507-4.554.913-5.165 2.38-3.58 5.315-6.738 8.039-10.051 4.03-4.898 7.52-10.04 9.88-15.972 7.832-19.688 6.052-43.552-5.539-61.289-6.31-9.656-14.972-17.818-23.703-25.265-4.218-3.598-8.486-7-12.036-11.304-.82-.995-8.07-10.485-5.815-11.889.728-.453 16.573 16.214 18.297 17.515 6.552 4.947 13.29 9.522 19.357 15.093 8.21 7.543 16.642 15.968 21.346 26.226 5.155 11.24 5.994 23.911 4.602 36.064" fill="#FFF"/><path d="M123.294 3.443c2.379 1.587 2.907 10.836 2.907 19.293 0 8.458.793 44.93-1.85 54.709-2.642 9.779-8.721 20.615-15.329 30.13-6.607 9.514-14.271 29.6-14.007 42.02.264 12.424 7.4 32.773 12.95 41.23 5.571 8.49 15.029 20.322 12.95 22.995-3.7 4.757-18.764-11.63-26.693-21.143-7.929-9.515-15.858-28.81-16.121-43.873-.265-15.065 8.192-29.073 14.271-37.53 6.08-8.457 17.972-22.993 21.143-29.6 3.171-6.607 6.608-13.743 7.665-22.994 1.057-9.25 0-42.287 0-42.287s-.265-14.536 2.114-12.95" fill="#FFF"/><path d="M116.951 19.036c2.378 1.058 2.643 3.965 2.643 6.872s-.793 14.8-1.586 26.43c-.793 11.628-10.042 21.407-16.914 28.278C94.222 87.488 74.4 108.896 67 119.468c-7.4 10.571-11.088 24.496-10.307 36.207.792 11.893 3.7 23.522 14.8 35.944 11.1 12.422 18.765 18.236 24.579 21.144 5.815 2.905 11.63 5.02 10.308 7.664-1.322 2.642-6.873.792-12.951-1.321-6.079-2.116-26.693-10.571-38.587-24.05-11.892-13.48-17.97-31.452-17.442-48.632.527-17.178 5.286-24.314 13.214-35.414 7.929-11.1 29.865-27.486 36.736-31.714 6.872-4.23 16.122-11.365 20.616-17.18 4.492-5.814 6.87-10.572 6.606-18.5-.264-7.929.53-15.065.265-17.708-.265-2.642-.265-7.928 2.114-6.872M117.613 226.203c1.075-.043.396 4.614-1.502 6.925-1.898 2.31-5.157 3.7-5.553 2.77-.398-.93 2.353-1.465 4.373-3.713 1.855-2.064 1.364-5.929 2.682-5.982M139.003 226.08c-1.074-.044-.395 4.613 1.503 6.923 1.897 2.31 5.157 3.701 5.552 2.772.398-.93-2.353-1.465-4.373-3.713-1.855-2.063-1.364-5.93-2.682-5.981M129.495 231.133c0 4.067.207 7.364-.68 7.364-1.094 0-.682-3.297-.682-7.364s-.37-7.365.681-7.365c.97 0 .68 3.298.68 7.365" fill="#FFF"/></svg>
