<?xml version="1.0" encoding="iso-8859-1"?>
<!-- Generator: Adobe Illustrator 19.0.0, SVG Export Plug-In . SVG Version: 6.00 Build 0)  -->
<svg version="1.1" id="Capa_1" xmlns="http://www.w3.org/2000/svg" xmlns:xlink="http://www.w3.org/1999/xlink" x="0px" y="0px"
	 viewBox="0 0 504.123 504.123" style="enable-background:new 0 0 504.123 504.123;" xml:space="preserve">
<circle style="fill:#FCBD5E;" cx="252.062" cy="252.062" r="252.062"/>
<path style="fill:#FFFFFF;" d="M7.877,367.065h488.369l0,0c0,38.597-31.508,70.105-70.105,70.105H77.982
	C39.385,437.169,7.877,406.449,7.877,367.065L7.877,367.065z"/>
<path style="fill:#183651;" d="M426.142,445.046H77.982C34.658,445.046,0,410.388,0,367.065c0-4.726,3.151-7.877,7.877-7.877
	h488.369c4.726,0,7.877,3.151,7.877,7.877C504.123,410.388,469.465,445.046,426.142,445.046z M16.542,374.942
	c3.938,30.72,29.932,54.351,61.44,54.351h348.16c31.508,0,57.502-23.631,61.44-54.351H16.542z"/>
<path style="fill:#E1E6E8;" d="M55.138,70.105h393.846c13.391,0,23.631,10.24,23.631,23.631v273.329H31.508V93.735
	C31.508,81.132,42.535,70.105,55.138,70.105z"/>
<path style="fill:#183651;" d="M472.615,374.942H31.508c-4.726,0-7.877-3.151-7.877-7.877V93.735
	c0-17.329,14.178-31.508,31.508-31.508h393.846c17.329,0,31.508,14.178,31.508,31.508v273.329
	C480.492,371.791,476.554,374.942,472.615,374.942z M39.385,359.188h425.354V93.735c0-8.665-7.089-15.754-15.754-15.754H55.138
	c-8.665,0-15.754,7.089-15.754,15.754V359.188z"/>
<rect x="63.204" y="102.211" style="fill:#FFFFFF;" width="378.092" height="233.945"/>
<g>
	<rect x="200.074" y="394.634" style="fill:#183651;" width="15.754" height="15.754"/>
	<rect x="244.185" y="394.634" style="fill:#183651;" width="15.754" height="15.754"/>
	<rect x="288.295" y="394.634" style="fill:#183651;" width="15.754" height="15.754"/>
	<polygon style="fill:#183651;" points="116.578,198.498 127.606,198.498 127.606,137.058 104.763,137.058 104.763,147.298 
		116.578,147.298 	"/>
	<path style="fill:#183651;" d="M164.628,135.483c-8.665,0-14.966,3.151-18.905,8.665s-6.302,13.391-6.302,22.843
		c0,9.452,2.363,17.329,6.302,22.843c3.938,5.514,10.24,8.665,18.905,8.665c8.665,0,14.966-3.151,18.905-8.665
		s6.302-13.391,6.302-22.843s-2.363-17.329-6.302-22.843C179.594,138.634,173.292,135.483,164.628,135.483z M178.806,167.778
		c0,6.302-0.788,11.815-3.151,15.754s-5.514,5.514-10.24,5.514c-4.726,0-7.877-1.575-10.24-5.514
		c-2.363-3.938-3.151-9.452-3.151-15.754s0.788-11.815,3.151-15.754c2.363-3.938,5.514-5.514,10.24-5.514
		c4.726,0,7.877,1.575,10.24,5.514C177.231,155.175,178.806,160.689,178.806,167.778z"/>
	<path style="fill:#183651;" d="M223.705,135.483c-8.665,0-14.966,3.151-18.905,8.665s-6.302,13.391-6.302,22.843
		c0,9.452,2.363,17.329,6.302,22.843c3.938,5.514,10.24,8.665,18.905,8.665c8.665,0,14.966-3.151,18.905-8.665
		s6.302-13.391,6.302-22.843s-2.363-17.329-6.302-22.843C238.671,138.634,232.369,135.483,223.705,135.483z M237.883,167.778
		c0,6.302-0.788,11.815-3.151,15.754s-5.514,5.514-10.24,5.514c-4.726,0-7.877-1.575-10.24-5.514
		c-2.363-3.938-3.151-9.452-3.151-15.754s0.788-11.815,3.151-15.754c2.363-3.938,5.514-5.514,10.24-5.514s7.877,1.575,10.24,5.514
		C236.308,155.175,237.883,160.689,237.883,167.778z"/>
	<polygon style="fill:#183651;" points="255.212,147.298 267.028,147.298 267.028,198.498 278.055,198.498 278.055,137.058 
		255.212,137.058 	"/>
	<path style="fill:#183651;" d="M315.077,135.483c-8.665,0-14.966,3.151-18.905,8.665c-3.938,5.514-6.302,13.391-6.302,22.843
		c0,9.452,2.363,17.329,6.302,22.843c3.938,5.514,10.24,8.665,18.905,8.665c8.665,0,14.966-3.151,18.905-8.665
		c3.938-5.514,6.302-13.391,6.302-22.843s-2.363-17.329-6.302-22.843C330.043,138.634,323.742,135.483,315.077,135.483z
		 M329.255,167.778c0,6.302-0.788,11.815-3.151,15.754c-2.363,3.938-5.514,5.514-10.24,5.514c-4.726,0-7.877-1.575-10.24-5.514
		s-3.151-9.452-3.151-15.754s0.788-11.815,3.151-15.754c2.363-3.938,5.514-5.514,10.24-5.514c4.726,0,7.877,1.575,10.24,5.514
		C327.68,155.175,329.255,160.689,329.255,167.778z"/>
	<path style="fill:#183651;" d="M374.154,199.286c8.665,0,14.966-3.151,18.905-8.665c3.938-5.514,6.302-13.391,6.302-22.843
		c0-9.452-2.363-17.329-6.302-22.843c-3.938-5.514-10.24-8.665-18.905-8.665c-8.665,0-14.966,3.151-18.905,8.665
		c-3.938,5.514-6.302,13.391-6.302,22.843c0,9.452,2.363,17.329,6.302,22.843C359.975,196.135,366.277,199.286,374.154,199.286z
		 M360.763,167.778c0-6.302,0.788-11.815,3.151-15.754c2.363-3.938,5.514-6.302,10.24-6.302s7.877,1.575,10.24,5.514
		s3.151,9.452,3.151,15.754c0,6.302-0.788,11.815-3.151,15.754c-2.363,3.938-5.514,5.514-10.24,5.514s-7.877-1.575-10.24-5.514
		C361.551,179.594,360.763,174.08,360.763,167.778z"/>
	<path style="fill:#183651;" d="M132.332,238.671c-8.665,0-14.966,3.151-18.905,8.665c-3.938,5.514-6.302,13.391-6.302,22.843
		c0,9.452,2.363,17.329,6.302,22.843s10.24,8.665,18.905,8.665s14.966-3.151,18.905-8.665c3.938-5.514,6.302-13.391,6.302-22.843
		c0-9.452-2.363-17.329-6.302-22.843C147.298,241.034,140.997,238.671,132.332,238.671z M145.723,270.178
		c0,6.302-0.788,11.815-3.151,15.754c-2.363,3.938-5.514,5.514-10.24,5.514c-4.726,0-7.877-1.575-10.24-5.514
		c-2.363-3.938-3.151-9.452-3.151-15.754c0-6.302,0.788-11.815,3.151-15.754s5.514-5.514,10.24-5.514
		c4.726,0,7.877,1.575,10.24,5.514S145.723,263.877,145.723,270.178z"/>
	<polygon style="fill:#183651;" points="163.84,250.486 175.655,250.486 175.655,300.898 186.683,300.898 186.683,239.458 
		163.84,239.458 	"/>
	<path style="fill:#183651;" d="M223.705,238.671c-8.665,0-14.966,3.151-18.905,8.665c-3.938,5.514-6.302,13.391-6.302,22.843
		c0,9.452,2.363,17.329,6.302,22.843s10.24,8.665,18.905,8.665c8.665,0,14.966-3.151,18.905-8.665
		c3.938-5.514,6.302-13.391,6.302-22.843c0-9.452-2.363-17.329-6.302-22.843C238.671,241.034,232.369,238.671,223.705,238.671z
		 M237.883,270.178c0,6.302-0.788,11.815-3.151,15.754c-2.363,3.938-5.514,5.514-10.24,5.514c-4.726,0-7.877-1.575-10.24-5.514
		c-2.363-3.938-3.151-9.452-3.151-15.754c0-6.302,0.788-11.815,3.151-15.754c2.363-3.938,5.514-5.514,10.24-5.514
		s7.877,1.575,10.24,5.514C236.308,258.363,237.883,263.877,237.883,270.178z"/>
	<polygon style="fill:#183651;" points="255.212,250.486 267.028,250.486 267.028,300.898 278.055,300.898 278.055,239.458 
		255.212,239.458 	"/>
	<path style="fill:#183651;" d="M315.077,238.671c-8.665,0-14.966,3.151-18.905,8.665c-3.938,5.514-6.302,13.391-6.302,22.843
		c0,9.452,2.363,17.329,6.302,22.843c3.938,5.514,10.24,8.665,18.905,8.665c8.665,0,14.966-3.151,18.905-8.665
		c3.938-5.514,6.302-13.391,6.302-22.843c0-9.452-2.363-17.329-6.302-22.843C330.043,241.034,323.742,238.671,315.077,238.671z
		 M329.255,270.178c0,6.302-0.788,11.815-3.151,15.754c-2.363,3.938-5.514,5.514-10.24,5.514c-4.726,0-7.877-1.575-10.24-5.514
		c-2.363-3.938-3.151-9.452-3.151-15.754c0-6.302,0.788-11.815,3.151-15.754c2.363-3.938,5.514-5.514,10.24-5.514
		c4.726,0,7.877,1.575,10.24,5.514C327.68,258.363,329.255,263.877,329.255,270.178z"/>
	<path style="fill:#183651;" d="M374.154,238.671c-8.665,0-14.966,3.151-18.905,8.665c-3.938,5.514-6.302,13.391-6.302,22.843
		c0,9.452,2.363,17.329,6.302,22.843c3.938,5.514,10.24,8.665,18.905,8.665s14.966-3.151,18.905-8.665
		c3.938-5.514,6.302-13.391,6.302-22.843c0-9.452-2.363-17.329-6.302-22.843C389.12,241.034,382.818,238.671,374.154,238.671z
		 M388.332,270.178c0,6.302-0.788,11.815-3.151,15.754c-2.363,3.938-5.514,5.514-10.24,5.514s-7.877-1.575-10.24-5.514
		c-2.363-3.938-3.151-9.452-3.151-15.754c0-6.302,0.788-11.815,3.151-15.754c2.363-3.938,5.514-5.514,10.24-5.514
		s7.877,1.575,10.24,5.514C386.757,258.363,388.332,263.877,388.332,270.178z"/>
</g>
<g>
</g>
<g>
</g>
<g>
</g>
<g>
</g>
<g>
</g>
<g>
</g>
<g>
</g>
<g>
</g>
<g>
</g>
<g>
</g>
<g>
</g>
<g>
</g>
<g>
</g>
<g>
</g>
<g>
</g>
</svg>
