<svg height="60" width="120" xmlns="http://www.w3.org/2000/svg" xmlns:xlink="http://www.w3.org/1999/xlink"><linearGradient id="a"><stop offset="0" stop-color="#656565"/><stop offset="1" stop-color="#010101"/></linearGradient><linearGradient id="b" gradientUnits="userSpaceOnUse" x1="13.528" x2="88.264" xlink:href="#a" y1="-36.176" y2="-36.176"/><linearGradient id="c" gradientUnits="userSpaceOnUse" x1="13.528" x2="88.264" xlink:href="#a" y1="3.91" y2="3.91"/><linearGradient id="d"><stop offset="0" stop-color="#9f1c20"/><stop offset="1" stop-color="#ed2224"/></linearGradient><linearGradient id="e" gradientUnits="userSpaceOnUse" x1="13.528" x2="88.264" xlink:href="#d" y1="-55.974" y2="-55.974"/><linearGradient id="f" gradientUnits="userSpaceOnUse" x1="13.528" x2="88.264" xlink:href="#d" y1="-15.87" y2="-15.87"/><linearGradient id="g" gradientUnits="userSpaceOnUse" x1="13.528" x2="88.264" xlink:href="#d" y1="24.22" y2="24.22"/><g transform="translate(-1.427)"><g transform="matrix(.326431 0 0 .326431 4.558277 35.222891)"><path d="m13.4-31s75 7.5 75 20v-30s0-12.5-75-20z" fill="url(#b)"/><path d="m13.4 9s75 7.5 75 20v-30s0-12.5-75-20z" fill="url(#c)"/><path d="m88.4-81v30s0 12.5-75 20v-30s75-7.5 75-20" fill="url(#e)"/><path d="m13.4-21s75-7.5 75-20v30s0 12.5-75 20z" fill="url(#f)"/><path d="m13.4 49v-30s75-7.5 75-20v30s0 12.5-75 20" fill="url(#g)"/></g><path d="m42.866 39.882 1.004-4.434c1.192.335 2.3.816 3.472.962s2.385.063 3.556-.063c.67-.063 1.13-.586 1.213-1.318.063-.7-.293-1.213-.88-1.506l-2.236-1.023-2.97-1.422c-1.945-1.15-3.117-2.824-2.99-5.187.125-2.385 1.34-4.08 3.39-5.166 1.966-1.046 4.1-1.276 6.275-1.025 1.4.167 2.76.607 4.204.962l-1.17 4.434c-1.234-.377-2.405-.753-3.62-.88-.837-.084-1.757 0-2.552.25-1.192.377-1.34 1.694-.293 2.385.732.48 1.61.774 2.426 1.13 1.067.502 2.196.88 3.18 1.506 3.995 2.468 3.765 8.178-.376 10.417-2.154 1.15-4.476 1.422-6.86 1.213-1.6-.167-3.18-.502-4.77-1.234zm45.243.9h-4.853l-.397-1.34c-1.213 1.213-2.615 1.673-4.204 1.673-2.447 0-4.246-1.297-4.853-3.493-.628-2.3.356-4.623 2.426-5.836 1.694-.983 3.556-1.213 5.46-1.36.23-.02.44-.02.67-.042-.105-.88-.607-1.276-1.673-1.36-1.736-.146-3.347.23-5.02 1.067l-1.025-3.62c1.34-.377 2.594-.9 3.91-1.046 1.61-.167 3.284-.167 4.874.105 2.656.48 4.288 2.615 4.413 5.5.084 2.008.063 4.037.063 6.045.02 1.213.02 2.72.21 3.702zm-5.543-6.903c-1.025-.126-1.924.042-2.782.523-.586.335-.92.9-.774 1.548.105.418.377.94.732 1.15 1.088.628 2.615-.167 2.782-1.422.105-.586.042-1.17.042-1.8zm31.354 6.882h-4.853l-.397-1.34c-1.213 1.213-2.615 1.673-4.204 1.673-2.447 0-4.246-1.297-4.853-3.493-.628-2.3.356-4.623 2.426-5.836 1.694-.983 3.556-1.213 5.46-1.36.23-.02.44-.02.67-.042-.105-.88-.607-1.276-1.673-1.36-1.736-.146-3.347.23-5.02 1.067l-1.025-3.62c1.34-.377 2.594-.9 3.91-1.046 1.61-.167 3.284-.167 4.874.105 2.656.48 4.288 2.615 4.413 5.5.084 2.008.063 4.037.063 6.045 0 1.234.02 2.72.21 3.702zm-5.543-6.903c-1.025-.126-1.924.042-2.782.523-.586.335-.92.9-.774 1.548.105.418.377.94.732 1.15 1.088.628 2.615-.167 2.782-1.422.105-.565.042-1.17.042-1.8zm-37.022-4.038c-2.008-.397-3.89-.774-5.292 1.11-.88 1.192-.88 3.305 0 4.455 1.422 1.903 3.39 1.527 5.46 1.17.188 1.234.544 4.037.544 4.037s-.02 0-.25.084c-3.765 1.025-8.178.293-10.166-2.03-2.05-2.385-2.3-5.187-1.38-8.095.9-2.866 3.054-4.455 5.9-5.062a11.22 11.22 0 0 1 5.459.146 19.13 19.13 0 0 1 .46.126l-.732 4.058zm20.1-11.002h5.397v21.92h-5.397z" fill="#231f20"/></g></svg>