<svg height="464pt" viewBox="-28 0 464 464" width="464pt" xmlns="http://www.w3.org/2000/svg"><path d="m376 344h32v120h-32zm0 0" fill="#277baa"/><path d="m40 0h16v464h-16c-22.089844 0-40-17.910156-40-40v-384c0-22.089844 17.910156-40 40-40zm0 0" fill="#277baa"/><path d="m376 464h-336c-22.089844 0-40-17.910156-40-40s17.910156-40 40-40h336zm0 0" fill="#ebebeb"/><path d="m56 0h352v384h-352zm0 0" fill="#4799cf"/><path d="m344 328h-224c-4.417969 0-8-3.582031-8-8v-224c0-4.417969 3.582031-8 8-8h224c4.417969 0 8 3.582031 8 8v224c0 4.417969-3.582031 8-8 8zm-216-16h208v-208h-208zm0 0" fill="#a8a8a8"/><path d="m104 80h32v32h-32zm0 0" fill="#4799cf"/><path d="m104 304h32v32h-32zm0 0" fill="#4799cf"/><path d="m328 80h32v32h-32zm0 0" fill="#4799cf"/><path d="m328 304h32v32h-32zm0 0" fill="#4799cf"/><path d="m128 104h208v208h-208zm0 0" fill="#c0f5f9"/><g fill="#a8a8a8"><path d="m304 408c-4.417969 0-8 3.582031-8 8s3.582031 8 8 8h72v-16zm0 0"/><path d="m96 424h-56c-4.417969 0-8-3.582031-8-8s3.582031-8 8-8h56c4.417969 0 8 3.582031 8 8s-3.582031 8-8 8zm0 0"/><path d="m160 424h-32c-4.417969 0-8-3.582031-8-8s3.582031-8 8-8h32c4.417969 0 8 3.582031 8 8s-3.582031 8-8 8zm0 0"/><path d="m136 120h-32c-4.417969 0-8-3.582031-8-8v-32c0-4.417969 3.582031-8 8-8h32c4.417969 0 8 3.582031 8 8v32c0 4.417969-3.582031 8-8 8zm-24-16h16v-16h-16zm0 0"/><path d="m136 344h-32c-4.417969 0-8-3.582031-8-8v-32c0-4.417969 3.582031-8 8-8h32c4.417969 0 8 3.582031 8 8v32c0 4.417969-3.582031 8-8 8zm-24-16h16v-16h-16zm0 0"/><path d="m360 120h-32c-4.417969 0-8-3.582031-8-8v-32c0-4.417969 3.582031-8 8-8h32c4.417969 0 8 3.582031 8 8v32c0 4.417969-3.582031 8-8 8zm-24-16h16v-16h-16zm0 0"/><path d="m360 344h-32c-4.417969 0-8-3.582031-8-8v-32c0-4.417969 3.582031-8 8-8h32c4.417969 0 8 3.582031 8 8v32c0 4.417969-3.582031 8-8 8zm-24-16h16v-16h-16zm0 0"/></g><path d="m232 144-48 72 24 72h48l24-72zm0 0" fill="#ebebeb"/><path d="m228 150-44 66 24 72h40l24-72zm0 0" fill="#f7f7f7"/><path d="m248 216c0 8.835938-7.164062 16-16 16s-16-7.164062-16-16 7.164062-16 16-16 16 7.164062 16 16zm0 0" fill="#a8a8a8"/><path d="m232 296c-4.417969 0-8-3.582031-8-8v-64c0-4.417969 3.582031-8 8-8s8 3.582031 8 8v64c0 4.417969-3.582031 8-8 8zm0 0" fill="#a8a8a8"/><path d="m192 128h16v16h-16zm0 0" fill="#8aced8"/><path d="m160 128h16v16h-16zm0 0" fill="#8aced8"/><path d="m224 128h80v16h-80zm0 0" fill="#8aced8"/><path d="m208 288h48v24h-48zm0 0" fill="#4799cf"/><path d="m208 288h40v24h-40zm0 0" fill="#6cbae5"/></svg>