
<svg width="400px" height="400px" viewBox="0 0 400 400" version="1.1" xmlns="http://www.w3.org/2000/svg" xmlns:xlink="http://www.w3.org/1999/xlink">
    <!-- Generator: Sketch 51.2 (57519) - http://www.bohemiancoding.com/sketch -->
    <desc>Created with Sketch.</desc>
    <defs></defs>
    <g id="Page-1" stroke="none" stroke-width="1" fill="none" fill-rule="evenodd">
        <g id="Artboard">
            <g id="twitter">
                <rect id="Rectangle-path" x="0" y="0" width="400" height="400"></rect>
                <path d="M36.487503,1 L363.83087,1 C383.430077,1 399.318373,16.8882963 399.318373,36.487503 L399.318373,363.79987 C399.318373,383.399077 383.430077,399.287373 363.83087,399.287373 L36.487503,399.287373 C16.8882963,399.287373 1,383.399077 1,363.79987 L1,36.487503 C1,16.8882963 16.8882963,1 36.487503,1 Z" id="rect1942" stroke="#000000" stroke-width="0.5" fill="#1DA1F2" stroke-linecap="square" stroke-dasharray="0.5,1" transform="translate(200.159186, 200.143686) scale(-1, 1) translate(-200.159186, -200.143686) "></path>
                <path d="M142.067949,359 C272.943939,359 344.527585,250.570199 344.527585,156.540365 C344.527585,153.460603 344.527585,150.394715 344.319493,147.342699 C358.245444,137.26981 370.266559,124.797726 379.819986,110.510416 C366.833368,116.264878 353.056988,120.038652 338.950719,121.705765 C353.804936,112.813052 364.922313,98.8263558 370.233882,82.3486332 C356.266158,90.637011 340.985111,96.4782462 325.050174,99.6202685 C302.993571,76.1668344 267.945838,70.4265239 239.559731,85.6181736 C211.173624,100.809823 196.508629,133.155344 203.788034,164.517224 C146.575163,161.649017 93.2700413,134.625826 57.1386711,90.1728921 C38.2525576,122.685805 47.8992185,164.279437 79.1686766,185.15995 C67.844882,184.824333 56.7679811,181.769621 46.8727995,176.253613 C46.8727995,176.544942 46.8727995,176.850143 46.8727995,177.155345 C46.8820683,211.027074 70.7583126,240.20077 103.959369,246.90778 C93.4835966,249.764745 82.49233,250.182376 71.8299657,248.128587 C81.1517645,277.114731 107.865597,296.971715 138.308421,297.543498 C113.111741,317.345975 81.9856805,328.095949 49.9386881,328.063657 C44.2772482,328.052789 38.6213147,327.710005 33,327.03707 C65.5405371,347.91947 103.403256,358.996073 142.067949,358.944509" id="Shape" fill="#FBFEFF" fill-rule="nonzero"></path>
            </g>
        </g>
    </g>
</svg>
