<?xml version="1.0"?>
<svg xmlns="http://www.w3.org/2000/svg" id="Layer_1" data-name="Layer 1" viewBox="0 0 128 128" width="512" height="512"><title>VIDEO TUTORIAL</title><path d="M117,32.506h-5.049a19.87,19.87,0,0,0-2.493-6.012l3.572-3.573a1.749,1.749,0,0,0,0-2.475L109.18,16.6a1.749,1.749,0,0,0-2.475,0l-3.572,3.571a19.886,19.886,0,0,0-6.013-2.493V12.626a1.75,1.75,0,0,0-1.75-1.75H89.925a1.75,1.75,0,0,0-1.75,1.75v5.049a19.876,19.876,0,0,0-6.013,2.493L78.59,16.6a1.749,1.749,0,0,0-2.475,0l-3.851,3.85a1.749,1.749,0,0,0,0,2.475l3.572,3.573a19.841,19.841,0,0,0-2.493,6.012H68.295a1.75,1.75,0,0,0-1.75,1.75v.3H11A1.75,1.75,0,0,0,9.25,36.3v65.8a1.75,1.75,0,0,0,1.75,1.75h98.844a1.75,1.75,0,0,0,1.75-1.75V54.947l1.437-1.437a1.749,1.749,0,0,0,0-2.475l-3.572-3.572a19.876,19.876,0,0,0,2.493-6.013H117a1.75,1.75,0,0,0,1.75-1.75V34.256A1.75,1.75,0,0,0,117,32.506ZM12.75,100.354v-62.3H66.545V39.7a1.75,1.75,0,0,0,1.75,1.75h5.049a19.847,19.847,0,0,0,2.493,6.013l-3.572,3.572a1.749,1.749,0,0,0,0,2.475l3.851,3.851a1.749,1.749,0,0,0,2.475,0l3.572-3.572a19.847,19.847,0,0,0,6.013,2.493v5.049a1.75,1.75,0,0,0,1.75,1.75H95.37a1.75,1.75,0,0,0,1.75-1.75V56.282a19.841,19.841,0,0,0,6.012-2.493l3.573,3.572a1.738,1.738,0,0,0,1.389.5v42.495Zm102.5-62.4h-4.744a1.751,1.751,0,0,0-1.73,1.488,16.292,16.292,0,0,1-2.986,7.2,1.75,1.75,0,0,0,.172,2.275l3.357,3.357-.7.7-.015.015-.657.657-3.357-3.357a1.749,1.749,0,0,0-2.275-.172,16.3,16.3,0,0,1-7.2,2.986,1.75,1.75,0,0,0-1.488,1.73v4.744H91.675V54.837a1.75,1.75,0,0,0-1.488-1.73,16.289,16.289,0,0,1-7.2-2.986,1.752,1.752,0,0,0-2.275.172l-3.357,3.357-1.376-1.376,3.357-3.357a1.75,1.75,0,0,0,.172-2.275,16.289,16.289,0,0,1-2.986-7.2,1.75,1.75,0,0,0-1.73-1.488H70.045V36.006h4.744a1.75,1.75,0,0,0,1.73-1.488,16.3,16.3,0,0,1,2.986-7.2,1.751,1.751,0,0,0-.172-2.275l-3.357-3.357,1.376-1.375,3.357,3.356a1.751,1.751,0,0,0,2.275.172,16.292,16.292,0,0,1,7.2-2.986,1.751,1.751,0,0,0,1.488-1.73V14.376H93.62V19.12a1.751,1.751,0,0,0,1.488,1.73,16.3,16.3,0,0,1,7.2,2.986,1.75,1.75,0,0,0,2.275-.172l3.357-3.356,1.376,1.375-3.357,3.357a1.751,1.751,0,0,0-.172,2.275,16.3,16.3,0,0,1,2.986,7.2,1.751,1.751,0,0,0,1.73,1.488h4.744Z"/><path d="M92.647,26.417a10.562,10.562,0,1,0,10.562,10.562A10.574,10.574,0,0,0,92.647,26.417Zm0,17.624a7.062,7.062,0,1,1,7.062-7.062A7.07,7.07,0,0,1,92.647,44.041Z"/><path d="M73.385,67.722,49.32,52.611a1.751,1.751,0,0,0-2.681,1.482V84.314A1.751,1.751,0,0,0,49.32,85.8l24.064-15.11a1.751,1.751,0,0,0,0-2.965ZM50.14,81.149V57.259L69.163,69.2Z"/><path d="M109.844,109.8H36.992a5.324,5.324,0,0,0-5.09-3.825H21.838a5.323,5.323,0,0,0-5.089,3.825H11a1.75,1.75,0,0,0,0,3.5h5.749a5.323,5.323,0,0,0,5.089,3.825H31.9a5.324,5.324,0,0,0,5.09-3.825h72.852a1.75,1.75,0,0,0,0-3.5Zm-76.108,1.992a1.835,1.835,0,0,1-1.833,1.833H21.838a1.835,1.835,0,0,1-1.833-1.833v-.484a1.835,1.835,0,0,1,1.833-1.833H31.9a1.835,1.835,0,0,1,1.833,1.833Z"/></svg>
