<svg height="464pt" viewBox="0 0 464 464" width="464pt" xmlns="http://www.w3.org/2000/svg"><path d="m0 0h464v384h-464zm0 0" fill="#5a6470"/><path d="m32 32h400v320h-400zm0 0" fill="#d0bafa"/><path d="m171.3125 296h-115.3125v-16h108.6875l37.65625-37.65625 11.3125 11.3125zm0 0" fill="#fef000"/><path d="m56 312h32v16h-32zm0 0" fill="#9362f5"/><path d="m104 312h16v16h-16zm0 0" fill="#9362f5"/><path d="m136 312h48v16h-48zm0 0" fill="#9362f5"/><path d="m277.65625 149.65625-11.3125-11.3125 74.34375-74.34375h67.3125v16h-60.6875zm0 0" fill="#fef000"/><path d="m112 416h240v48h-240zm0 0" fill="#5a6470"/><path d="m208 384h48v32h-48zm0 0" fill="#aabece"/><path d="m376 192s-61.710938 64-144 64-144-64-144-64 54.855469-64 144-64 144 64 144 64zm0 0" fill="#f4f4e6"/><g fill="#9362f5"><path d="m72 104h-16v-48h48v16h-32zm0 0"/><path d="m408 328h-48v-16h32v-32h16zm0 0"/><path d="m352 96h48v16h-48zm0 0"/><path d="m352 128h32v16h-32zm0 0"/><path d="m392 248h16v16h-16zm0 0"/></g><path d="m296 192c0 35.347656-28.652344 64-64 64s-64-28.652344-64-64 28.652344-64 64-64 64 28.652344 64 64zm0 0" fill="#e1462b"/><path d="m264 192c0 17.671875-14.328125 32-32 32s-32-14.328125-32-32 14.328125-32 32-32 32 14.328125 32 32zm0 0" fill="#f4f4e6"/></svg>