
<svg width="400px" height="400px" viewBox="0 0 400 400" version="1.1" xmlns="http://www.w3.org/2000/svg" xmlns:xlink="http://www.w3.org/1999/xlink">
    <!-- Generator: Sketch 51.2 (57519) - http://www.bohemiancoding.com/sketch -->
    <desc>Created with Sketch.</desc>
    <defs></defs>
    <g id="Page-1" stroke="none" stroke-width="1" fill="none" fill-rule="evenodd">
        <g id="Artboard">
            <g id="youtube" transform="translate(-7.000000, -4.000000)">
                <path d="M43.487503,5 L370.83087,5 C390.430077,5 406.318373,20.8882963 406.318373,40.487503 L406.318373,367.79987 C406.318373,387.399077 390.430077,403.287373 370.83087,403.287373 L43.487503,403.287373 C23.8882963,403.287373 8,387.399077 8,367.79987 L8,40.487503 C8,20.8882963 23.8882963,5 43.487503,5 Z" id="rectwhite" stroke="#000000" stroke-width="0.5" fill="#D9252A" stroke-linecap="square" stroke-dasharray="0.5,1" transform="translate(207.159186, 204.143686) scale(-1, 1) translate(-207.159186, -204.143686) "></path>
                <rect id="Rectangle-path" x="0" y="0" width="400" height="400"></rect>
                <g id="Group-3" transform="translate(57.000000, 94.000000)" fill-rule="nonzero">
                    <g id="Fill-1-Clipped" fill="#FFFFFF">
                        <path d="M293.391311,32.9792371 C289.945297,19.9973776 279.792836,9.77471682 266.899228,6.30527996 C243.531371,0 149.826693,0 149.826693,0 C149.826693,0 56.1220145,0 32.7541582,6.30527996 C19.8622523,9.77471682 9.70808867,19.9973776 6.26207473,32.9792371 C0,56.5073671 0,105.598962 0,105.598962 C0,105.598962 0,154.688854 6.26207473,178.22039 C9.70808867,191.200546 19.8622523,201.423207 32.7541582,204.894347 C56.1220145,211.197924 149.826693,211.197924 149.826693,211.197924 C149.826693,211.197924 243.531371,211.197924 266.899228,204.894347 C279.792836,201.423207 289.945297,191.200546 293.391311,178.22039 C299.653386,154.688854 299.653386,105.598962 299.653386,105.598962 C299.653386,105.598962 299.653386,56.5073671 293.391311,32.9792371" id="Fill-1"></path>
                    </g>
                    <polyline id="Fill-4" fill="#D9252A" points="119 140 180 105.501318 119 71 119 140"></polyline>
                </g>
            </g>
        </g>
    </g>
</svg>
